<?xml version="1.0" standalone="no"?>
<!DOCTYPE svg PUBLIC "-//W3C//DTD SVG 1.1//EN" "http://www.w3.org/Graphics/SVG/1.1/DTD/svg11.dtd" >
<svg xmlns="http://www.w3.org/2000/svg">
<metadata></metadata>
<defs>
<font id="metaserif-boldregular" horiz-adv-x="1374" >
<font-face units-per-em="2048" ascent="1638" descent="-410" />
<missing-glyph horiz-adv-x="460" />
<glyph horiz-adv-x="2048" />
<glyph horiz-adv-x="2048" />
<glyph unicode="&#xd;" horiz-adv-x="2048" />
<glyph unicode=" "  horiz-adv-x="460" />
<glyph unicode="&#x09;" horiz-adv-x="460" />
<glyph unicode="&#xa0;" horiz-adv-x="460" />
<glyph unicode="!" horiz-adv-x="645" d="M131 1407l379 35l-92 -985h-191zM135 166q0 75 55.5 129.5t131.5 54.5q77 0 132.5 -54.5t55.5 -129.5q0 -78 -55.5 -134.5t-132.5 -56.5q-76 0 -131.5 56.5t-55.5 134.5z" />
<glyph unicode="&#x22;" horiz-adv-x="917" d="M174 928v524h203v-524h-203zM541 928v524h202v-524h-202z" />
<glyph unicode="#" horiz-adv-x="1173" d="M66 432v170h215l36 262h-192v172h215l57 416h156l-57 -416h256l57 416h156l-58 -416h201v-172h-223l-37 -262h199v-170h-222l-61 -432h-156l60 432h-256l-60 -432h-155l59 432h-190zM436 602h256l37 262h-256z" />
<glyph unicode="$" horiz-adv-x="1181" d="M61 90v272h226q13 -130 69 -193.5t162 -72.5v484l-90 22q-179 45 -268.5 138t-89.5 266q0 197 119 309.5t329 130.5v176h113v-174q234 -7 405 -100v-281h-219q-13 108 -54 169t-132 77v-434l84 -21q195 -49 296 -147t101 -277q0 -202 -124.5 -318.5t-356.5 -135.5v-187 h-113v182q-90 1 -165.5 12.5t-132.5 31.5t-88.5 34.5t-70.5 36.5zM340 1120q0 -81 40.5 -132t137.5 -79v406q-86 -10 -132 -61.5t-46 -133.5zM631 100q188 32 188 224q0 88 -43 141.5t-145 85.5v-451z" />
<glyph unicode="%" horiz-adv-x="2050" d="M61 920q0 215 103.5 324.5t277.5 109.5q160 0 264.5 -111t104.5 -315q0 -109 -30.5 -193.5t-83.5 -136t-120.5 -78t-146.5 -26.5q-174 0 -271.5 107.5t-97.5 318.5zM305 932q0 -187 28.5 -268.5t98.5 -81.5q62 0 93.5 80t31.5 266q0 177 -32.5 253t-94.5 76t-93.5 -74.5 t-31.5 -250.5zM432 -252l998 1747h141l-998 -1747h-141zM1239 408q0 215 103.5 324.5t277.5 109.5q160 0 264.5 -111t104.5 -315q0 -109 -30.5 -193.5t-83.5 -136t-120.5 -78t-146.5 -26.5q-174 0 -271.5 107.5t-97.5 318.5zM1483 420q0 -187 28.5 -268.5t98.5 -81.5 q62 0 93.5 80t31.5 266q0 177 -32.5 253t-94.5 76t-93.5 -74.5t-31.5 -250.5z" />
<glyph unicode="&#x26;" horiz-adv-x="1464" d="M47 326q0 141 84 227.5t248 144.5l-82 84q-70 72 -108.5 143.5t-38.5 164.5q0 148 121 247t331 99q202 0 316 -80t114 -234q0 -118 -82.5 -202t-228.5 -152l354 -373q2 5 9.5 29t10.5 34.5t8 32.5t7 43t2 46q0 66 -28.5 88t-118.5 28v88h452v-88q-81 -3 -109 -25t-40 -93 q-25 -151 -103 -281l125 -129q42 -45 79.5 -61.5t94.5 -16.5v-90h-417l-93 94q-86 -60 -181.5 -89.5t-237.5 -29.5q-221 0 -354.5 90.5t-133.5 260.5zM356 373q0 -119 81 -193t214 -74q137 0 228 70l-420 436q-53 -49 -78 -104t-25 -135zM444 1149q0 -63 40.5 -121 t136.5 -154l28 -28q74 66 101.5 127.5t27.5 159.5q0 85 -44.5 132.5t-127.5 47.5q-75 0 -118.5 -42t-43.5 -122z" />
<glyph unicode="'" horiz-adv-x="550" d="M174 928v524h203v-524h-203z" />
<glyph unicode="(" horiz-adv-x="698" d="M80 647q0 155 16 275.5t52.5 225.5t97.5 184.5t150.5 143.5t211.5 111l49 -92q-61 -40 -108 -92.5t-77.5 -118t-51 -134t-31 -155t-14.5 -166t-4 -180.5t4 -181t14 -169.5t30.5 -161.5t51 -139.5t78 -121t108.5 -91.5l-49 -94q-122 44 -213 109t-151 147t-96.5 191.5 t-52 231.5t-15.5 277z" />
<glyph unicode=")" horiz-adv-x="698" d="M41 -215q74 45 127.5 114t84 146.5t48.5 182t23.5 200t5.5 221.5q0 100 -4 179t-14.5 165.5t-31.5 155.5t-52 134.5t-78 118.5t-109 93l49 92q123 -47 212.5 -111t150.5 -143.5t97.5 -184.5t52 -225.5t15.5 -275.5t-15 -277t-51.5 -231.5t-96.5 -191.5t-151 -147 t-214 -109z" />
<glyph unicode="*" horiz-adv-x="944" d="M82 1153l27 84l270 -37l51 266h86l51 -266l267 35l28 -86l-235 -133l118 -254l-75 -60l-201 201l-195 -194l-73 55l114 252z" />
<glyph unicode="+" horiz-adv-x="1179" d="M113 483v144h397v411h158v-411h399v-144h-399v-415h-158v415h-397z" />
<glyph unicode="," horiz-adv-x="595" d="M55 -223q213 65 213 162q0 33 -17 50.5t-58 33.5q-101 45 -101 141q0 70 52 120t130 50q91 0 150 -69t59 -173q0 -155 -93.5 -258t-272.5 -139z" />
<glyph unicode="-" horiz-adv-x="712" d="M98 455v235h516v-235h-516z" />
<glyph unicode="." horiz-adv-x="589" d="M104 166q0 78 56 133t135 55q78 0 134 -55t56 -133q0 -79 -56 -136t-134 -57q-79 0 -135 56.5t-56 136.5z" />
<glyph unicode="/" horiz-adv-x="866" d="M47 -305l533 1878h196l-532 -1878h-197z" />
<glyph unicode="0" horiz-adv-x="1196" d="M82 522q0 246 145.5 399.5t374.5 153.5q106 0 198 -34t162.5 -99t111 -168t40.5 -233q0 -143 -39.5 -253t-110.5 -178t-165.5 -102.5t-208.5 -34.5q-229 0 -368.5 146.5t-139.5 402.5zM416 516q0 -223 40.5 -321.5t143.5 -98.5q91 0 134.5 102.5t43.5 348.5 q0 215 -45 306t-137 91q-95 0 -137.5 -95.5t-42.5 -332.5z" />
<glyph unicode="1" horiz-adv-x="860" d="M57 836l375 219h197v-801q0 -41 3 -64t13 -44t31 -30.5t53 -15.5t84 -8v-92h-692v92q90 4 132 19t56.5 46.5t14.5 98.5v569q-105 -56 -226 -88z" />
<glyph unicode="2" horiz-adv-x="980" d="M37 0v158l217 159q57 42 86.5 65t71 58.5t61.5 61t41.5 59.5t30 69.5t8.5 76.5q0 82 -54 130t-139 48q-73 0 -125.5 -17.5t-111.5 -52.5l-57 117q172 143 421 143q199 0 305.5 -85.5t106.5 -246.5q0 -138 -92 -237t-303 -203l-191 -94h621l-35 -209h-862z" />
<glyph unicode="3" horiz-adv-x="983" d="M-8 -190q126 -17 213 -17q383 0 383 295q0 124 -73 188t-198 64q-61 0 -96 -4v145q78 -4 119 -4q109 0 165 53t56 177q0 188 -192 188q-139 0 -271 -82l-63 113q198 149 440 149q186 0 294 -85.5t108 -244.5q0 -246 -271 -321q141 -23 224 -114.5t83 -213.5 q0 -79 -26.5 -144.5t-74 -112t-109 -81.5t-135.5 -55.5t-148.5 -30.5t-153.5 -10q-138 0 -252 27z" />
<glyph unicode="4" horiz-adv-x="1159" d="M37 16v138l463 907h305l-535 -909h389q0 181 22 298.5t81 233.5l203 37v-569h172v-136h-172v-344l-306 -39v383h-622z" />
<glyph unicode="5" horiz-adv-x="989" d="M-2 -182q108 -27 227 -27q53 0 102 8.5t97.5 30.5t84 55t57.5 87t22 122q0 131 -67 201t-185 70q-126 0 -219 -41l69 725h711l-31 -250h-549l-32 -301q85 26 184 26q201 0 322.5 -102.5t121.5 -284.5q0 -97 -35.5 -176.5t-96 -133.5t-142.5 -91.5t-172.5 -54.5 t-187.5 -17q-88 0 -142 8.5t-112 28.5z" />
<glyph unicode="6" horiz-adv-x="1148" d="M84 530q0 153 48.5 285.5t129 228.5t192 173t228.5 125.5t248 80.5l37 -108q-235 -90 -365 -212.5t-174 -318.5q107 72 244 72q184 0 298.5 -107.5t114.5 -312.5q0 -218 -133 -341.5t-368 -123.5q-241 0 -370.5 146t-129.5 413zM399 516q0 -211 55 -318.5t154 -107.5 q91 0 132.5 77t41.5 239q0 161 -45.5 233t-146.5 72q-102 0 -182 -47q-9 -80 -9 -148z" />
<glyph unicode="7" horiz-adv-x="940" d="M25 795l34 254h859l-35 -232q-336 -451 -445 -1110l-323 -55q121 520 590 1143h-680z" />
<glyph unicode="8" horiz-adv-x="1171" d="M76 328q0 115 80.5 192.5t208.5 122.5q-76 42 -125.5 87t-81 116t-31.5 162q0 79 25.5 143.5t69 108.5t102.5 74t124.5 43.5t137.5 13.5q205 0 326.5 -88t121.5 -236q0 -58 -18.5 -104t-55 -80t-80 -59t-104.5 -48q65 -29 107 -52t86.5 -57.5t69.5 -72.5t41 -92t16 -121 q0 -191 -136.5 -299.5t-377.5 -108.5q-257 0 -381.5 93t-124.5 262zM346 334q0 -240 236 -240q110 0 171.5 54.5t61.5 154.5q0 25 -4 46.5t-9 38.5t-18.5 33.5t-23 27.5t-32.5 25.5t-37.5 23t-47.5 23t-52.5 22.5t-62.5 26l-69 29q-58 -58 -85.5 -119.5t-27.5 -144.5z M399 1073q0 -80 54 -135.5t206 -114.5q55 46 83 101t28 141q0 97 -46.5 151t-137.5 54q-87 0 -137 -53.5t-50 -143.5z" />
<glyph unicode="9" horiz-adv-x="1159" d="M72 614q0 217 133.5 340t363.5 123q232 0 369 -143.5t137 -411.5q0 -154 -52 -288.5t-137.5 -233t-203.5 -177.5t-242 -129t-260 -81l-88 94q321 112 481 283q110 116 150 270q-107 -65 -238 -65q-184 0 -298.5 107t-114.5 312zM375 643q0 -153 46 -228t146 -75 q104 0 183 43q10 82 10 158q0 209 -55 314.5t-154 105.5q-90 0 -133 -78t-43 -240z" />
<glyph unicode=":" horiz-adv-x="643" d="M131 166q0 78 56 133t135 55q78 0 134 -55t56 -133q0 -79 -56 -136t-134 -57q-79 0 -135 56.5t-56 136.5zM131 764q0 78 56 134t135 56q78 0 134 -56t56 -134q0 -79 -56 -136t-134 -57q-79 0 -135 56.5t-56 136.5z" />
<glyph unicode=";" horiz-adv-x="643" d="M90 -223q213 65 213 162q0 33 -17 50.5t-59 33.5q-100 43 -100 141q0 70 52 120t130 50q90 0 148.5 -68.5t58.5 -173.5q0 -155 -93.5 -258t-272.5 -139zM119 764q0 78 55.5 134t134.5 56q78 0 134.5 -56t56.5 -134q0 -79 -56.5 -136t-134.5 -57q-79 0 -134.5 56.5 t-55.5 136.5z" />
<glyph unicode="&#x3c;" horiz-adv-x="989" d="M113 508v168l764 481v-184l-603 -373l603 -330v-174z" />
<glyph unicode="=" horiz-adv-x="1179" d="M113 326v145h954v-145h-954zM113 645v148h954v-148h-954z" />
<glyph unicode="&#x3e;" horiz-adv-x="989" d="M113 96v174l602 330l-602 373v184l764 -481v-168z" />
<glyph unicode="?" horiz-adv-x="960" d="M78 1108v238q69 44 176.5 72t214.5 28q91 0 166.5 -19t133.5 -57.5t90 -102t32 -147.5q0 -54 -16 -102.5t-36 -80t-54 -63.5t-52.5 -45.5t-48.5 -33.5l-63 -43.5t-47 -35.5t-37 -35.5t-22.5 -35t-15 -42.5t-3.5 -50q0 -36 8 -98h-131q-68 77 -68 186q0 125 139 252 q32 29 44.5 41.5t37 40.5t34.5 50t19 55.5t9 70.5q0 68 -39 110t-105 42q-72 0 -114.5 -50t-48.5 -145h-203zM252 166q0 76 55.5 131t132.5 55q78 0 135.5 -55t57.5 -131q0 -79 -57.5 -136t-135.5 -57q-77 0 -132.5 57t-55.5 136z" />
<glyph unicode="@" horiz-adv-x="1857" d="M86 397q0 256 116.5 458t320.5 313.5t458 111.5q237 0 417 -87t278 -246.5t98 -368.5q0 -117 -29.5 -212.5t-80.5 -160t-120.5 -108t-148 -63.5t-164.5 -20q-143 0 -205.5 45t-62.5 140q-54 -93 -121.5 -141t-169.5 -48q-105 0 -163 66.5t-58 191.5q0 173 76.5 323 t214.5 241.5t305 91.5q207 0 319 -68q-36 -101 -55 -188l-90 -412q-9 -40 -9 -66q0 -39 23 -56t74 -17q117 0 196.5 119t79.5 344q0 154 -44 271t-125.5 189t-191.5 108t-247 36q-155 0 -286 -54.5t-224.5 -155t-146 -249t-52.5 -330.5q0 -194 74 -343t216 -232.5t333 -83.5 q185 0 330 49l30 -74q-180 -71 -385 -71q-135 0 -253.5 31t-215 94t-166 152.5t-107.5 212t-38 267.5zM709 287q0 -64 17.5 -89.5t53.5 -25.5q49 0 99.5 51.5t111.5 147.5l99 407q-29 33 -80 33q-85 0 -156 -82.5t-108 -202t-37 -239.5z" />
<glyph unicode="A" d="M16 0v94q68 8 97.5 33t54.5 104l387 1192h258l408 -1192q27 -77 52 -103.5t85 -33.5v-94h-582v94q90 4 112 28q12 13 11 37q0 20 -8 48l-55 176h-439l-51 -176q-8 -30 -8 -51q0 -26 13 -38q24 -20 118 -24v-94h-453zM440 535h346l-110 346q-35 112 -62 231h-10 q-25 -111 -63 -235z" />
<glyph unicode="B" horiz-adv-x="1298" d="M59 0v94q82 0 111 29.5t29 116.5v938q0 87 -28.5 116t-111.5 31v98h656q227 0 357 -94.5t130 -281.5q0 -262 -303 -316v-8q181 -20 269.5 -110.5t88.5 -241.5q0 -371 -485 -371h-713zM520 137h162q132 0 186 55t54 203q0 138 -55 197t-185 59h-162v-514zM520 793h127 q122 0 168.5 50.5t46.5 190.5q0 134 -50.5 189t-172.5 55h-119v-485z" />
<glyph unicode="C" horiz-adv-x="1269" d="M84 692q0 191 47.5 336.5t136 236.5t208.5 137t269 46q280 0 439 -102v-279h-221q-26 125 -73.5 180.5t-148.5 55.5q-76 0 -129 -28t-92.5 -95.5t-58.5 -184.5t-19 -290q0 -146 14.5 -252t39 -170.5t64 -102.5t82 -51.5t99.5 -13.5q117 0 169 56t73 187h211v-270 q-67 -48 -192.5 -80.5t-272.5 -32.5q-313 0 -479 186t-166 531z" />
<glyph unicode="D" horiz-adv-x="1415" d="M59 0v92q83 2 111.5 31.5t28.5 116.5v938q0 87 -29 117t-111 30v98h594q678 0 678 -718q0 -346 -171.5 -525.5t-514.5 -179.5h-586zM522 137h101q81 0 136.5 13.5t101 48.5t71.5 98t39.5 159t13.5 234q0 142 -13.5 242.5t-39.5 168.5t-70 107t-99.5 55.5t-133.5 16.5 h-107v-1143z" />
<glyph unicode="E" horiz-adv-x="1214" d="M59 0v94q82 0 111 29.5t29 116.5v938q0 87 -28.5 116t-111.5 31v98h1024l25 -346h-152q-15 53 -26 81.5t-26.5 55.5t-36 39t-50.5 18.5t-74 6.5h-223v-487h127q95 0 128.5 28.5t39.5 116.5h135v-428h-135q-6 85 -39 115t-127 30h-129v-516h254q104 0 147.5 49t55.5 189 h156v-375h-1074z" />
<glyph unicode="F" horiz-adv-x="1181" d="M59 0v94q82 0 111 29.5t29 116.5v938q0 87 -28.5 116t-111.5 31v98h1026l25 -350h-152q-17 55 -28 85t-27.5 57t-37.5 38.5t-51 18t-75 6.5h-219v-498h127q95 0 128.5 29t39.5 117h135v-430h-135q-6 85 -39.5 116t-126.5 31h-129v-401q0 -88 35 -118t139 -30v-94h-635z " />
<glyph unicode="G" horiz-adv-x="1423" d="M84 692q0 190 49 336t138.5 237t211.5 137t273 46q287 0 454 -105v-278h-225q-25 127 -74 182.5t-161 55.5q-161 0 -235.5 -140.5t-74.5 -462.5q0 -136 13 -237t37.5 -168t63.5 -107.5t85.5 -57.5t108.5 -17q119 0 180 45v313q0 88 -32.5 117.5t-133.5 29.5v99h618v-99 q-76 0 -104.5 -30.5t-28.5 -116.5v-362q-87 -67 -226.5 -100.5t-283.5 -33.5q-310 0 -481.5 186t-171.5 531z" />
<glyph unicode="H" horiz-adv-x="1527" d="M59 0v94q82 0 111 29.5t29 116.5v938q0 87 -28.5 116t-111.5 31v98h603v-98q-83 -2 -112.5 -31.5t-29.5 -115.5v-371h488v371q0 86 -29.5 115.5t-112.5 31.5v98h602v-98q-83 -2 -112 -31t-29 -116v-938q0 -87 29 -116.5t112 -29.5v-94h-602v94q83 0 112.5 29.5 t29.5 116.5v413h-488v-413q0 -87 29.5 -116.5t112.5 -29.5v-94h-603z" />
<glyph unicode="I" horiz-adv-x="718" d="M59 0v94q82 0 111 29.5t29 116.5v938q0 87 -28.5 116t-111.5 31v98h603v-98q-83 -2 -112.5 -31.5t-29.5 -115.5v-938q0 -87 29.5 -116.5t112.5 -29.5v-94h-603z" />
<glyph unicode="J" horiz-adv-x="724" d="M-43 -209q82 39 130 75t74 86.5t34 105.5t8 147v973q0 87 -30 117t-114 30v98h609v-98q-84 0 -114 -30t-30 -117v-959q0 -99 -22 -175.5t-62.5 -132.5t-105 -97.5t-142.5 -68t-182 -46.5z" />
<glyph unicode="K" horiz-adv-x="1400" d="M59 0v94q82 0 111 29.5t29 116.5v938q0 87 -28.5 116t-111.5 31v98h603v-98q-83 -2 -112.5 -31.5t-29.5 -115.5v-938q0 -87 29.5 -116.5t112.5 -29.5v-94h-603zM553 709l389 503q25 35 25 60t-22 40t-64 15v96h458v-96q-65 -7 -112 -38t-109 -107l-287 -351l373 -636 q32 -58 67.5 -77t104.5 -24v-94h-422z" />
<glyph unicode="L" horiz-adv-x="1150" d="M59 0v94q82 0 111 29.5t29 116.5v938q0 87 -28.5 116t-111.5 31v98h605v-98q-84 -2 -114 -31t-30 -116v-1041h193q102 0 156 55.5t83 200.5h158l-29 -393h-1022z" />
<glyph unicode="M" horiz-adv-x="1800" d="M37 0v92q84 3 110.5 35t32.5 127l64 917q2 25 2 46q0 59 -31 82.5t-119 27.5v96h529l221 -714q38 -128 55 -277h8q21 151 56 277l194 714h529v-96q-88 -4 -119 -28.5t-31 -84.5q0 -23 2 -43l82 -921q8 -93 33.5 -124t107.5 -34v-92h-596v92q83 3 111.5 23.5t28.5 77.5 q0 29 -2 47l-56 661q-6 82 -6 209v45h-10q-18 -117 -49 -235l-254 -920h-191l-268 866q-18 57 -37 150.5t-26 140.5h-11q0 -2 -4 -115t-8 -168l-39 -632q-1 -15 -1 -28q-1 -67 21 -92q26 -30 113 -30v-92h-442z" />
<glyph unicode="N" horiz-adv-x="1441" d="M59 0v94q82 0 111 29.5t29 116.5v938q0 87 -28.5 116t-111.5 31v98h471l437 -682q48 -75 85 -153t50 -115h10q-18 139 -18 307v398q0 86 -29.5 115.5t-112.5 31.5v98h449v-98q-79 -2 -107 -31t-28 -116v-1178h-230l-501 778q-103 161 -170 305h-9q19 -136 19 -313v-530 q0 -87 29 -116.5t112 -29.5v-94h-457z" />
<glyph unicode="O" horiz-adv-x="1445" d="M84 696q0 190 47 335.5t133 235.5t201.5 135.5t257.5 45.5q300 0 469.5 -195t169.5 -561q0 -342 -167.5 -529.5t-469.5 -187.5q-306 0 -473.5 189.5t-167.5 531.5zM440 715q0 -230 32.5 -364.5t93 -188t159.5 -53.5q69 0 118 25.5t87.5 90t57 183t18.5 294.5 q0 223 -30.5 355t-91 189t-161.5 57q-100 0 -160.5 -54t-91.5 -183.5t-31 -350.5z" />
<glyph unicode="P" horiz-adv-x="1239" d="M59 0v94q82 0 111 29.5t29 116.5v938q0 87 -28.5 116t-111.5 31v98h652q248 0 379 -107.5t131 -326.5q0 -71 -14.5 -132.5t-51 -119.5t-93 -99.5t-145 -66t-202.5 -24.5h-195v-305q0 -88 35 -118t139 -30v-94h-635zM520 698h137q123 0 172.5 62t49.5 225t-52.5 228 t-185.5 65h-121v-580z" />
<glyph unicode="Q" horiz-adv-x="1447" d="M84 696q0 190 47 335.5t133 235.5t201.5 135.5t257.5 45.5q300 0 469.5 -195t169.5 -561q0 -263 -110 -442.5t-294 -216.5q19 -4 153.5 -42t193.5 -38q66 0 129 14l-56 -225q-45 -31 -135 -31q-66 0 -130 23t-106 51.5t-104.5 72t-103.5 66.5q-55 31 -162.5 52.5 t-138.5 31.5q-198 61 -306 236t-108 452zM440 715q0 -230 32.5 -364.5t93 -188t159.5 -53.5q69 0 118 25.5t87.5 90t57 183t18.5 294.5q0 223 -30.5 355t-91 189t-161.5 57q-100 0 -160.5 -54t-91.5 -183.5t-31 -350.5z" />
<glyph unicode="R" horiz-adv-x="1355" d="M59 0v94q82 0 111 29.5t29 116.5v938q0 87 -28.5 116t-111.5 31v98h650q113 0 202.5 -22.5t158 -70t105.5 -127.5t37 -189q0 -92 -30.5 -162.5t-85.5 -114t-125 -67.5t-156 -29v-8q146 -40 225 -146q59 -85 156 -274q22 -46 36 -66.5t43.5 -35.5t76.5 -17v-94h-414 q-47 111 -69.5 162t-57 122t-72.5 140q-54 97 -97.5 132t-121.5 42v-358q0 -85 30 -115.5t109 -30.5v-94h-600zM520 741h123q121 0 174 58t53 213q0 146 -52 206t-171 60h-127v-537z" />
<glyph unicode="S" horiz-adv-x="1128" d="M61 88v272h213q15 -140 77 -203t181 -63q242 0 242 228q0 97 -48 149t-171 86l-145 39q-170 47 -255 141.5t-85 268.5q0 214 132 328t361 114q248 0 422 -100v-281h-209q-15 124 -67.5 188t-169.5 64q-99 0 -151 -53t-52 -146q0 -85 45 -134.5t154 -78.5l145 -37 q183 -49 280 -152.5t97 -285.5q0 -221 -141 -340t-402 -119q-89 0 -164.5 11t-132.5 32t-86.5 35t-69.5 37z" />
<glyph unicode="T" horiz-adv-x="1245" d="M35 1044l18 379h1137l22 -379h-153q-11 45 -17 68.5t-15.5 53.5t-18.5 44t-22 30t-29.5 22.5t-38 11t-50.5 4.5h-82v-1038q0 -88 34 -117t128 -29v-94h-645v94q94 0 128 29t34 117v1038h-88q-34 0 -58 -4.5t-43 -18.5t-30.5 -28.5t-22.5 -46.5t-17.5 -58.5t-17.5 -77.5 h-153z" />
<glyph unicode="U" horiz-adv-x="1413" d="M47 1325v98h602v-98q-84 -2 -113.5 -31t-29.5 -116v-719q0 -174 64 -246t208 -72q141 0 212 74.5t71 249.5v713q0 87 -29 116t-114 31v98h448v-98q-79 -2 -107 -31t-28 -116v-717q0 -238 -125.5 -362t-392.5 -124q-275 0 -402 114t-127 364v725q0 87 -28 116t-109 31z " />
<glyph unicode="V" horiz-adv-x="1429" d="M39 1327v96h590v-96q-119 0 -119 -78q0 -17 8 -45l201 -661q39 -124 59 -264h13q33 170 63 268l199 657q8 32 8 45q0 78 -125 78v96h455v-96q-68 -8 -97.5 -32.5t-54.5 -102.5l-393 -1192h-262l-410 1196q-26 76 -51 99.5t-84 31.5z" />
<glyph unicode="W" horiz-adv-x="1953" d="M35 1327v96h577v-96q-62 -1 -90 -21.5t-28 -62.5q0 -11 4 -35l120 -594q33 -163 41 -331h11q21 159 61 331l193 809h215l207 -805q16 -60 29 -120.5t18.5 -91.5t12.5 -75.5t7 -45.5h12q30 237 50 331l118 578q4 16 4 45q0 49 -29.5 67.5t-94.5 20.5v96h446v-96 q-65 -8 -95 -36t-48 -105l-277 -1186h-301l-172 672q-25 96 -51 303h-10q-21 -168 -56 -305l-164 -670h-303l-274 1190q-18 77 -45 103t-88 34z" />
<glyph unicode="X" horiz-adv-x="1411" d="M43 0v94q61 8 98 34t80 97l303 490l-301 485q-46 73 -73 96.5t-78 30.5v96h600v-96q-109 0 -109 -65q0 -26 19 -58l180 -303h10l182 299q21 35 21 62q0 65 -105 65v96h441v-96q-58 -7 -91 -33.5t-79 -97.5l-281 -422l340 -547q45 -72 78.5 -99t89.5 -34v-94h-623v94 q53 1 81 19t28 45q0 28 -20 61l-211 356h-11l-209 -360q-18 -30 -18 -59q0 -26 29 -43.5t80 -18.5v-94h-451z" />
<glyph unicode="Y" horiz-adv-x="1339" d="M31 1327v96h583v-96q-100 0 -100 -65q0 -28 18 -68l211 -451h11l207 453q18 44 18 72q0 59 -107 59v96h437v-96q-63 -8 -95 -33.5t-71 -105.5l-309 -641v-307q0 -87 32 -116.5t125 -29.5v-94h-637v94q94 0 127 29.5t33 116.5v303l-328 651q-37 75 -67.5 100t-87.5 33z " />
<glyph unicode="Z" horiz-adv-x="1161" d="M53 0v115l690 1173h-256q-51 0 -86.5 -13t-61 -43t-42.5 -70.5t-33 -104.5h-158l21 364h967v-114l-686 -1170h280q116 0 168 55t84 197h152l-23 -389h-1016z" />
<glyph unicode="[" horiz-adv-x="737" d="M184 -317v1900h494v-115h-217v-1671h217v-114h-494z" />
<glyph unicode="\" horiz-adv-x="866" d="M94 1573h197l532 -1878h-196z" />
<glyph unicode="]" horiz-adv-x="737" d="M59 -203h217v1671h-217v115h494v-1900h-494v114z" />
<glyph unicode="^" horiz-adv-x="1236" d="M133 635l387 815h197l387 -815h-211l-279 596l-272 -596h-209z" />
<glyph unicode="_" horiz-adv-x="1015" d="M-4 -106h1024v-150h-1024v150z" />
<glyph unicode="`" horiz-adv-x="872" d="M164 1339l160 256l385 -381l-54 -71z" />
<glyph unicode="a" horiz-adv-x="1105" d="M51 274q0 177 128 259.5t376 82.5q44 0 98 -4v95q0 120 -33 172.5t-114 52.5q-82 0 -117 -47.5t-47 -139.5h-225v209q87 50 205 82.5t235 32.5q187 0 294 -85t107 -259q0 -15 -4 -162t-4 -256q0 -114 24 -146.5t107 -35.5v-88q-78 -49 -209 -49q-92 0 -145 38t-65 105 q-29 -65 -101.5 -112.5t-183.5 -47.5q-145 0 -235.5 76t-90.5 227zM365 313q0 -84 30 -118.5t92 -34.5q40 0 84.5 21.5t71.5 56.5l6 260h-71q-213 0 -213 -185z" />
<glyph unicode="b" horiz-adv-x="1224" d="M14 1358v90l367 55h31q37 -64 37 -203v-393q42 72 117.5 116t183.5 44q190 0 296.5 -135t106.5 -402q0 -281 -127 -418t-342 -137q-112 0 -187.5 40.5t-113.5 107.5q-28 -92 -64 -123h-200q26 71 26 240v944q0 109 -25.5 140t-105.5 34zM449 227q72 -75 180 -75 q49 0 84 15t63 53t41.5 109t13.5 177q0 200 -47.5 279t-144.5 79q-111 0 -190 -82v-555z" />
<glyph unicode="c" horiz-adv-x="1005" d="M72 504q0 135 42 243t114.5 177.5t167 106t202.5 36.5q210 0 336 -82v-225h-227q-6 101 -27.5 140.5t-81.5 39.5q-40 0 -74.5 -17.5t-66.5 -58.5t-51 -121t-19 -192q0 -216 75 -311t202 -95q68 0 120.5 17t120.5 57l56 -78q-141 -166 -390 -166q-104 0 -193.5 33 t-158.5 96.5t-108 166t-39 233.5z" />
<glyph unicode="d" horiz-adv-x="1251" d="M72 514q0 275 128.5 414t338.5 139q77 0 142 -26.5t103 -73.5v217q0 75 -13 111.5t-38.5 48.5t-79.5 14v90l381 55h53v-1198q0 -77 11.5 -111.5t36.5 -46.5t84 -16v-84l-332 -74h-31q-48 72 -55 166q-44 -72 -130 -118t-188 -46q-189 0 -300 134t-111 405zM401 537 q0 -142 24 -226t64.5 -115.5t104.5 -31.5q104 0 190 86v569q-65 76 -176 76q-49 0 -84.5 -16t-64.5 -55t-43.5 -110.5t-14.5 -176.5z" />
<glyph unicode="e" horiz-adv-x="1083" d="M72 524q0 256 135.5 400.5t361.5 144.5q453 0 453 -504v-88h-623q5 -174 70 -249.5t211 -75.5q142 0 272 71l52 -84q-167 -164 -429 -164q-238 0 -370.5 144t-132.5 405zM401 616h318q0 184 -33.5 255t-116.5 71q-79 0 -118.5 -72t-49.5 -254z" />
<glyph unicode="f" horiz-adv-x="716" d="M57 0v92q77 2 101 29.5t24 114.5v651h-125v104l125 51v150q0 159 103 242.5t284 83.5q67 0 148 -12.5t125 -32.5v-216h-178q-1 67 -21.5 95t-60.5 28q-97 0 -97 -143v-195h248l-33 -155h-213v-651q0 -88 30 -115.5t134 -28.5v-92h-594z" />
<glyph unicode="g" horiz-adv-x="1122" d="M41 -188q0 50 30 87t76 56l203 2q-24 -43 -24 -98q0 -74 49 -107t162 -33q127 0 183 40t56 118q0 76 -56.5 103.5t-217.5 33.5q-154 4 -232 15q-77 9 -114 57t-37 121q0 76 59.5 132.5t165.5 84.5q-127 26 -197.5 104.5t-70.5 196.5q0 162 119 253t321 91q86 0 213 -35 q73 -18 117 -18q51 0 106.5 28t100.5 70l106 -194q-86 -60 -168 -60q-67 0 -135 29q94 -66 94 -182q0 -46 -11.5 -86.5t-43 -83t-82 -72.5t-135.5 -49t-195 -19h-14q-72 -33 -72 -75q0 -45 58 -48l196 -8q206 -9 303 -76.5t97 -226.5q0 -95 -39 -167t-110.5 -115.5 t-165.5 -65t-210 -21.5q-223 0 -354 56.5t-131 161.5zM379 729q0 -211 135 -211q71 0 105 48.5t34 156.5q0 121 -32.5 170t-106.5 49q-68 0 -101.5 -49.5t-33.5 -163.5z" />
<glyph unicode="h" horiz-adv-x="1267" d="M35 1358v90l368 55h31q37 -68 37 -203v-405q76 84 156 128t192 44q134 0 215.5 -78.5t81.5 -230.5v-522q0 -87 24 -114.5t99 -29.5v-92h-551v92q79 1 102 28t23 111v455q0 89 -34 127.5t-101 38.5q-111 0 -207 -78v-543q0 -84 23 -111t102 -28v-92h-553v92q77 2 101 29.5 t24 114.5v948q0 75 -13 111.5t-39 48.5t-81 14z" />
<glyph unicode="i" horiz-adv-x="645" d="M53 0v92q77 2 101 29.5t24 114.5v487q0 77 -10.5 112t-34.5 47.5t-78 14.5v90l383 72h45v-823q0 -88 23 -115.5t100 -28.5v-92h-553zM137 1331q0 74 54.5 126t130.5 52q75 0 126.5 -52t51.5 -126q0 -75 -53.5 -127.5t-129.5 -52.5q-74 0 -127 52.5t-53 127.5z" />
<glyph unicode="j" horiz-adv-x="624" d="M12 -332q93 42 128.5 123.5t35.5 241.5v690q0 77 -11 112t-35 47.5t-79 14.5v90l383 72h45v-1026q0 -358 -407 -455zM135 1331q0 74 54 126t130 52q75 0 127 -52t52 -126q0 -75 -54 -127.5t-131 -52.5q-74 0 -126 52.5t-52 127.5z" />
<glyph unicode="k" horiz-adv-x="1204" d="M35 1358v90l368 55h31q37 -64 37 -203v-1069q0 -84 23 -111t102 -28v-92h-553v92q77 2 101 29.5t24 114.5v948q0 75 -13 111.5t-39 48.5t-81 14zM487 532l265 289q34 40 34 70q0 25 -25.5 40.5t-72.5 16.5v94h467v-94q-59 -7 -105 -36.5t-108 -94.5l-182 -192l274 -420 q40 -63 75.5 -84.5t92.5 -28.5v-92h-381z" />
<glyph unicode="l" horiz-adv-x="638" d="M35 1358v90l371 55h30q37 -60 37 -203v-1062q0 -88 24 -116.5t103 -29.5v-92h-557v92q78 2 102.5 29t24.5 115v948q0 109 -26 140t-109 34z" />
<glyph unicode="m" horiz-adv-x="1863" d="M53 0v92q77 2 101 29.5t24 114.5v487q0 77 -10.5 112t-34.5 47.5t-78 14.5v90l330 82h31q47 -80 55 -178q72 85 153 130.5t185 45.5q91 0 162.5 -48t103.5 -132q145 180 346 180q130 0 210.5 -78.5t80.5 -230.5v-522q0 -87 23.5 -114.5t97.5 -29.5v-92h-539v92 q75 0 95 25.5t20 111.5v457q0 89 -31 127.5t-92 38.5q-54 0 -96 -17.5t-90 -50.5v-555q0 -85 20 -110.5t92 -26.5v-92h-530v92q75 0 95 25.5t20 111.5v457q0 89 -31 127.5t-92 38.5q-56 0 -99.5 -19t-91.5 -55v-549q0 -86 19.5 -111.5t93.5 -25.5v-92h-543z" />
<glyph unicode="n" horiz-adv-x="1280" d="M53 0v92q77 2 101 29.5t24 114.5v487q0 77 -10.5 112t-34.5 47.5t-78 14.5v90l330 82h31q23 -39 39.5 -91.5t19.5 -92.5q75 85 160 133.5t196 48.5q133 0 215 -78.5t82 -230.5v-522q0 -88 23 -115.5t98 -28.5v-92h-549v92q77 1 100 28t23 111v455q0 89 -34 127.5 t-101 38.5q-109 0 -205 -78v-543q0 -84 23 -111t100 -28v-92h-553z" />
<glyph unicode="o" horiz-adv-x="1183" d="M72 518q0 250 143 400.5t385 150.5q233 0 372.5 -136t139.5 -396q0 -142 -41.5 -251.5t-115 -177t-167 -101.5t-202.5 -34q-242 0 -378 143.5t-136 401.5zM406 514q0 -223 40.5 -318.5t149.5 -95.5q94 0 139 106t45 339q0 215 -46 304t-142 89q-67 0 -106.5 -38.5 t-59.5 -131.5t-20 -254z" />
<glyph unicode="p" horiz-adv-x="1259" d="M53 -309q77 2 101 29t24 114v889q0 77 -10.5 112t-34.5 47.5t-78 14.5v90l330 82h31q45 -78 55 -174q44 75 125 123.5t182 48.5q190 0 300 -134.5t110 -402.5q0 -277 -128 -415t-347 -138q-150 0 -230 95v-238q0 -87 24 -114.5t105 -28.5v-92h-559v92zM483 213 q64 -78 172 -78q50 0 86.5 16.5t65 56t43 111t14.5 175.5q0 141 -23 224t-63.5 114.5t-105.5 31.5q-110 0 -189 -82v-569z" />
<glyph unicode="q" horiz-adv-x="1222" d="M72 514q0 140 37.5 247.5t104 173.5t152.5 99t189 33q186 0 281 -123q24 85 84 119h192q-25 -95 -25 -287v-942q0 -87 24 -114t101 -29v-92h-557v92q81 1 105 28.5t24 114.5v301q-45 -72 -123 -116t-178 -44q-189 0 -300 134t-111 405zM401 537q0 -142 24 -226 t64.5 -115.5t104.5 -31.5q104 0 190 86v569q-65 76 -176 76q-49 0 -84.5 -16t-64.5 -55t-43.5 -110.5t-14.5 -176.5z" />
<glyph unicode="r" horiz-adv-x="843" d="M53 0v92q77 2 101 29.5t24 114.5v487q0 77 -10.5 112t-34.5 47.5t-78 14.5v90l330 82h31q58 -108 63 -262q36 125 119.5 193.5t173.5 68.5q46 0 78 -12l-57 -309q-59 16 -113 16q-116 0 -156.5 -44t-40.5 -165v-319q0 -89 29.5 -116t132.5 -28v-92h-592z" />
<glyph unicode="s" horiz-adv-x="956" d="M66 61v222h202q10 -102 61 -142.5t142 -40.5q79 0 124.5 32t45.5 97q0 61 -34 92.5t-109 49.5l-158 35q-270 59 -270 317q0 166 116.5 256t294.5 90q192 0 355 -74v-217h-189q-12 84 -60 121t-130 37q-71 0 -109.5 -31t-38.5 -90q0 -51 30.5 -79.5t100.5 -43.5l140 -30 q317 -70 317 -340q0 -166 -118 -257.5t-333 -91.5q-99 0 -183.5 17.5t-119 32.5t-77.5 38z" />
<glyph unicode="t" horiz-adv-x="731" d="M31 887v104l137 56q21 158 94 270l213 26q-18 -133 -18 -301h248l-35 -155h-211v-551q0 -121 21.5 -164t94.5 -43q52 0 117 25l31 -107q-118 -74 -279 -74q-147 0 -218.5 66.5t-71.5 228.5v619h-123z" />
<glyph unicode="u" horiz-adv-x="1243" d="M35 897v90l377 72h49v-723q0 -85 31 -125.5t100 -40.5q93 0 184 76v477q0 58 -4.5 90t-20 51.5t-36.5 25t-62 7.5v90l377 72h49v-754q0 -76 11 -111t35.5 -47t80.5 -16v-84l-327 -74h-31q-48 74 -55 166q-136 -166 -344 -166q-137 0 -215 72t-78 219v459q0 110 -22 140.5 t-99 33.5z" />
<glyph unicode="v" horiz-adv-x="1130" d="M0 948v94h555v-94q-117 -3 -117 -67q0 -21 11 -54l141 -403q25 -76 39 -160h12q13 75 41 160l131 403q10 33 10 52q0 35 -29 51t-92 18v94h428v-94q-62 -8 -89 -31t-54 -96l-301 -831h-235l-320 831q-29 73 -53 96t-78 31z" />
<glyph unicode="w" horiz-adv-x="1667" d="M2 948v94h543v-94q-113 -3 -113 -74q0 -15 8 -47l101 -378q18 -66 32 -175h13q19 130 30 175l154 593h219l191 -593q27 -82 39 -175h10q20 126 31 172l90 383q6 24 6 45q0 39 -27 55.5t-88 18.5v94h424v-94q-66 -8 -93 -32.5t-50 -102.5l-230 -823h-252l-163 487 q-33 99 -46 215h-10q-23 -144 -45 -215l-137 -487h-254l-246 805q-28 92 -53.5 118.5t-83.5 34.5z" />
<glyph unicode="x" horiz-adv-x="1146" d="M31 0v92q58 6 86 28.5t92 110.5l213 295l-205 289q-61 84 -86 105t-82 28v94h541v-94q-72 -3 -72 -43q0 -22 25 -61l108 -164h8l109 164q18 30 18 55q0 46 -77 49v94h397v-94q-33 -4 -54.5 -11t-43 -26.5t-35 -36t-45.5 -59.5l-189 -260l224 -324q57 -83 87 -108t91 -31 v-92h-541v92q78 3 78 47q0 29 -23 60l-143 211h-8l-139 -207q-21 -30 -21 -56q0 -52 88 -55v-92h-401z" />
<glyph unicode="y" horiz-adv-x="1130" d="M0 948v94h555v-94q-68 -3 -95.5 -16t-27.5 -37q0 -19 12 -51l142 -436q32 -97 41 -177h10q15 77 43 166l139 447q10 33 10 49q0 30 -27.5 41t-99.5 14v94h428v-94q-62 -8 -89 -31t-54 -96l-299 -815q-69 -192 -173.5 -298.5t-278.5 -131.5l-105 191q76 14 128.5 29.5 t107.5 43t94.5 71t66.5 105.5l-116 -10q-39 152 -121 377l-156 428q-28 76 -52.5 103t-82.5 34z" />
<glyph unicode="z" horiz-adv-x="1013" d="M78 0v123l530 790h-182q-104 0 -140 -35t-53 -151h-122v315h845v-118l-534 -797h164q57 0 89 3t61 12.5t47 31.5t34 53.5t35 85.5h121l-41 -313h-854z" />
<glyph unicode="{" horiz-adv-x="798" d="M51 582v100q111 0 164 43t53 143v428q0 137 70 212t215 75h195v-102h-66q-46 0 -77 -16t-47 -45.5t-22 -61t-6 -72.5v-381q0 -59 -14 -106t-34 -75t-46.5 -47.5t-48 -27.5t-43.5 -12v-8q22 -4 43.5 -12t48 -27.5t46.5 -46.5t34 -73.5t14 -104.5v-385q0 -41 6 -72.5 t22 -61t47 -45.5t77 -16h66v-102h-195q-285 0 -285 286v426q0 100 -53.5 143.5t-163.5 43.5z" />
<glyph unicode="|" horiz-adv-x="550" d="M184 -305v1878h183v-1878h-183z" />
<glyph unicode="}" horiz-adv-x="798" d="M51 -215h64q37 0 65 11t44.5 28.5t26.5 44t13.5 52.5t3.5 59v385q0 71 20 124.5t51.5 81t59.5 40.5t56 18v8q-28 5 -55.5 18t-59.5 41t-52 82t-20 127v381q0 41 -6 72.5t-21.5 61t-47.5 45.5t-78 16h-64v102h195q284 0 284 -287v-428q0 -100 53.5 -143t164.5 -43v-100 q-111 0 -164.5 -43.5t-53.5 -143.5v-426q0 -136 -70 -211t-214 -75h-195v102z" />
<glyph unicode="~" horiz-adv-x="1181" d="M145 473q19 129 90 216t168 87q68 0 192.5 -38t176.5 -38q134 0 186 107l78 -37q-30 -127 -102.5 -209t-165.5 -82q-70 0 -199.5 36t-171.5 36q-122 0 -180 -113z" />
<glyph unicode="&#xa1;" horiz-adv-x="645" d="M135 -385l92 985h191l96 -950zM135 891q0 78 56 133t133 55t131.5 -55t54.5 -133q0 -76 -54.5 -130t-131.5 -54t-133 54t-56 130z" />
<glyph unicode="&#xa2;" horiz-adv-x="1064" d="M72 504q0 126 37 229t101.5 172t149 110t183.5 50v174h112v-174q100 -4 187 -26t135 -54v-225h-205q-12 155 -117 180v-807q155 3 293 103l56 -72q-125 -160 -349 -184v-187h-112v182q-100 5 -184.5 40t-149 99t-101 164t-36.5 226zM375 551q0 -339 168 -401v788 q-81 -23 -124.5 -113.5t-43.5 -273.5z" />
<glyph unicode="&#xa3;" horiz-adv-x="1265" d="M68 0v94q95 0 132.5 30t37.5 116v389h-164v123h164v184q0 96 28 174t75 130t112.5 87t137 50.5t150.5 15.5q118 0 214.5 -29t142.5 -68v-237h-228q-8 109 -38.5 157t-100.5 48q-90 0 -131 -63.5t-41 -196.5v-252h391v-123h-391v-492h211q104 0 158.5 55.5t83.5 200.5h157 l-30 -393h-1071z" />
<glyph unicode="&#xa4;" horiz-adv-x="983" d="M102 584q0 177 115 286l-98 152l119 80l104 -160q70 25 150 25q70 0 141 -23l102 158l121 -80l-96 -148q121 -108 121 -290q0 -183 -125 -289l100 -152l-121 -80l-106 162q-61 -18 -137 -18q-86 0 -148 22l-106 -166l-119 80l100 156q-117 107 -117 285zM319 598 q0 -139 38.5 -202.5t131.5 -63.5q94 0 133.5 63.5t39.5 202.5q0 118 -39 180t-134 62q-93 0 -131.5 -62t-38.5 -180z" />
<glyph unicode="&#xa5;" horiz-adv-x="1325" d="M25 1327v96h583v-96q-100 0 -100 -65q0 -28 18 -68l213 -457h11l200 459q19 46 19 72q0 59 -103 59v96h437v-96q-64 -8 -96.5 -34t-69.5 -105l-203 -420h252v-115h-309l-50 -106v-29h359v-115h-359v-165q0 -87 32 -116.5t126 -31.5v-90h-637v90q94 2 126 31.5t32 116.5 v165h-359v115h359v25l-55 110h-304v115h244l-211 426q-37 74 -68 99.5t-87 33.5z" />
<glyph unicode="&#xa6;" horiz-adv-x="561" d="M184 -305v819h183v-819h-183zM184 745v820h183v-820h-183z" />
<glyph unicode="&#xa7;" horiz-adv-x="1112" d="M70 541q0 129 70 209t194 114q-90 43 -137 114.5t-47 182.5q0 113 56 194t145.5 119.5t201.5 38.5q192 0 348 -71v-217h-188q-11 84 -58 119.5t-127 35.5q-68 0 -106.5 -33.5t-38.5 -95.5q0 -50 32.5 -79t104.5 -54l197 -67q160 -55 241.5 -136.5t81.5 -218.5 q0 -123 -70.5 -205t-197.5 -120q184 -104 184 -303q0 -164 -114.5 -252t-327.5 -88q-223 0 -377 84v221h201q11 -102 61.5 -143.5t139.5 -41.5q76 0 121 32t45 97q0 58 -34.5 91.5t-107.5 60.5l-219 78q-134 48 -204 124.5t-70 209.5zM313 645q0 -54 31.5 -89.5t95.5 -59.5 l178 -66q77 14 122.5 55.5t45.5 110.5q0 111 -137 160l-188 59q-66 -15 -107 -62t-41 -108z" />
<glyph unicode="&#xa8;" horiz-adv-x="1120" d="M164 1323q0 70 49.5 118t120.5 48q70 0 118 -47.5t48 -118.5q0 -68 -49 -116t-119 -48q-69 0 -118.5 48.5t-49.5 115.5zM621 1323q0 70 49.5 118t120.5 48q70 0 117.5 -47.5t47.5 -118.5q0 -68 -49 -116t-119 -48q-69 0 -118 48t-49 116z" />
<glyph unicode="&#xa9;" horiz-adv-x="1640" d="M92 705q0 161 57.5 298.5t156.5 232t232.5 147.5t282.5 53t282.5 -53t232.5 -147.5t156.5 -232t57.5 -298.5q0 -217 -96 -384t-261.5 -256.5t-371.5 -89.5t-371.5 89.5t-261.5 256.5t-96 384zM205 702q0 -143 48 -263.5t131 -202.5t196 -127.5t241 -45.5t241 45.5 t196.5 127.5t131.5 202.5t48 263.5q0 146 -48 268t-131.5 203.5t-196 127t-241.5 45.5t-241.5 -45.5t-195.5 -127t-131 -203.5t-48 -268zM408 709q0 207 107.5 316.5t322.5 109.5q177 0 286 -68v-168h-161q-8 76 -34 112t-91 36q-42 0 -72 -14.5t-49.5 -40.5t-30.5 -67 t-15.5 -88t-4.5 -110q0 -78 8 -136t27.5 -104t54.5 -70t86 -24q66 0 96 30.5t41 104.5h151v-170q-115 -65 -286 -65q-436 0 -436 416z" />
<glyph unicode="&#xaa;" horiz-adv-x="878" d="M41 922q0 132 98 195t271 63q50 0 90 -4v69q0 89 -26 129.5t-85 40.5t-83 -35t-27 -104h-189v158q61 37 154.5 61.5t181.5 24.5q141 0 230 -65t89 -193q0 -12 -3 -123.5t-3 -192.5q0 -60 8 -87t26 -36t61 -10v-72q-24 -14 -75 -25t-100 -11q-132 0 -155 108 q-54 -121 -213 -121q-108 0 -179 58t-71 172zM297 956q0 -116 86 -116q64 0 109 57l4 190q-40 5 -54 5q-145 0 -145 -136z" />
<glyph unicode="&#xab;" horiz-adv-x="1247" d="M92 514l428 467l109 -92l-232 -381l232 -367l-109 -94zM582 514l430 467l106 -92l-231 -381l231 -367l-106 -94z" />
<glyph unicode="&#xac;" horiz-adv-x="1036" d="M113 467v149h811v-475h-158v326h-653z" />
<glyph unicode="&#xad;" horiz-adv-x="712" d="M98 455v235h516v-235h-516z" />
<glyph unicode="&#xae;" horiz-adv-x="1640" d="M92 705q0 161 57.5 298.5t156.5 232t232.5 147.5t282.5 53t282.5 -53t232.5 -147.5t156.5 -232t57.5 -298.5q0 -217 -96 -384t-261.5 -256.5t-371.5 -89.5t-371.5 89.5t-261.5 256.5t-96 384zM205 702q0 -143 48 -263.5t131 -202.5t196 -127.5t241 -45.5t241 45.5 t196.5 127.5t131.5 202.5t48 263.5q0 146 -48 268t-131.5 203.5t-196 127t-241.5 45.5t-241.5 -45.5t-195.5 -127t-131 -203.5t-48 -268zM453 307v72q61 0 74.5 21.5t13.5 93.5v438q0 72 -13.5 93.5t-74.5 21.5v75h372q153 0 233.5 -49.5t80.5 -171.5q0 -61 -16.5 -103 t-49.5 -65t-72.5 -33.5t-95.5 -13.5v-6q98 -17 144 -96q24 -40 71 -135q23 -46 39 -58t64 -12v-72h-271q-13 34 -88 205q-44 100 -63 125.5t-58 26.5v-170q0 -71 16.5 -93t78.5 -22v-72h-385zM743 743h58q70 0 97.5 32.5t27.5 117.5q0 77 -31 106t-117 29h-35v-285z" />
<glyph unicode="&#xaf;" horiz-adv-x="946" d="M164 1231v160h618v-160h-618z" />
<glyph unicode="&#xb0;" horiz-adv-x="856" d="M92 1079q0 159 91 252.5t241 93.5q160 0 250 -93t90 -257q0 -157 -92.5 -250.5t-243.5 -93.5q-158 0 -247 93t-89 255zM266 1090q0 -117 40 -166.5t126 -49.5q160 0 160 197q0 119 -39 168t-125 49q-83 0 -122.5 -49t-39.5 -149z" />
<glyph unicode="&#xb1;" horiz-adv-x="1036" d="M113 49v152h811v-152h-811zM113 598v150h329v290h158v-290h324v-150h-324v-309h-158v309h-329z" />
<glyph unicode="&#xb2;" horiz-adv-x="786" d="M41 512v123l141 125q41 36 57 50t46 42t40 40t29 34.5t24.5 36.5t14.5 34.5t11 40t2 43.5q0 59 -36.5 90t-90.5 31q-100 0 -175 -53l-47 74q55 57 135.5 94t176.5 37q142 0 226.5 -64t84.5 -184q0 -68 -25.5 -123t-85.5 -109q-34 -31 -84.5 -61.5t-167.5 -93.5l-67 -37 h475l-25 -170h-659z" />
<glyph unicode="&#xb3;" horiz-adv-x="722" d="M25 590q71 -15 143 -15q102 0 160.5 47.5t58.5 129.5q0 139 -149 139q-12 0 -62 -4v110q27 -2 72 -2q69 0 103 28t34 97q0 51 -34 78t-89 27q-50 0 -86.5 -12t-81.5 -37l-43 75q128 103 303 103q124 0 202.5 -53t78.5 -150q0 -76 -60 -128t-157 -73q111 -6 176 -63 t65 -142q0 -70 -38 -124.5t-102 -86t-140.5 -47.5t-161.5 -16q-94 0 -176 21z" />
<glyph unicode="&#xb4;" horiz-adv-x="872" d="M164 1214l385 381l160 -256l-492 -196z" />
<glyph unicode="&#xb5;" horiz-adv-x="1265" d="M55 897v90l377 72h49v-717q0 -85 31.5 -126.5t101.5 -41.5q97 0 183 72v477q0 110 -22 140.5t-99 33.5v90l377 72h49v-754q0 -77 10.5 -111t35 -46.5t81.5 -16.5v-84l-330 -74h-31q-47 59 -55 158q-49 -87 -106.5 -121.5t-139.5 -34.5q-55 0 -96 31l-6 -8q10 -73 10 -152 v-219l-297 -59v1155q0 58 -4.5 90t-20 51.5t-36.5 25t-62 7.5z" />
<glyph unicode="&#xb6;" horiz-adv-x="1355" d="M41 1008q0 221 102.5 318t339.5 97h811v-92q-101 -3 -132.5 -34t-31.5 -121v-1420h-149v1542h-166v-1542h-149v828h-185q-216 0 -328 98.5t-112 325.5zM426 1008q0 -165 34 -231t132 -66h74v587h-74q-53 0 -83.5 -11t-50 -44.5t-26 -87.5t-6.5 -147z" />
<glyph unicode="&#xb7;" horiz-adv-x="616" d="M119 578q0 78 55 133t133 55t134.5 -55t56.5 -133q0 -81 -56.5 -138t-134.5 -57t-133 56.5t-55 138.5z" />
<glyph unicode="&#xb8;" horiz-adv-x="589" d="M82 -367l33 80q57 -37 137 -37q36 0 54 13t18 45q0 62 -121 65l2 43l55 193l98 -12l-30 -107q98 -6 147 -47.5t49 -112.5q0 -91 -59.5 -132.5t-181.5 -41.5q-127 0 -201 51z" />
<glyph unicode="&#xb9;" horiz-adv-x="716" d="M61 1151l304 186h147v-608q0 -84 29.5 -111t132.5 -30v-76h-578v76q112 4 144 31t32 112v418q-75 -49 -172 -78z" />
<glyph unicode="&#xba;" horiz-adv-x="903" d="M55 1102q0 188 109.5 302t294.5 114q177 0 283 -103.5t106 -298.5q0 -106 -32.5 -189t-88.5 -133.5t-127 -76t-154 -25.5q-184 0 -287.5 108t-103.5 302zM322 1102q0 -166 29.5 -238.5t105.5 -72.5q66 0 98.5 78.5t32.5 252.5q0 160 -33 227.5t-102 67.5t-100 -69.5 t-31 -245.5z" />
<glyph unicode="&#xbb;" horiz-adv-x="1247" d="M129 141l231 367l-231 381l107 92l430 -467l-430 -467zM618 141l232 367l-232 381l107 92l430 -467l-430 -467z" />
<glyph unicode="&#xbc;" horiz-adv-x="1992" d="M61 1151l304 186h147v-608q0 -84 29.5 -111t132.5 -30v-76h-578v76q112 4 144 31t32 112v418q-75 -49 -172 -78zM414 -252l997 1747h143l-997 -1747h-143zM1221 184v103l284 536h205l-324 -528h207q0 198 78 307l162 23v-330h106v-111h-106v-190l-240 -19v209h-372z" />
<glyph unicode="&#xbd;" horiz-adv-x="2041" d="M61 1151l304 186h147v-608q0 -84 29.5 -111t132.5 -30v-76h-578v76q112 4 144 31t32 112v418q-75 -49 -172 -78zM414 -252l997 1747h143l-997 -1747h-143zM1303 0v123l141 125q52 46 74 66t55 52t44.5 50t26.5 45t19 52t4 56q0 59 -36.5 90t-90.5 31q-99 0 -174 -53 l-47 74q55 57 135 94t176 37q142 0 227 -64t85 -184q0 -110 -65.5 -185.5t-195.5 -146.5l-170 -92h476l-25 -170h-659z" />
<glyph unicode="&#xbe;" horiz-adv-x="1955" d="M25 590q71 -15 143 -15q102 0 160.5 47.5t58.5 129.5q0 139 -149 139q-12 0 -62 -4v110q27 -2 72 -2q69 0 103 28t34 97q0 51 -34 78t-89 27q-50 0 -86.5 -12t-81.5 -37l-43 75q128 103 303 103q124 0 202.5 -53t78.5 -150q0 -76 -60 -128t-157 -73q111 -6 176 -63 t65 -142q0 -70 -38 -124.5t-102 -86t-140.5 -47.5t-161.5 -16q-94 0 -176 21zM375 -252l997 1747h144l-998 -1747h-143zM1184 184v103l284 536h205l-323 -528h206q0 198 78 307l162 23v-330h107v-111h-107v-190l-240 -19v209h-372z" />
<glyph unicode="&#xbf;" horiz-adv-x="960" d="M78 -68q0 53 16.5 102.5t37 81.5t54 64.5t51.5 45.5t46 32q52 35 74.5 51.5t51 41t39 44t18 46t7.5 61.5q0 55 -8 96h133q66 -75 66 -184q0 -126 -140 -254q-37 -34 -55 -52.5t-42 -51.5t-34 -69.5t-10 -82.5q0 -70 38 -112t103 -42q74 0 117 50t47 145h203v-236 q-69 -45 -176.5 -73.5t-214.5 -28.5q-123 0 -215.5 32.5t-149.5 107t-57 185.5zM338 887q0 79 56 135.5t134 56.5t133.5 -56.5t55.5 -135.5q0 -77 -55.5 -132t-133.5 -55q-77 0 -133.5 55.5t-56.5 131.5z" />
<glyph unicode="&#xc0;" d="M16 0v94q68 8 97.5 33t54.5 104l387 1192h258l408 -1192q27 -77 52 -103.5t85 -33.5v-94h-582v94q90 4 111.5 28t3.5 85l-55 176h-439l-51 -176q-19 -69 5 -88.5t118 -24.5v-94h-453zM348 1636l133 267l420 -336l-49 -78zM440 535h346l-110 346q-35 112 -62 231h-10 q-25 -111 -63 -235z" />
<glyph unicode="&#xc1;" d="M16 0v94q68 8 97.5 33t54.5 104l387 1192h258l408 -1192q27 -77 52 -103.5t85 -33.5v-94h-582v94q90 4 111.5 28t3.5 85l-55 176h-439l-51 -176q-19 -69 5 -88.5t118 -24.5v-94h-453zM440 535h346l-110 346q-35 112 -62 231h-10q-25 -111 -63 -235zM449 1567l419 336 l133 -267l-505 -147z" />
<glyph unicode="&#xc2;" d="M16 0v94q68 8 97.5 33t54.5 104l387 1192h258l408 -1192q27 -77 52 -103.5t85 -33.5v-94h-582v94q90 4 111.5 28t3.5 85l-55 176h-439l-51 -176q-19 -69 5 -88.5t118 -24.5v-94h-453zM326 1573l360 354l361 -354l-52 -76l-309 158l-309 -158zM440 535h346l-110 346 q-35 112 -62 231h-10q-25 -111 -63 -235z" />
<glyph unicode="&#xc3;" d="M16 0v94q68 8 97.5 33t54.5 104l387 1192h258l408 -1192q27 -77 52 -103.5t85 -33.5v-94h-582v94q90 4 111.5 28t3.5 85l-55 176h-439l-51 -176q-19 -69 5 -88.5t118 -24.5v-94h-453zM315 1559q18 115 80.5 194.5t149.5 79.5q64 0 150 -39t134 -39q104 0 152 94l78 -32 q-30 -116 -92 -190.5t-146 -74.5q-54 0 -106 18.5t-97 37t-81 18.5q-51 0 -86 -23.5t-64 -76.5zM440 535h346l-110 346q-35 112 -62 231h-10q-25 -111 -63 -235z" />
<glyph unicode="&#xc4;" d="M16 0v94q68 8 97.5 33t54.5 104l387 1192h258l408 -1192q27 -77 52 -103.5t85 -33.5v-94h-582v94q90 4 111.5 28t3.5 85l-55 176h-439l-51 -176q-19 -69 5 -88.5t118 -24.5v-94h-453zM289 1673q0 69 49.5 117.5t120.5 48.5q70 0 118 -48.5t48 -117.5q0 -68 -49 -116 t-119 -48q-69 0 -118.5 48.5t-49.5 115.5zM440 535h346l-110 346q-35 112 -62 231h-10q-25 -111 -63 -235zM745 1673q0 69 49.5 117.5t120.5 48.5q70 0 118 -48.5t48 -117.5q0 -68 -49 -116t-119 -48q-69 0 -118.5 48.5t-49.5 115.5z" />
<glyph unicode="&#xc5;" d="M16 0v94q68 8 97.5 33t54.5 104l387 1192h258l408 -1192q27 -77 52 -103.5t85 -33.5v-94h-582v94q90 4 111.5 28t3.5 85l-55 176h-439l-51 -176q-19 -69 5 -88.5t118 -24.5v-94h-453zM440 535h346l-110 346q-35 112 -62 231h-10q-25 -111 -63 -235zM446 1731 q0 102 67.5 169.5t172.5 67.5t173.5 -67.5t68.5 -169.5q0 -103 -68.5 -170.5t-173.5 -67.5t-172.5 67.5t-67.5 170.5zM571 1731q0 -52 31 -86.5t84 -34.5t84 34.5t31 86.5q0 55 -31 91t-84 36t-84 -36t-31 -91z" />
<glyph unicode="&#xc6;" horiz-adv-x="1921" d="M16 0v94q70 8 109 33t74 94l483 959q20 41 20 73q0 69 -120 72v98h1198l24 -346h-153q-15 53 -26 81.5t-26.5 55.5t-36 39t-49.5 18.5t-73 6.5h-223v-487h124q96 0 130 29t40 116h136v-428h-136q-6 84 -40 114.5t-128 30.5h-126v-516h253q104 0 147.5 49t55.5 189h156 v-375h-1063v94q83 0 112 29.5t29 116.5v221h-399l-133 -258q-19 -36 -19 -56q0 -27 29 -38.5t94 -14.5v-94h-463zM586 612h321v269q0 183 19 397h-11z" />
<glyph unicode="&#xc7;" horiz-adv-x="1269" d="M84 692q0 191 47.5 336.5t136 236.5t208.5 137t269 46q280 0 439 -102v-279h-221q-26 125 -73.5 180.5t-148.5 55.5q-76 0 -129 -28t-92.5 -95.5t-58.5 -184.5t-19 -290q0 -146 14.5 -252t39 -170.5t64 -102.5t82 -51.5t99.5 -13.5q117 0 169 56t73 187h211v-270 q-67 -48 -191.5 -80.5t-271.5 -32.5l-16 -59q98 -6 147 -47.5t49 -112.5q0 -91 -59.5 -132.5t-181.5 -41.5q-127 0 -201 51l33 80q57 -37 137 -37q36 0 54 13t18 45q0 62 -119 65v43l39 140q-265 28 -406 210.5t-141 499.5z" />
<glyph unicode="&#xc8;" horiz-adv-x="1214" d="M59 0v94q82 0 111 29.5t29 116.5v938q0 87 -28.5 116t-111.5 31v98h1024l25 -346h-152q-15 53 -26 81.5t-26.5 55.5t-36 39t-50.5 18.5t-74 6.5h-223v-487h127q95 0 128.5 28.5t39.5 116.5h135v-428h-135q-6 85 -39 115t-127 30h-129v-516h254q104 0 147.5 49t55.5 189 h156v-375h-1074zM303 1636l133 267l420 -336l-49 -78z" />
<glyph unicode="&#xc9;" horiz-adv-x="1214" d="M59 0v94q82 0 111 29.5t29 116.5v938q0 87 -28.5 116t-111.5 31v98h1024l25 -346h-152q-15 53 -26 81.5t-26.5 55.5t-36 39t-50.5 18.5t-74 6.5h-223v-487h127q95 0 128.5 28.5t39.5 116.5h135v-428h-135q-6 85 -39 115t-127 30h-129v-516h254q104 0 147.5 49t55.5 189 h156v-375h-1074zM352 1567l420 336l133 -267l-506 -147z" />
<glyph unicode="&#xca;" horiz-adv-x="1214" d="M59 0v94q82 0 111 29.5t29 116.5v938q0 87 -28.5 116t-111.5 31v98h1024l25 -346h-152q-15 53 -26 81.5t-26.5 55.5t-36 39t-50.5 18.5t-74 6.5h-223v-487h127q95 0 128.5 28.5t39.5 116.5h135v-428h-135q-6 85 -39 115t-127 30h-129v-516h254q104 0 147.5 49t55.5 189 h156v-375h-1074zM260 1573l361 354l360 -354l-51 -76l-309 158l-310 -158z" />
<glyph unicode="&#xcb;" horiz-adv-x="1214" d="M59 0v94q82 0 111 29.5t29 116.5v938q0 87 -28.5 116t-111.5 31v98h1024l25 -346h-152q-15 53 -26 81.5t-26.5 55.5t-36 39t-50.5 18.5t-74 6.5h-223v-487h127q95 0 128.5 28.5t39.5 116.5h135v-428h-135q-6 85 -39 115t-127 30h-129v-516h254q104 0 147.5 49t55.5 189 h156v-375h-1074zM223 1673q0 69 49.5 117.5t120.5 48.5q70 0 118 -48.5t48 -117.5q0 -68 -49 -116t-119 -48q-69 0 -118.5 48.5t-49.5 115.5zM680 1673q0 69 49.5 117.5t120.5 48.5q70 0 118 -48.5t48 -117.5q0 -68 -49 -116t-119 -48q-69 0 -118.5 48.5t-49.5 115.5z" />
<glyph unicode="&#xcc;" horiz-adv-x="718" d="M43 1636l133 267l420 -336l-49 -78zM59 0v94q82 0 111 29.5t29 116.5v938q0 87 -28.5 116t-111.5 31v98h603v-98q-83 -2 -112.5 -31.5t-29.5 -115.5v-938q0 -87 29.5 -116.5t112.5 -29.5v-94h-603z" />
<glyph unicode="&#xcd;" horiz-adv-x="718" d="M59 0v94q82 0 111 29.5t29 116.5v938q0 87 -28.5 116t-111.5 31v98h603v-98q-83 -2 -112.5 -31.5t-29.5 -115.5v-938q0 -87 29.5 -116.5t112.5 -29.5v-94h-603zM92 1567l420 336l133 -267l-506 -147z" />
<glyph unicode="&#xce;" horiz-adv-x="718" d="M0 1573l360 354l361 -354l-51 -76l-310 158l-309 -158zM59 0v94q82 0 111 29.5t29 116.5v938q0 87 -28.5 116t-111.5 31v98h603v-98q-83 -2 -112.5 -31.5t-29.5 -115.5v-938q0 -87 29.5 -116.5t112.5 -29.5v-94h-603z" />
<glyph unicode="&#xcf;" horiz-adv-x="718" d="M-37 1673q0 69 49.5 117.5t120.5 48.5q70 0 118 -48.5t48 -117.5q0 -68 -49 -116t-119 -48q-69 0 -118.5 48.5t-49.5 115.5zM59 0v94q82 0 111 29.5t29 116.5v938q0 87 -28.5 116t-111.5 31v98h603v-98q-83 -2 -112.5 -31.5t-29.5 -115.5v-938q0 -87 29.5 -116.5 t112.5 -29.5v-94h-603zM420 1673q0 69 49.5 117.5t120.5 48.5q70 0 118 -48.5t48 -117.5q0 -68 -49 -116t-119 -48q-69 0 -118.5 48.5t-49.5 115.5z" />
<glyph unicode="&#xd0;" horiz-adv-x="1415" d="M57 657v146h142v375q0 87 -29 117t-111 30v98h594q678 0 678 -718q0 -346 -171.5 -525.5t-514.5 -179.5h-586v92q83 2 111.5 31.5t28.5 116.5v417h-142zM522 137h101q81 0 136.5 13.5t101 48.5t71.5 98t39.5 159t13.5 234q0 142 -13.5 242.5t-39.5 168.5t-70 107 t-99.5 55.5t-133.5 16.5h-107v-477h238v-146h-238v-520z" />
<glyph unicode="&#xd1;" horiz-adv-x="1441" d="M59 0v94q82 0 111 29.5t29 116.5v938q0 87 -28.5 116t-111.5 31v98h471l437 -682q48 -75 85 -153t50 -115h10q-18 139 -18 307v398q0 86 -29.5 115.5t-112.5 31.5v98h449v-98q-79 -2 -107 -31t-28 -116v-1178h-230l-501 778q-103 161 -170 305h-9q19 -136 19 -313v-530 q0 -87 29 -116.5t112 -29.5v-94h-457zM358 1559q18 115 80.5 194.5t149.5 79.5q64 0 150 -39t134 -39q104 0 152 94l78 -32q-30 -116 -92 -190.5t-146 -74.5q-54 0 -106 18.5t-97 37t-81 18.5q-51 0 -86 -23.5t-64 -76.5z" />
<glyph unicode="&#xd2;" horiz-adv-x="1445" d="M84 696q0 190 47 335.5t133 235.5t201.5 135.5t257.5 45.5q300 0 469.5 -195t169.5 -561q0 -342 -167.5 -529.5t-469.5 -187.5q-306 0 -473.5 189.5t-167.5 531.5zM406 1636l133 267l419 -336l-49 -78zM440 715q0 -230 32.5 -364.5t93 -188t159.5 -53.5q69 0 118 25.5 t87.5 90t57 183t18.5 294.5q0 223 -30.5 355t-91 189t-161.5 57q-100 0 -160.5 -54t-91.5 -183.5t-31 -350.5z" />
<glyph unicode="&#xd3;" horiz-adv-x="1445" d="M84 696q0 190 47 335.5t133 235.5t201.5 135.5t257.5 45.5q300 0 469.5 -195t169.5 -561q0 -342 -167.5 -529.5t-469.5 -187.5q-306 0 -473.5 189.5t-167.5 531.5zM440 715q0 -230 32.5 -364.5t93 -188t159.5 -53.5q69 0 118 25.5t87.5 90t57 183t18.5 294.5 q0 223 -30.5 355t-91 189t-161.5 57q-100 0 -160.5 -54t-91.5 -183.5t-31 -350.5zM455 1567l419 336l134 -267l-506 -147z" />
<glyph unicode="&#xd4;" horiz-adv-x="1445" d="M84 696q0 190 47 335.5t133 235.5t201.5 135.5t257.5 45.5q300 0 469.5 -195t169.5 -561q0 -342 -167.5 -529.5t-469.5 -187.5q-306 0 -473.5 189.5t-167.5 531.5zM362 1573l361 354l360 -354l-51 -76l-309 158l-309 -158zM440 715q0 -230 32.5 -364.5t93 -188 t159.5 -53.5q69 0 118 25.5t87.5 90t57 183t18.5 294.5q0 223 -30.5 355t-91 189t-161.5 57q-100 0 -160.5 -54t-91.5 -183.5t-31 -350.5z" />
<glyph unicode="&#xd5;" horiz-adv-x="1445" d="M84 696q0 190 47 335.5t133 235.5t201.5 135.5t257.5 45.5q300 0 469.5 -195t169.5 -561q0 -342 -167.5 -529.5t-469.5 -187.5q-306 0 -473.5 189.5t-167.5 531.5zM352 1559q18 115 80.5 194.5t149.5 79.5q64 0 150 -39t134 -39q104 0 152 94l78 -32q-30 -116 -92 -190.5 t-146 -74.5q-54 0 -106 18.5t-97.5 37t-81.5 18.5q-50 0 -84.5 -23.5t-64.5 -76.5zM440 715q0 -230 32.5 -364.5t93 -188t159.5 -53.5q69 0 118 25.5t87.5 90t57 183t18.5 294.5q0 223 -30.5 355t-91 189t-161.5 57q-100 0 -160.5 -54t-91.5 -183.5t-31 -350.5z" />
<glyph unicode="&#xd6;" horiz-adv-x="1445" d="M84 696q0 190 47 335.5t133 235.5t201.5 135.5t257.5 45.5q300 0 469.5 -195t169.5 -561q0 -342 -167.5 -529.5t-469.5 -187.5q-306 0 -473.5 189.5t-167.5 531.5zM326 1673q0 69 49.5 117.5t120.5 48.5q70 0 118 -48.5t48 -117.5q0 -68 -49 -116t-119 -48 q-69 0 -118.5 48.5t-49.5 115.5zM440 715q0 -230 32.5 -364.5t93 -188t159.5 -53.5q69 0 118 25.5t87.5 90t57 183t18.5 294.5q0 223 -30.5 355t-91 189t-161.5 57q-100 0 -160.5 -54t-91.5 -183.5t-31 -350.5zM782 1673q0 69 49.5 117.5t120.5 48.5q70 0 118 -48.5 t48 -117.5q0 -68 -49 -116t-119 -48q-69 0 -118.5 48.5t-49.5 115.5z" />
<glyph unicode="&#xd7;" horiz-adv-x="1062" d="M113 242l313 311l-311 315l100 105l315 -314l316 314l104 -105l-315 -315l315 -311l-104 -107l-316 318l-315 -318z" />
<glyph unicode="&#xd8;" horiz-adv-x="1445" d="M84 696q0 190 47 335.5t133 235.5t201.5 135.5t257.5 45.5q189 0 328 -80l104 172l100 -55l-112 -182q219 -197 219 -611q0 -342 -167.5 -529.5t-469.5 -187.5q-200 0 -344 84l-109 -178l-96 56l115 188q-207 189 -207 571zM434 715q0 -183 23 -318l479 783 q-66 123 -213 123q-101 0 -162.5 -54t-94 -184t-32.5 -350zM500 252q67 -143 225 -143q70 0 119 25.5t89 89.5t59.5 183t19.5 295q0 199 -29 338z" />
<glyph unicode="&#xd9;" horiz-adv-x="1413" d="M47 1325v98h602v-98q-84 -2 -113.5 -31t-29.5 -116v-719q0 -174 64 -246t208 -72q141 0 212 74.5t71 249.5v713q0 87 -29 116t-114 31v98h448v-98q-79 -2 -107 -31t-28 -116v-717q0 -238 -125.5 -362t-392.5 -124q-275 0 -402 114t-127 364v725q0 87 -28 116t-109 31z M451 1636l133 267l420 -336l-50 -78z" />
<glyph unicode="&#xda;" horiz-adv-x="1413" d="M47 1325v98h602v-98q-84 -2 -113.5 -31t-29.5 -116v-719q0 -174 64 -246t208 -72q141 0 212 74.5t71 249.5v713q0 87 -29 116t-114 31v98h448v-98q-79 -2 -107 -31t-28 -116v-717q0 -238 -125.5 -362t-392.5 -124q-275 0 -402 114t-127 364v725q0 87 -28 116t-109 31z M500 1567l420 336l133 -267l-506 -147z" />
<glyph unicode="&#xdb;" horiz-adv-x="1413" d="M47 1325v98h602v-98q-84 -2 -113.5 -31t-29.5 -116v-719q0 -174 64 -246t208 -72q141 0 212 74.5t71 249.5v713q0 87 -29 116t-114 31v98h448v-98q-79 -2 -107 -31t-28 -116v-717q0 -238 -125.5 -362t-392.5 -124q-275 0 -402 114t-127 364v725q0 87 -28 116t-109 31z M408 1573l360 354l360 -354l-51 -76l-309 158l-309 -158z" />
<glyph unicode="&#xdc;" horiz-adv-x="1413" d="M47 1325v98h602v-98q-84 -2 -113.5 -31t-29.5 -116v-719q0 -174 64 -246t208 -72q141 0 212 74.5t71 249.5v713q0 87 -29 116t-114 31v98h448v-98q-79 -2 -107 -31t-28 -116v-717q0 -238 -125.5 -362t-392.5 -124q-275 0 -402 114t-127 364v725q0 87 -28 116t-109 31z M371 1673q0 69 49.5 117.5t120.5 48.5q70 0 118 -48.5t48 -117.5q0 -68 -49 -116t-119 -48q-69 0 -118.5 48.5t-49.5 115.5zM827 1673q0 69 49.5 117.5t120.5 48.5q70 0 118 -48.5t48 -117.5q0 -68 -49 -116t-119 -48q-69 0 -118.5 48.5t-49.5 115.5z" />
<glyph unicode="&#xdd;" horiz-adv-x="1339" d="M31 1327v96h583v-96q-100 0 -100 -65q0 -28 18 -68l211 -451h11l207 453q18 44 18 72q0 59 -107 59v96h437v-96q-63 -8 -95 -33.5t-71 -105.5l-309 -641v-307q0 -87 32 -116.5t125 -29.5v-94h-637v94q94 0 127 29.5t33 116.5v303l-328 651q-37 75 -67.5 100t-87.5 33z M438 1567l420 336l133 -267l-506 -147z" />
<glyph unicode="&#xde;" horiz-adv-x="1239" d="M59 0v94q82 0 111 29.5t29 116.5v938q0 87 -28.5 116t-111.5 31v98h603v-98q-142 -3 -142 -147v-41h197q251 0 378.5 -92t127.5 -308q0 -409 -506 -409h-197v-86q0 -88 35 -118t139 -30v-94h-635zM520 479h137q124 0 174 54.5t50 199.5t-53 202.5t-187 57.5h-121v-514z " />
<glyph unicode="&#xdf;" horiz-adv-x="1304" d="M57 0v92q77 2 101 29.5t24 114.5v651h-125v104l125 51v60q0 139 65.5 234.5t173 138.5t249.5 43q214 0 330 -78.5t116 -216.5q0 -109 -58 -180.5t-175 -135.5q-35 -18 -48.5 -30t-13.5 -29q0 -29 49 -49q80 -38 133.5 -68t106.5 -71.5t83 -86t48.5 -105t18.5 -134.5 q0 -162 -108.5 -260.5t-291.5 -98.5q-177 0 -291 88l43 107q83 -55 181 -55q76 0 116.5 54t40.5 144q0 115 -49.5 197t-155.5 170q-11 9 -32.5 26t-30 23.5t-23 19.5t-20 21t-13 19.5t-10 22.5t-2.5 24q0 34 23.5 59.5t91.5 75.5q59 46 86 96t27 125q0 95 -40.5 141.5 t-127.5 46.5q-90 0 -138.5 -68t-48.5 -206v-1106h-430z" />
<glyph unicode="&#xe0;" horiz-adv-x="1105" d="M51 274q0 177 128 259.5t376 82.5q44 0 98 -4v95q0 120 -33 172.5t-114 52.5q-82 0 -117 -47.5t-47 -139.5h-225v209q87 50 205 82.5t235 32.5q187 0 294 -85t107 -259q0 -15 -4 -162t-4 -256q0 -114 24 -146.5t107 -35.5v-88q-78 -49 -209 -49q-92 0 -145 38t-65 105 q-29 -65 -101.5 -112.5t-183.5 -47.5q-145 0 -235.5 76t-90.5 227zM229 1339l160 256l385 -381l-53 -71zM365 313q0 -84 30 -118.5t92 -34.5q40 0 84.5 21.5t71.5 56.5l6 260h-71q-213 0 -213 -185z" />
<glyph unicode="&#xe1;" horiz-adv-x="1105" d="M51 274q0 177 128 259.5t376 82.5q44 0 98 -4v95q0 120 -33 172.5t-114 52.5q-82 0 -117 -47.5t-47 -139.5h-225v209q87 50 205 82.5t235 32.5q187 0 294 -85t107 -259q0 -15 -4 -162t-4 -256q0 -114 24 -146.5t107 -35.5v-88q-78 -49 -209 -49q-92 0 -145 38t-65 105 q-29 -65 -101.5 -112.5t-183.5 -47.5q-145 0 -235.5 76t-90.5 227zM274 1214l385 381l160 -256l-491 -196zM365 313q0 -84 30 -118.5t92 -34.5q40 0 84.5 21.5t71.5 56.5l6 260h-71q-213 0 -213 -185z" />
<glyph unicode="&#xe2;" horiz-adv-x="1105" d="M51 274q0 177 128 259.5t376 82.5q44 0 98 -4v95q0 120 -33 172.5t-114 52.5q-82 0 -117 -47.5t-47 -139.5h-225v209q87 50 205 82.5t235 32.5q187 0 294 -85t107 -259q0 -15 -4 -162t-4 -256q0 -114 24 -146.5t107 -35.5v-88q-78 -49 -209 -49q-92 0 -145 38t-65 105 q-29 -65 -101.5 -112.5t-183.5 -47.5q-145 0 -235.5 76t-90.5 227zM186 1214l361 357l360 -357l-51 -75l-309 159l-309 -159zM365 313q0 -84 30 -118.5t92 -34.5q40 0 84.5 21.5t71.5 56.5l6 260h-71q-213 0 -213 -185z" />
<glyph unicode="&#xe3;" horiz-adv-x="1105" d="M51 274q0 177 128 259.5t376 82.5q44 0 98 -4v95q0 120 -33 172.5t-114 52.5q-82 0 -117 -47.5t-47 -139.5h-225v209q87 50 205 82.5t235 32.5q187 0 294 -85t107 -259q0 -15 -4 -162t-4 -256q0 -114 24 -146.5t107 -35.5v-88q-78 -49 -209 -49q-92 0 -145 38t-65 105 q-29 -65 -101.5 -112.5t-183.5 -47.5q-145 0 -235.5 76t-90.5 227zM168 1196q18 116 79 197.5t146 81.5q60 0 144.5 -35t130.5 -35q101 0 147 92l78 -33q-30 -116 -91 -191t-143 -75q-62 0 -149.5 32t-126.5 32q-47 0 -81 -23.5t-62 -75.5zM365 313q0 -84 30 -118.5 t92 -34.5q40 0 84.5 21.5t71.5 56.5l6 260h-71q-213 0 -213 -185z" />
<glyph unicode="&#xe4;" horiz-adv-x="1105" d="M51 274q0 177 128 259.5t376 82.5q44 0 98 -4v95q0 120 -33 172.5t-114 52.5q-82 0 -117 -47.5t-47 -139.5h-225v209q87 50 205 82.5t235 32.5q187 0 294 -85t107 -259q0 -15 -4 -162t-4 -256q0 -114 24 -146.5t107 -35.5v-88q-78 -49 -209 -49q-92 0 -145 38t-65 105 q-29 -65 -101.5 -112.5t-183.5 -47.5q-145 0 -235.5 76t-90.5 227zM143 1323q0 70 49.5 118t120.5 48t118.5 -47.5t47.5 -118.5q0 -68 -49 -116t-119 -48q-69 0 -118.5 48.5t-49.5 115.5zM365 313q0 -84 30 -118.5t92 -34.5q40 0 84.5 21.5t71.5 56.5l6 260h-71 q-213 0 -213 -185zM600 1323q0 70 49.5 118t120.5 48q70 0 118 -47.5t48 -118.5q0 -68 -49 -116t-119 -48q-69 0 -118.5 48.5t-49.5 115.5z" />
<glyph unicode="&#xe5;" horiz-adv-x="1105" d="M51 274q0 177 128 259.5t376 82.5q44 0 98 -4v95q0 120 -33 172.5t-114 52.5q-82 0 -117 -47.5t-47 -139.5h-225v209q87 50 205 82.5t235 32.5q187 0 294 -85t107 -259q0 -15 -4 -162t-4 -256q0 -114 24 -146.5t107 -35.5v-88q-78 -49 -209 -49q-92 0 -145 38t-65 105 q-29 -65 -101.5 -112.5t-183.5 -47.5q-145 0 -235.5 76t-90.5 227zM291 1389q0 103 67 170t172 67q107 0 174.5 -67t67.5 -170q0 -102 -68 -170t-174 -68q-105 0 -172 68t-67 170zM365 313q0 -84 30 -118.5t92 -34.5q40 0 84.5 21.5t71.5 56.5l6 260h-71q-213 0 -213 -185z M418 1389q0 -52 30.5 -86.5t81.5 -34.5q53 0 85 34.5t32 86.5q0 55 -32 91t-85 36q-51 0 -81.5 -36t-30.5 -91z" />
<glyph unicode="&#xe6;" horiz-adv-x="1662" d="M51 274q0 177 127.5 258.5t376.5 81.5h100v97q0 116 -35 168.5t-114 52.5q-82 0 -117 -47.5t-47 -139.5h-225v209q86 50 202 82.5t224 32.5q103 0 183 -27t124 -77q129 104 301 104q448 0 448 -504v-82h-620q5 -175 70 -253t211 -78q142 0 272 71l51 -84 q-170 -164 -428 -164q-268 0 -397 166q-47 -70 -141.5 -118t-231.5 -48q-151 0 -242.5 74t-91.5 225zM365 313q0 -147 143 -147q113 0 192 76q-44 103 -47 241h-59q-119 0 -174 -39t-55 -131zM981 616h317q0 184 -33 255t-116 71q-79 0 -118.5 -72t-49.5 -254z" />
<glyph unicode="&#xe7;" horiz-adv-x="1005" d="M72 504q0 135 42 243t114.5 177.5t167 106t202.5 36.5q210 0 336 -82v-225h-227q-6 101 -27.5 140.5t-81.5 39.5q-40 0 -74.5 -17.5t-66.5 -58.5t-51 -121t-19 -192q0 -216 75 -311t202 -95q68 0 120.5 17t120.5 57l56 -78q-141 -166 -392 -166l-16 -59 q98 -6 147.5 -47.5t49.5 -112.5q0 -91 -60 -132.5t-182 -41.5q-127 0 -201 51l33 80q57 -37 137 -37q36 0 54 13t18 45q0 62 -119 65v43l41 142q-179 29 -289 162t-110 358z" />
<glyph unicode="&#xe8;" horiz-adv-x="1083" d="M72 524q0 256 135.5 400.5t361.5 144.5q453 0 453 -504v-88h-623q5 -174 70 -249.5t211 -75.5q142 0 272 71l52 -84q-167 -164 -429 -164q-238 0 -370.5 144t-132.5 405zM270 1339l160 256l385 -381l-53 -71zM401 616h318q0 184 -33.5 255t-116.5 71q-79 0 -118.5 -72 t-49.5 -254z" />
<glyph unicode="&#xe9;" horiz-adv-x="1083" d="M72 524q0 256 135.5 400.5t361.5 144.5q453 0 453 -504v-88h-623q5 -174 70 -249.5t211 -75.5q142 0 272 71l52 -84q-167 -164 -429 -164q-238 0 -370.5 144t-132.5 405zM301 1214l385 381l160 -256l-492 -196zM401 616h318q0 184 -33.5 255t-116.5 71q-79 0 -118.5 -72 t-49.5 -254z" />
<glyph unicode="&#xea;" horiz-adv-x="1083" d="M72 524q0 256 135.5 400.5t361.5 144.5q453 0 453 -504v-88h-623q5 -174 70 -249.5t211 -75.5q142 0 272 71l52 -84q-167 -164 -429 -164q-238 0 -370.5 144t-132.5 405zM207 1214l360 357l361 -357l-51 -75l-310 159l-309 -159zM401 616h318q0 184 -33.5 255t-116.5 71 q-79 0 -118.5 -72t-49.5 -254z" />
<glyph unicode="&#xeb;" horiz-adv-x="1083" d="M72 524q0 256 135.5 400.5t361.5 144.5q453 0 453 -504v-88h-623q5 -174 70 -249.5t211 -75.5q142 0 272 71l52 -84q-167 -164 -429 -164q-238 0 -370.5 144t-132.5 405zM164 1323q0 70 49.5 118t120.5 48q70 0 118 -47.5t48 -118.5q0 -68 -49 -116t-119 -48 q-69 0 -118.5 48.5t-49.5 115.5zM401 616h318q0 184 -33.5 255t-116.5 71q-79 0 -118.5 -72t-49.5 -254zM621 1323q0 70 49.5 118t120.5 48q70 0 117.5 -47.5t47.5 -118.5q0 -68 -49 -116t-119 -48q-69 0 -118 48t-49 116z" />
<glyph unicode="&#xec;" horiz-adv-x="645" d="M14 1339l160 256l385 -381l-53 -71zM53 0v92q77 2 101 29.5t24 114.5v487q0 77 -10.5 112t-34.5 47.5t-78 14.5v90l383 72h45v-823q0 -88 23 -115.5t100 -28.5v-92h-553z" />
<glyph unicode="&#xed;" horiz-adv-x="645" d="M53 0v92q77 2 101 29.5t24 114.5v487q0 77 -10.5 112t-34.5 47.5t-78 14.5v90l383 72h45v-823q0 -88 23 -115.5t100 -28.5v-92h-553zM57 1214l385 381l160 -256l-491 -196z" />
<glyph unicode="&#xee;" horiz-adv-x="645" d="M-31 1214l361 357l360 -357l-51 -75l-309 159l-310 -159zM53 0v92q77 2 101 29.5t24 114.5v487q0 77 -10.5 112t-34.5 47.5t-78 14.5v90l383 72h45v-823q0 -88 23 -115.5t100 -28.5v-92h-553z" />
<glyph unicode="&#xef;" horiz-adv-x="645" d="M-66 1323q0 70 49.5 118t120.5 48q70 0 118 -47.5t48 -118.5q0 -68 -49 -116t-119 -48q-69 0 -118.5 48.5t-49.5 115.5zM53 0v92q77 2 101 29.5t24 114.5v487q0 77 -10.5 112t-34.5 47.5t-78 14.5v90l383 72h45v-823q0 -88 23 -115.5t100 -28.5v-92h-553zM391 1323 q0 70 49.5 118t120.5 48t118.5 -47.5t47.5 -118.5q0 -68 -49 -116t-119 -48q-69 0 -118.5 48.5t-49.5 115.5z" />
<glyph unicode="&#xf0;" horiz-adv-x="1169" d="M72 516q0 126 38 227.5t104 167.5t153 101t186 35t172 -39q-51 110 -154 200l-338 -121l-40 99l276 98q-114 71 -283 119l45 90q282 -50 433 -133l270 98l41 -98l-197 -72q158 -118 238 -294t80 -425q0 -147 -39.5 -262t-109 -187t-161.5 -109.5t-200 -37.5 q-112 0 -204.5 33t-162 98t-108.5 170.5t-39 241.5zM395 518q0 -224 45.5 -322t149.5 -98q62 0 103 43.5t64 147.5t23 270q0 183 -35 315q-57 44 -139 44q-105 0 -158 -103.5t-53 -296.5z" />
<glyph unicode="&#xf1;" horiz-adv-x="1280" d="M53 0v92q77 2 101 29.5t24 114.5v487q0 77 -10.5 112t-34.5 47.5t-78 14.5v90l330 82h31q23 -39 39.5 -91.5t19.5 -92.5q75 85 160 133.5t196 48.5q133 0 215 -78.5t82 -230.5v-522q0 -88 23 -115.5t98 -28.5v-92h-549v92q77 1 100 28t23 111v455q0 89 -34 127.5 t-101 38.5q-109 0 -205 -78v-543q0 -84 23 -111t100 -28v-92h-553zM289 1196q18 116 79 197.5t146 81.5q60 0 144 -35t130 -35q102 0 148 92l78 -33q-30 -116 -91 -191t-143 -75q-62 0 -149.5 32t-126.5 32q-92 0 -144 -99z" />
<glyph unicode="&#xf2;" horiz-adv-x="1183" d="M72 518q0 250 143 400.5t385 150.5q233 0 372.5 -136t139.5 -396q0 -142 -41.5 -251.5t-115 -177t-167 -101.5t-202.5 -34q-242 0 -378 143.5t-136 401.5zM274 1339l160 256l385 -381l-53 -71zM406 514q0 -223 40.5 -318.5t149.5 -95.5q94 0 139 106t45 339 q0 215 -46 304t-142 89q-67 0 -106.5 -38.5t-59.5 -131.5t-20 -254z" />
<glyph unicode="&#xf3;" horiz-adv-x="1183" d="M72 518q0 250 143 400.5t385 150.5q233 0 372.5 -136t139.5 -396q0 -142 -41.5 -251.5t-115 -177t-167 -101.5t-202.5 -34q-242 0 -378 143.5t-136 401.5zM319 1214l386 381l159 -256l-491 -196zM406 514q0 -223 40.5 -318.5t149.5 -95.5q94 0 139 106t45 339 q0 215 -46 304t-142 89q-67 0 -106.5 -38.5t-59.5 -131.5t-20 -254z" />
<glyph unicode="&#xf4;" horiz-adv-x="1183" d="M72 518q0 250 143 400.5t385 150.5q233 0 372.5 -136t139.5 -396q0 -142 -41.5 -251.5t-115 -177t-167 -101.5t-202.5 -34q-242 0 -378 143.5t-136 401.5zM229 1214l361 357l360 -357l-51 -75l-309 159l-309 -159zM406 514q0 -223 40.5 -318.5t149.5 -95.5q94 0 139 106 t45 339q0 215 -46 304t-142 89q-67 0 -106.5 -38.5t-59.5 -131.5t-20 -254z" />
<glyph unicode="&#xf5;" horiz-adv-x="1183" d="M72 518q0 250 143 400.5t385 150.5q233 0 372.5 -136t139.5 -396q0 -142 -41.5 -251.5t-115 -177t-167 -101.5t-202.5 -34q-242 0 -378 143.5t-136 401.5zM231 1196q18 116 79.5 197.5t146.5 81.5q60 0 144 -35t130 -35q102 0 148 92l77 -33q-30 -116 -90.5 -191 t-142.5 -75q-62 0 -150 32t-127 32q-47 0 -81 -23.5t-62 -75.5zM406 514q0 -223 40.5 -318.5t149.5 -95.5q94 0 139 106t45 339q0 215 -46 304t-142 89q-67 0 -106.5 -38.5t-59.5 -131.5t-20 -254z" />
<glyph unicode="&#xf6;" horiz-adv-x="1183" d="M72 518q0 250 143 400.5t385 150.5q233 0 372.5 -136t139.5 -396q0 -142 -41.5 -251.5t-115 -177t-167 -101.5t-202.5 -34q-242 0 -378 143.5t-136 401.5zM195 1323q0 70 49.5 118t120.5 48q70 0 117.5 -47.5t47.5 -118.5q0 -68 -49 -116t-119 -48q-69 0 -118 48t-49 116 zM406 514q0 -223 40.5 -318.5t149.5 -95.5q94 0 139 106t45 339q0 215 -46 304t-142 89q-67 0 -106.5 -38.5t-59.5 -131.5t-20 -254zM651 1323q0 70 49.5 118t120.5 48t118.5 -47.5t47.5 -118.5q0 -68 -49 -116t-119 -48q-69 0 -118.5 48.5t-49.5 115.5z" />
<glyph unicode="&#xf7;" horiz-adv-x="1261" d="M113 483v144h1036v-144h-1036zM485 127q0 62 43.5 105.5t104.5 43.5q59 0 102 -42.5t43 -102.5q0 -64 -43 -107.5t-102 -43.5q-62 0 -105 42t-43 105zM485 967q0 60 43.5 104.5t104.5 44.5q59 0 102 -43t43 -102q0 -65 -43 -109.5t-102 -44.5q-62 0 -105 43t-43 107z" />
<glyph unicode="&#xf8;" horiz-adv-x="1183" d="M72 518q0 250 143 400.5t385 150.5q139 0 246 -49l88 139l90 -53l-88 -141q176 -136 176 -428q0 -142 -41.5 -251.5t-115 -177t-167 -101.5t-202.5 -34q-136 0 -242 47l-94 -149l-88 53l94 150q-184 142 -184 444zM391 514q0 -120 12 -205l338 541q-49 88 -149 88 q-69 0 -112 -38t-66 -132.5t-23 -253.5zM444 182q49 -82 152 -82q98 0 147.5 107t49.5 338q0 94 -13 174z" />
<glyph unicode="&#xf9;" horiz-adv-x="1243" d="M35 897v90l377 72h49v-723q0 -85 31 -125.5t100 -40.5q93 0 184 76v477q0 58 -4.5 90t-20 51.5t-36.5 25t-62 7.5v90l377 72h49v-754q0 -76 11 -111t35.5 -47t80.5 -16v-84l-327 -74h-31q-48 74 -55 166q-136 -166 -344 -166q-137 0 -215 72t-78 219v459q0 110 -22 140.5 t-99 33.5zM303 1339l160 256l385 -381l-53 -71z" />
<glyph unicode="&#xfa;" horiz-adv-x="1243" d="M35 897v90l377 72h49v-723q0 -85 31 -125.5t100 -40.5q93 0 184 76v477q0 58 -4.5 90t-20 51.5t-36.5 25t-62 7.5v90l377 72h49v-754q0 -76 11 -111t35.5 -47t80.5 -16v-84l-327 -74h-31q-48 74 -55 166q-136 -166 -344 -166q-137 0 -215 72t-78 219v459q0 110 -22 140.5 t-99 33.5zM346 1214l385 381l160 -256l-492 -196z" />
<glyph unicode="&#xfb;" horiz-adv-x="1243" d="M35 897v90l377 72h49v-723q0 -85 31 -125.5t100 -40.5q93 0 184 76v477q0 58 -4.5 90t-20 51.5t-36.5 25t-62 7.5v90l377 72h49v-754q0 -76 11 -111t35.5 -47t80.5 -16v-84l-327 -74h-31q-48 74 -55 166q-136 -166 -344 -166q-137 0 -215 72t-78 219v459q0 110 -22 140.5 t-99 33.5zM258 1214l360 357l361 -357l-51 -75l-310 159l-309 -159z" />
<glyph unicode="&#xfc;" horiz-adv-x="1243" d="M35 897v90l377 72h49v-723q0 -85 31 -125.5t100 -40.5q93 0 184 76v477q0 58 -4.5 90t-20 51.5t-36.5 25t-62 7.5v90l377 72h49v-754q0 -76 11 -111t35.5 -47t80.5 -16v-84l-327 -74h-31q-48 74 -55 166q-136 -166 -344 -166q-137 0 -215 72t-78 219v459q0 110 -22 140.5 t-99 33.5zM223 1323q0 70 49.5 118t120.5 48t118.5 -47.5t47.5 -118.5q0 -68 -49 -116t-119 -48q-69 0 -118.5 48.5t-49.5 115.5zM680 1323q0 70 49.5 118t120.5 48q70 0 118 -47.5t48 -118.5q0 -68 -49 -116t-119 -48q-69 0 -118.5 48.5t-49.5 115.5z" />
<glyph unicode="&#xfd;" horiz-adv-x="1130" d="M0 948v94h555v-94q-68 -3 -95.5 -16t-27.5 -37q0 -19 12 -51l142 -436q32 -97 41 -177h10q15 77 43 166l139 447q10 33 10 49q0 30 -27.5 41t-99.5 14v94h428v-94q-62 -8 -89 -31t-54 -96l-299 -815q-69 -192 -173.5 -298.5t-278.5 -131.5l-105 191q76 14 128.5 29.5 t107.5 43t94.5 71t66.5 105.5l-116 -10q-39 152 -121 377l-156 428q-28 76 -52.5 103t-82.5 34zM344 1214l385 381l160 -256l-492 -196z" />
<glyph unicode="&#xfe;" horiz-adv-x="1226" d="M12 1358v90l369 55h31q37 -68 37 -203v-403q103 170 299 170q188 0 296.5 -134.5t108.5 -402.5q0 -277 -127 -415t-346 -138q-149 0 -231 95v-238q0 -87 24.5 -114.5t106.5 -28.5v-92h-560v92q77 2 101 29t24 114v1350q0 76 -12.5 112t-38.5 48t-82 14zM449 213 q67 -78 174 -78q50 0 86.5 16.5t65 56t42.5 111t14 175.5q0 141 -23 224t-63.5 114.5t-105.5 31.5q-111 0 -190 -82v-569z" />
<glyph unicode="&#xff;" horiz-adv-x="1130" d="M0 948v94h555v-94q-68 -3 -95.5 -16t-27.5 -37q0 -19 12 -51l142 -436q32 -97 41 -177h10q15 77 43 166l139 447q10 33 10 49q0 30 -27.5 41t-99.5 14v94h428v-94q-62 -8 -89 -31t-54 -96l-299 -815q-69 -192 -173.5 -298.5t-278.5 -131.5l-105 191q76 14 128.5 29.5 t107.5 43t94.5 71t66.5 105.5l-116 -10q-39 152 -121 377l-156 428q-28 76 -52.5 103t-82.5 34zM219 1323q0 70 49.5 118t120.5 48t118.5 -47.5t47.5 -118.5q0 -68 -49 -116t-119 -48q-69 0 -118.5 48.5t-49.5 115.5zM676 1323q0 70 49.5 118t120.5 48q70 0 118 -47.5 t48 -118.5q0 -68 -49 -116t-119 -48q-69 0 -118.5 48.5t-49.5 115.5z" />
<glyph unicode="&#x152;" horiz-adv-x="1992" d="M84 705q0 151 37.5 272.5t104 203.5t161 137t204.5 80t238 25h1047l25 -346h-152q-19 65 -32.5 98t-37 59.5t-56.5 35t-87 8.5h-223v-487h125q96 0 130 29t40 116h135v-428h-135q-6 84 -40 114.5t-128 30.5h-127v-516h254q103 0 146.5 49t55.5 189h156v-375h-1089 q-351 0 -551.5 183.5t-200.5 521.5zM430 690q0 -135 21 -233.5t56.5 -159.5t91.5 -97.5t117.5 -49.5t143.5 -13h123v1143h-131q-78 0 -139.5 -16t-116 -56.5t-90 -106t-56 -169.5t-20.5 -242z" />
<glyph unicode="&#x153;" horiz-adv-x="1794" d="M72 518q0 250 143 400.5t385 150.5q105 0 199 -38.5t151 -104.5q55 68 142 105.5t188 37.5q453 0 453 -504v-88h-623q5 -174 70.5 -249.5t212.5 -75.5q139 0 272 71l49 -84q-167 -164 -428 -164q-110 0 -204 39t-144 105q-61 -70 -154.5 -108t-197.5 -38 q-242 0 -378 143.5t-136 401.5zM406 514q0 -223 40.5 -318.5t149.5 -95.5q94 0 139 106t45 339q0 215 -46 304t-142 89q-67 0 -106.5 -38.5t-59.5 -131.5t-20 -254zM1112 616h318q0 184 -33 255t-115 71q-81 0 -120.5 -72t-49.5 -254z" />
<glyph unicode="&#x178;" horiz-adv-x="1339" d="M31 1327v96h583v-96q-100 0 -100 -65q0 -28 18 -68l211 -451h11l207 453q18 44 18 72q0 59 -107 59v96h437v-96q-63 -8 -95 -33.5t-71 -105.5l-309 -641v-307q0 -87 32 -116.5t125 -29.5v-94h-637v94q94 0 127 29.5t33 116.5v303l-328 651q-37 75 -67.5 100t-87.5 33z M309 1673q0 69 49.5 117.5t120.5 48.5q70 0 118 -48.5t48 -117.5q0 -68 -49 -116t-119 -48q-69 0 -118.5 48.5t-49.5 115.5zM766 1673q0 69 49.5 117.5t120.5 48.5q70 0 118 -48.5t48 -117.5q0 -68 -49 -116t-119 -48q-69 0 -118.5 48.5t-49.5 115.5z" />
<glyph unicode="&#x2c6;" horiz-adv-x="1048" d="M164 1214l360 357l361 -357l-51 -75l-310 159l-309 -159z" />
<glyph unicode="&#x2dc;" horiz-adv-x="1052" d="M164 1196q18 116 79 197.5t146 81.5q60 0 144.5 -35t130.5 -35q101 0 147 92l78 -33q-30 -116 -91 -191t-143 -75q-62 0 -149.5 32t-126.5 32q-47 0 -81 -23.5t-62 -75.5z" />
<glyph unicode="&#x2000;" horiz-adv-x="984" />
<glyph unicode="&#x2001;" horiz-adv-x="1968" />
<glyph unicode="&#x2002;" horiz-adv-x="984" />
<glyph unicode="&#x2003;" horiz-adv-x="1968" />
<glyph unicode="&#x2004;" horiz-adv-x="656" />
<glyph unicode="&#x2005;" horiz-adv-x="492" />
<glyph unicode="&#x2006;" horiz-adv-x="328" />
<glyph unicode="&#x2007;" horiz-adv-x="328" />
<glyph unicode="&#x2008;" horiz-adv-x="246" />
<glyph unicode="&#x2009;" horiz-adv-x="393" />
<glyph unicode="&#x200a;" horiz-adv-x="109" />
<glyph unicode="&#x2010;" horiz-adv-x="712" d="M98 455v235h516v-235h-516z" />
<glyph unicode="&#x2011;" horiz-adv-x="712" d="M98 455v235h516v-235h-516z" />
<glyph unicode="&#x2012;" horiz-adv-x="712" d="M98 455v235h516v-235h-516z" />
<glyph unicode="&#x2013;" horiz-adv-x="1191" d="M98 477v195h996v-195h-996z" />
<glyph unicode="&#x2014;" horiz-adv-x="1652" d="M98 477v195h1456v-195h-1456z" />
<glyph unicode="&#x2018;" horiz-adv-x="577" d="M100 1063q0 154 92 255.5t269 137.5l61 -82q-209 -61 -209 -160q0 -33 16.5 -48.5t59.5 -32.5q98 -42 98 -142q0 -70 -51 -119t-129 -49q-91 0 -149 68t-58 172z" />
<glyph unicode="&#x2019;" horiz-adv-x="577" d="M53 903q209 61 209 160q0 33 -16 49.5t-58 32.5q-100 43 -100 141q0 70 52 119t130 49q89 0 148 -68t59 -172q0 -154 -91.5 -255.5t-268.5 -137.5z" />
<glyph unicode="&#x201a;" horiz-adv-x="577" d="M53 -225q107 33 158 71t51 88q0 33 -16 49t-58 35q-100 43 -100 142q0 70 52 119t130 49q89 0 148 -68.5t59 -171.5q0 -155 -91.5 -255.5t-268.5 -137.5z" />
<glyph unicode="&#x201c;" horiz-adv-x="1036" d="M100 1063q0 154 92 255.5t269 137.5l61 -82q-209 -61 -209 -160q0 -33 16.5 -48.5t59.5 -32.5q98 -42 98 -142q0 -70 -51 -119t-129 -49q-91 0 -149 68t-58 172zM559 1063q0 154 92 255.5t269 137.5l61 -82q-209 -62 -209 -160q0 -33 16.5 -48.5t59.5 -32.5 q100 -43 100 -142q0 -70 -52 -119t-130 -49q-91 0 -149 68t-58 172z" />
<glyph unicode="&#x201d;" horiz-adv-x="1036" d="M53 903q209 61 209 160q0 33 -16 49.5t-58 32.5q-100 43 -100 141q0 70 52 119t130 49q89 0 148 -68t59 -172q0 -154 -91.5 -255.5t-268.5 -137.5zM514 903q209 62 209 160q0 33 -17 49t-59 33q-100 43 -100 141q0 70 52 119t130 49q91 0 149 -68t58 -172 q0 -154 -92 -255.5t-269 -137.5z" />
<glyph unicode="&#x201e;" horiz-adv-x="1036" d="M53 -225q107 33 158 71t51 88q0 33 -16 49t-58 35q-100 43 -100 142q0 70 52 119t130 49q89 0 148 -68.5t59 -171.5q0 -155 -91.5 -255.5t-268.5 -137.5zM514 -225q107 33 158 71t51 88q0 33 -16.5 49t-59.5 35q-100 43 -100 142q0 70 52 119t130 49q90 0 148.5 -68.5 t58.5 -171.5q0 -155 -92 -255.5t-269 -137.5z" />
<glyph unicode="&#x2022;" horiz-adv-x="1058" d="M174 686q0 151 103 257t251 106t252.5 -106t104.5 -257t-104.5 -256.5t-252.5 -105.5t-251 105.5t-103 256.5z" />
<glyph unicode="&#x2026;" horiz-adv-x="1740" d="M111 168q0 78 55.5 134t132.5 56q79 0 136 -56t57 -134q0 -81 -56.5 -138t-134.5 -57t-134 57t-56 138zM680 168q0 78 55 134t133 56q79 0 136 -56t57 -134q0 -81 -56.5 -138t-134.5 -57q-80 0 -135 56.5t-55 138.5zM1249 168q0 78 55.5 134t133.5 56t135 -56t57 -134 q0 -81 -56.5 -138t-135.5 -57q-78 0 -133.5 57t-55.5 138z" />
<glyph unicode="&#x202f;" horiz-adv-x="393" />
<glyph unicode="&#x2039;" horiz-adv-x="755" d="M92 514l428 467l109 -92l-232 -381l232 -367l-109 -94z" />
<glyph unicode="&#x203a;" horiz-adv-x="755" d="M129 141l231 367l-231 381l107 92l430 -467l-430 -467z" />
<glyph unicode="&#x205f;" horiz-adv-x="492" />
<glyph unicode="&#x20ac;" horiz-adv-x="1363" d="M41 510v115h154v67q0 49 2 74h-156v115h166q42 283 206.5 425t422.5 142q271 0 426 -102v-275h-220q-27 129 -67.5 182.5t-138.5 53.5q-128 0 -197 -96t-86 -330h483v-115h-489v-141h489v-115h-483q10 -119 34.5 -199t63 -121.5t82.5 -58t103 -16.5t98 13.5t64.5 45.5 t39.5 74.5t25 109.5h209v-270q-65 -48 -187 -80.5t-266 -32.5q-260 0 -416 138t-194 397h-168z" />
<glyph unicode="&#x2122;" horiz-adv-x="2326" d="M102 1112v311h789l16 -311h-90q-25 132 -58 173.5t-118 41.5h-16v-487q0 -35 1 -52.5t5.5 -38.5t13 -30t24.5 -18t39 -12.5t58 -4.5v-74h-516v74q35 1 58 4.5t39 12.5t24.5 18t13 30t5.5 38.5t1 52.5v487h-26q-52 0 -82 -9t-48.5 -37t-25.5 -63.5t-14 -105.5h-93z M983 610v68q67 3 94 31.5t33 119.5l29 402q5 69 -16 94t-93 29v69h400l135 -411q34 -98 34 -185h11q4 66 39 181l129 415h372v-71q-57 -3 -76.5 -19.5t-19.5 -54.5q0 -13 4 -49l31 -395q7 -92 32 -123.5t89 -34.5v-66h-449v66q60 3 81.5 22.5t21.5 79.5q0 33 -2 53l-21 259 q-2 35 -2 98q0 60 2 80h-10q-19 -92 -49 -181l-156 -477h-162l-155 477q-15 50 -47 181h-13q0 -97 -6 -183l-16 -254q0 -3 -1 -18t-1 -22q0 -66 24 -88t92 -25v-68h-358z" />
<glyph unicode="&#x25fc;" horiz-adv-x="1044" d="M0 0v1044h1044v-1044h-1044z" />
<glyph unicode="&#xfb01;" horiz-adv-x="1300" d="M57 0v92q77 2 101 29.5t24 114.5v651h-125v104l125 51v107q0 185 120 277t339 92q222 0 344 -64v-221h-240q-3 75 -30.5 111t-87.5 36q-73 0 -107.5 -46.5t-34.5 -153.5v-138h490l117 21h45v-827q0 -88 23 -115.5t102 -28.5v-92h-551v92q75 2 99 29.5t24 114.5v477 q0 107 -22 140.5t-91 33.5h-234v-651q0 -87 23 -115t98 -29v-92h-551z" />
<glyph unicode="&#xfb02;" horiz-adv-x="1306" d="M57 0v92q77 2 101 29.5t24 114.5v651h-125v104l125 51v76q0 103 35 181t98 125.5t146 70.5t184 23q182 0 295 -74l57 59h144v-1265q0 -89 24 -117t105 -29v-92h-559v92q78 2 102.5 29t24.5 115v954q0 190 -176 190q-86 0 -131.5 -54.5t-45.5 -186.5v-97h238l-33 -155 h-203v-651q0 -87 23 -115t98 -29v-92h-551z" />
</font>
</defs>
</svg>
