<?xml version="1.0" standalone="no"?>
<!DOCTYPE svg PUBLIC "-//W3C//DTD SVG 1.1//EN" "http://www.w3.org/Graphics/SVG/1.1/DTD/svg11.dtd" >
<svg xmlns="http://www.w3.org/2000/svg">
<metadata></metadata>
<defs>
<font id="theinhardtultralight" horiz-adv-x="1208" >
<font-face units-per-em="2048" ascent="1642" descent="-406" />
<missing-glyph horiz-adv-x="409" />
<glyph unicode="&#xfb01;" horiz-adv-x="1038" d="M43 932v43h223v217q0 67 10.5 102t34.5 62q52 61 162 61q64 0 125 -26v-50q-64 33 -129 33q-95 0 -135 -59q-23 -38 -23 -113v-227h287v-43h-287v-932h-45v932h-223zM829 0v975h45v-975h-45zM829 1159v236h45v-236h-45z" />
<glyph unicode="&#xfb02;" horiz-adv-x="1056" d="M43 932v43h223v217q0 67 10.5 102t34.5 62q52 61 162 61q64 0 125 -26v-50q-64 33 -129 33q-95 0 -135 -59q-23 -38 -23 -113v-227h287v-43h-287v-932h-45v932h-223zM829 0v1393h45v-1393h-45z" />
<glyph horiz-adv-x="2048" />
<glyph horiz-adv-x="2048" />
<glyph unicode="&#xd;" horiz-adv-x="2048" />
<glyph unicode=" "  horiz-adv-x="409" />
<glyph unicode="&#x09;" horiz-adv-x="409" />
<glyph unicode="&#xa0;" horiz-adv-x="409" />
<glyph unicode="!" horiz-adv-x="401" d="M178 0v233h45v-233h-45zM178 690v703h45v-703l-6 -330h-33z" />
<glyph unicode="&#x22;" horiz-adv-x="548" d="M143 1065v328h45v-328l-8 -229h-28zM360 1065v328h46v-328l-9 -229h-28z" />
<glyph unicode="#" horiz-adv-x="1427" d="M92 442v41h346l66 410h-359v43h367l74 457h45l-74 -457h377l74 457h45l-74 -457h356v-43h-362l-66 -410h375v-41h-381l-72 -442h-45l70 442h-375l-71 -442h-46l70 442h-340zM485 483h375l66 410h-375z" />
<glyph unicode="$" horiz-adv-x="1138" d="M72 281l37 34q52 -110 166 -186.5t270 -87.5v670l-45 10q-66 14 -113 28t-100.5 40t-87 59t-55.5 84.5t-23 116.5q0 155 118 249t306 97v202h43v-204q128 -7 233 -61.5t166 -129.5l-26 -39q-151 175 -373 189v-607l102 -22q191 -43 282 -122.5t91 -225.5 q0 -166 -122 -271t-349 -106h-4v-197h-43v199q-172 10 -294 90.5t-179 190.5zM168 1055q0 -127 85.5 -191.5t258.5 -101.5l33 -8v600q-167 -2 -272 -83.5t-105 -215.5zM588 39h8q202 1 312 92.5t110 243.5q0 124 -85 196t-251 107l-94 22v-661z" />
<glyph unicode="%" horiz-adv-x="1859" d="M90 952q0 72 9 136t31.5 125.5t57.5 105.5t91.5 71t128.5 27q71 0 126.5 -27t90 -71t57 -105.5t31 -125.5t8.5 -136q0 -88 -17 -162.5t-53 -137t-99.5 -98.5t-148.5 -36q-69 0 -123 24t-89 64.5t-58.5 97t-33 117.5t-9.5 131zM135 969q0 -85 15 -156.5t46 -129t85 -90 t125 -32.5t124.5 32.5t84.5 90t46 129t15 156.5q0 83 -15 153.5t-46 128t-84.5 90.5t-124.5 33t-125 -33t-85 -90.5t-46 -128t-15 -153.5zM535 0l729 1393h47l-727 -1393h-49zM1139 408q0 72 8.5 135.5t31 125.5t57.5 105.5t91.5 70.5t128.5 27q71 0 126.5 -27t90 -70.5 t57 -105.5t31 -125.5t8.5 -135.5q0 -88 -17 -163t-52.5 -137.5t-99 -98.5t-148.5 -36t-148 36t-97.5 99t-51 137.5t-16.5 162.5zM1184 424q0 -85 15 -156.5t46 -129t84.5 -90t124.5 -32.5t124.5 32.5t84.5 90t46 129t15 156.5q0 83 -15 153.5t-46 128t-84.5 90.5t-124.5 33 t-124.5 -33t-84.5 -90.5t-46 -128t-15 -153.5z" />
<glyph unicode="&#x26;" horiz-adv-x="1212" d="M96 346q0 63 20.5 118t51.5 95t87 82t105.5 71t128.5 70l-75 90q-32 38 -45.5 56t-38.5 58t-36 80.5t-11 86.5q0 109 78.5 184.5t218.5 75.5t212 -76t72 -184q0 -111 -72 -205t-237 -180l391 -469q67 152 98 315l37 -39q-35 -168 -106 -309l223 -266h-57l-189 225 q-153 -250 -450 -250q-109 0 -199 39t-148.5 125t-58.5 207zM141 346q0 -157 107 -242.5t262 -85.5q128 0 237.5 59.5t174.5 180.5l-406 490l-22 -13q-152 -82 -207 -124q-136 -103 -145 -241q-1 -12 -1 -24zM328 1159q0 -42 9 -78t31.5 -72t36.5 -54t48 -58l79 -94 q139 73 213 154.5t74 191.5q0 109 -69.5 166t-169.5 57q-106 0 -179 -58t-73 -155z" />
<glyph unicode="'" horiz-adv-x="331" d="M143 1065v328h45v-328l-8 -229h-28z" />
<glyph unicode="(" horiz-adv-x="434" d="M113 537q0 445 209 860l43 -6q-207 -408 -207 -854q0 -462 215 -859l-45 -8q-215 405 -215 867z" />
<glyph unicode=")" horiz-adv-x="434" d="M61 -322q215 397 215 859q0 448 -206 854l43 6q209 -415 209 -860q0 -460 -216 -867z" />
<glyph unicode="*" horiz-adv-x="899" d="M100 1124l15 41l315 -106l-2 334h43l-2 -334l317 104l11 -39l-316 -100l197 -270l-35 -23l-192 270l-197 -272l-33 27l197 266z" />
<glyph unicode="+" horiz-adv-x="1363" d="M82 582v43h577v583h43v-583h580v-43h-580v-582h-43v582h-577z" />
<glyph unicode="," horiz-adv-x="327" d="M92 -272q26 26 37.5 72.5t11.5 129.5v303h45v-292q0 -108 -21.5 -170t-72.5 -97v54z" />
<glyph unicode="-" horiz-adv-x="849" d="M141 526v43h568v-43h-568z" />
<glyph unicode="." horiz-adv-x="327" d="M141 0v233h45v-233h-45z" />
<glyph unicode="/" horiz-adv-x="890" d="M53 0l733 1393h52l-734 -1393h-51z" />
<glyph unicode="0" d="M115 694q0 156 29.5 285.5t88 228.5t153.5 154t218 55q124 0 219.5 -55t153.5 -154t87.5 -228.5t29.5 -285.5q0 -119 -15 -221.5t-51.5 -195.5t-91.5 -159t-139.5 -104.5t-192.5 -38.5q-107 0 -191.5 38.5t-139.5 104.5t-91 159t-51.5 195.5t-15.5 221.5zM162 698 q0 -111 13 -206.5t45 -184.5t81 -151.5t126.5 -100t176.5 -37.5q100 0 178 37.5t127 100t81 151.5t44.5 184.5t12.5 206.5q0 194 -47.5 344t-149 241t-246.5 91q-144 0 -245.5 -91t-149 -241t-47.5 -344z" />
<glyph unicode="1" d="M332 1055v41h43q145 0 225 59q49 36 70 94t24 144h43v-1393h-45v1198q-75 -145 -309 -145q-45 0 -51 2z" />
<glyph unicode="2" d="M164 0v39q259 176 512 399q58 51 96 89t82.5 92.5t70.5 104t44 114.5t18 135q0 186 -112.5 293.5t-280.5 107.5q-93 0 -167 -30t-120 -81t-70 -116t-24 -139q0 -108 47 -205l-57 12q-37 90 -37 195q0 172 114.5 289.5t313.5 117.5q109 0 194.5 -35t138 -96t80 -139.5 t27.5 -169.5q0 -82 -25 -161t-60 -138.5t-96 -126.5t-108.5 -110t-121.5 -105q-99 -83 -230 -180t-166 -115v-2q94 4 199 4h621v-43h-883z" />
<glyph unicode="3" d="M145 319l45 37q5 -90 40.5 -157.5t92.5 -106t124.5 -56.5t144.5 -18q171 0 286 96.5t115 262.5q0 212 -180 295q-54 26 -129.5 36.5t-214.5 10.5h-76v41h58q124 0 193 9.5t126 33.5q85 33 136.5 99.5t51.5 164.5q0 134 -97.5 220.5t-266.5 86.5q-163 0 -265.5 -80.5 t-113.5 -199.5l-39 28q1 34 15.5 71.5t47 78t79 72.5t118.5 52.5t158 20.5q196 0 303 -96.5t107 -243.5q0 -138 -82.5 -225.5t-241.5 -108.5v-2q164 -11 262 -103t98 -265q0 -176 -124.5 -287t-325.5 -111q-193 0 -311.5 91t-133.5 253z" />
<glyph unicode="4" d="M90 395v29l662 969h34v-955h320v-43h-320v-395h-45v395h-651zM150 438h591v600q0 220 4 277h-2q-53 -104 -170 -268z" />
<glyph unicode="5" d="M164 272l41 41q27 -123 128.5 -209t260.5 -86q186 0 301 120.5t115 324.5q0 115 -45.5 207t-137.5 148t-215 56q-134 0 -234.5 -76t-137.5 -202l-35 10l43 787h717v-43h-674l-35 -627h2q15 31 44 62t73.5 62.5t111 51t142.5 19.5q187 0 306.5 -121t119.5 -334 q0 -140 -52 -249t-158 -174t-251 -65q-160 0 -272.5 79t-157.5 218z" />
<glyph unicode="6" d="M150 682q0 346 128 540.5t369 194.5q153 0 251.5 -73t135.5 -195l-39 -43q-11 47 -32.5 89.5t-60.5 85t-105.5 68t-151.5 25.5q-223 0 -336.5 -187.5t-113.5 -535.5q62 113 182 177.5t258 64.5q86 0 163 -27t139.5 -80t99 -140t36.5 -197q0 -96 -28.5 -181t-82.5 -151 t-138 -104t-189 -38q-485 0 -485 707zM201 586q14 -279 123.5 -423.5t310.5 -144.5q167 0 279 115t112 307q0 102 -33 182.5t-89 129t-125.5 73.5t-147.5 25q-135 0 -255 -70t-175 -194z" />
<glyph unicode="7" d="M172 991v402h928v-35q-235 -341 -355 -633q-154 -386 -178 -725h-49q19 347 193 752q127 300 331 598h-825v-359h-45z" />
<glyph unicode="8" d="M131 367q0 146 87.5 243.5t254.5 126.5q-147 26 -226 115.5t-79 222.5q0 162 116.5 252t319.5 90t319.5 -90t116.5 -252q0 -133 -79 -222.5t-226 -115.5q167 -29 254.5 -126.5t87.5 -243.5q0 -134 -62.5 -223.5t-166.5 -129t-244 -39.5t-244 39.5t-166.5 129t-62.5 223.5 zM178 367q0 -167 111 -258t315 -91t315 91t111 258q0 163 -118 256.5t-308 93.5t-308 -93.5t-118 -256.5zM215 1073q0 -148 109 -232.5t280 -84.5t280 84.5t109 232.5q0 142 -102 221.5t-287 79.5t-287 -79.5t-102 -221.5z" />
<glyph unicode="9" d="M135 944q0 130 48.5 235.5t150 171.5t239.5 66q486 0 486 -706q0 -346 -128.5 -541t-369.5 -195q-153 0 -251.5 73.5t-135.5 195.5l39 43q8 -37 22.5 -71t42.5 -71.5t65 -64.5t94 -44.5t126 -17.5q223 0 337 187.5t114 535.5q-62 -113 -182.5 -177t-258.5 -64 q-86 0 -163 27t-139.5 80t-99 140t-36.5 197zM182 952q0 -102 33 -182.5t89.5 -129t126 -73t147.5 -24.5q135 0 255 70t175 194q-14 279 -124 423t-311 144q-167 0 -279 -115t-112 -307z" />
<glyph unicode=":" horiz-adv-x="362" d="M160 0v233h45v-233h-45zM160 741v234h45v-234h-45z" />
<glyph unicode=";" horiz-adv-x="378" d="M123 -272q26 26 37.5 72.5t11.5 129.5v303h45v-292q0 -108 -21.5 -170t-72.5 -97v54zM172 741v234h45v-234h-45z" />
<glyph unicode="&#x3c;" horiz-adv-x="1624" d="M59 662v51l1471 692v-49l-1417 -668l1417 -672v-49z" />
<glyph unicode="=" horiz-adv-x="1808" d="M215 393v43h1378v-43h-1378zM215 752v43h1378v-43h-1378z" />
<glyph unicode="&#x3e;" horiz-adv-x="1624" d="M94 16l1417 672l-1417 668v49l1471 -692v-51l-1471 -695v49z" />
<glyph unicode="?" horiz-adv-x="913" d="M76 1055q0 158 102.5 260t276.5 102q176 0 279.5 -101.5t103.5 -254.5q0 -81 -25 -149.5t-62 -116t-98 -103.5l-53 -47q-59 -54 -83.5 -78.5t-46.5 -58.5t-27 -65t-5 -83v-38h-45v47q0 82 25 136.5t112 131.5l93 84q83 74 125.5 155t42.5 181q0 139 -91.5 228t-246.5 89 q-159 0 -244.5 -93t-85.5 -232q0 -68 27 -154l-52 14q-22 67 -22 146zM393 0v227h45v-227h-45z" />
<glyph unicode="@" horiz-adv-x="1673" d="M113 457q0 177 59.5 327t162.5 253t246 160.5t308 57.5q160 0 292.5 -58.5t216 -155t128.5 -215.5t45 -246q0 -121 -29 -222.5t-77.5 -167t-110 -101.5t-127.5 -36q-72 0 -103.5 37t-31.5 111q0 43 2 61h-2q-11 -41 -32.5 -77.5t-56.5 -69.5t-90.5 -52.5t-124.5 -19.5 q-128 0 -196 66.5t-68 177.5q0 106 63.5 158t194.5 77l248 47q34 7 48 18t14 42v26q0 110 -57 163.5t-189 53.5q-121 0 -185.5 -60t-64.5 -169l-43 25q-1 116 78.5 180.5t214.5 64.5q160 0 229 -69q31 -33 46.5 -80t15.5 -129v-397q0 -75 17.5 -109.5t74.5 -34.5 q122 0 208.5 137t86.5 347q0 121 -43 233.5t-121.5 202t-201 143t-269.5 53.5q-206 0 -371 -92t-260.5 -264.5t-95.5 -396.5q0 -223 97.5 -396t266.5 -265.5t381 -92.5q183 0 331 70t251 200l22 -43q-222 -272 -604 -272q-236 0 -416.5 100.5t-279 282t-98.5 416.5zM573 287 q0 -99 61.5 -151t166.5 -52q72 0 133.5 32.5t103.5 94.5q54 85 54 221v115q-11 -11 -144 -35l-123 -23q-36 -7 -54.5 -10.5t-50 -12t-48.5 -17.5t-39 -24t-33 -33.5t-19 -45t-8 -59.5z" />
<glyph unicode="A" horiz-adv-x="1181" d="M43 0l522 1393h49l527 -1393h-51l-168 453h-664l-166 -453h-49zM272 496h633l-209 546q-25 68 -51 141.5t-39 113.5l-14 40h-2q-58 -162 -107 -293z" />
<glyph unicode="B" horiz-adv-x="1341" d="M195 0v1393h464q141 0 231 -15t154 -61q62 -42 98 -112t36 -154q0 -125 -78 -213t-197 -107v-2q150 -20 237 -119.5t87 -238.5q0 -109 -48 -188t-130 -122q-62 -33 -138.5 -47t-216.5 -14h-499zM240 43h479q128 0 199.5 16.5t130.5 51.5q129 81 129 262q0 105 -52 181.5 t-143 115.5q-85 37 -264 37h-479v-664zM240 748h448q111 0 169 8t104 28q167 77 167 263q0 140 -96 223q-54 45 -132.5 62.5t-205.5 17.5h-454v-602z" />
<glyph unicode="C" horiz-adv-x="1323" d="M121 696q0 329 158 525t430 196q179 0 310.5 -87.5t201.5 -246.5l-35 -36q-65 157 -188 242t-289 85q-249 0 -395 -183t-146 -495q0 -311 147 -494.5t394 -183.5q168 0 294 90t189 254l39 -30q-68 -170 -202.5 -263.5t-319.5 -93.5q-273 0 -430.5 195.5t-157.5 525.5z " />
<glyph unicode="D" horiz-adv-x="1376" d="M195 0v1393h317q188 0 292.5 -16.5t192.5 -78.5q118 -84 188 -241t70 -357q0 -177 -52 -321t-150 -238q-41 -40 -86 -66.5t-87.5 -41.5t-108.5 -22.5t-121.5 -9t-155.5 -1.5h-299zM240 43h299q68 0 107 1t97.5 7t97.5 17.5t82.5 33.5t77.5 54q205 189 205 538 q0 360 -209 541q-83 73 -189 94t-304 21h-264v-1307z" />
<glyph unicode="E" horiz-adv-x="1161" d="M195 0v1393h849v-43h-804v-609h731v-43h-731v-655h847v-43h-892z" />
<glyph unicode="F" horiz-adv-x="1046" d="M195 0v1393h809v-43h-764v-609h690v-43h-690v-698h-45z" />
<glyph unicode="G" horiz-adv-x="1363" d="M121 696q0 329 157 525t429 196q184 0 317 -92t201 -260l-37 -35q-58 164 -184.5 254t-296.5 90q-249 0 -395 -183t-146 -495q0 -311 147 -494.5t394 -183.5q135 0 246.5 60t168.5 170q49 96 49 233v148h-507v43h553v-672h-46v268h-2q-49 -141 -173 -217t-300 -76 q-264 0 -419.5 196.5t-155.5 524.5z" />
<glyph unicode="H" horiz-adv-x="1347" d="M195 0v1393h45v-652h868v652h45v-1393h-45v698h-868v-698h-45z" />
<glyph unicode="I" horiz-adv-x="434" d="M195 0v1393h45v-1393h-45z" />
<glyph unicode="J" horiz-adv-x="1007" d="M45 340l47 20v-4q0 -168 81 -256t267 -88q132 0 205 47.5t107 151.5q26 88 26 233v949h45v-889q0 -138 -6 -191q-18 -199 -137 -282q-89 -62 -240 -62q-87 0 -156.5 20t-124 62.5t-84 115.5t-30.5 173z" />
<glyph unicode="K" horiz-adv-x="1226" d="M195 0v1393h45v-848l847 848h62l-537 -535l596 -858h-55l-575 823l-338 -338v-485h-45z" />
<glyph unicode="L" horiz-adv-x="1058" d="M195 0v1393h45v-1350h800v-43h-845z" />
<glyph unicode="M" horiz-adv-x="1499" d="M195 0v1393h45l436 -1123q70 -179 78 -204h2q17 58 75 204l433 1123h41v-1393h-43v920q0 319 6 378h-2q-15 -58 -111 -303l-383 -995h-37l-381 975q-18 48 -47.5 122t-47 121t-26.5 78h-2q9 -94 9 -352v-944h-45z" />
<glyph unicode="N" horiz-adv-x="1347" d="M195 0v1393h41l761 -1137q101 -153 113 -174h2q0 18 -2 79.5t-2 117.5v1114h45v-1393h-41l-760 1137q-90 131 -114 174h-2q4 -122 4 -187v-1124h-45z" />
<glyph unicode="O" horiz-adv-x="1413" d="M121 696q0 329 157 525t429 196q273 0 429 -195.5t156 -525.5t-155.5 -525.5t-429.5 -195.5q-273 0 -429.5 195.5t-156.5 525.5zM168 696q0 -311 147 -494.5t392 -183.5t391.5 183.5t146.5 494.5q0 312 -144.5 495t-393.5 183q-248 0 -393.5 -183t-145.5 -495z" />
<glyph unicode="P" horiz-adv-x="1230" d="M195 0v1393h456q134 0 221 -19q134 -26 213.5 -117t79.5 -237q0 -100 -42.5 -180t-125.5 -129q-111 -66 -319 -66h-438v-645h-45zM240 688h415q105 0 179 13.5t135 48.5q149 84 149 270q0 113 -60 191.5t-165 111.5q-80 27 -260 27h-393v-662z" />
<glyph unicode="Q" horiz-adv-x="1425" d="M121 696q0 329 157 525t429 196q273 0 429 -195.5t156 -525.5q0 -316 -143 -510l197 -180l-33 -37l-195 181q-152 -175 -411 -175q-273 0 -429.5 195.5t-156.5 525.5zM168 696q0 -311 147 -494.5t392 -183.5t391.5 183.5t146.5 494.5q0 312 -144.5 495t-393.5 183 q-248 0 -393.5 -183t-145.5 -495z" />
<glyph unicode="R" horiz-adv-x="1282" d="M195 0v1393h462q130 0 220 -19q133 -26 211.5 -115t78.5 -235q0 -197 -147 -293q-105 -71 -291 -78l463 -653h-62l-460 653h-430v-653h-45zM240 696h407q132 0 213.5 19.5t145.5 64.5q112 79 112 244q0 113 -59.5 189.5t-165.5 109.5q-80 27 -260 27h-393v-654z" />
<glyph unicode="S" horiz-adv-x="1177" d="M80 268l37 35q59 -124 189.5 -204.5t307.5 -80.5q206 1 318 95.5t112 251.5q0 128 -86.5 202t-255.5 111l-186 43q-68 15 -116 29.5t-102 41.5t-87.5 60.5t-56 86.5t-23.5 120q0 161 122 258.5t316 99.5q143 0 260.5 -58t184.5 -140l-27 -41q-165 196 -424 196 q-170 -2 -277.5 -86.5t-107.5 -222.5q0 -67 23.5 -117.5t72 -85t108.5 -57t146 -41.5l183 -41q195 -43 288 -125t93 -233q0 -171 -125.5 -280t-356.5 -110q-192 0 -329.5 86t-200.5 207z" />
<glyph unicode="T" horiz-adv-x="1071" d="M25 1350v43h1022v-43h-490v-1350h-45v1350h-487z" />
<glyph unicode="U" horiz-adv-x="1388" d="M182 588v805h45v-840q0 -75 3 -125.5t20 -117.5t49 -113q128 -183 395 -183q268 0 396 183q32 46 48.5 112.5t19.5 116t3 125.5v842h45v-805q0 -149 -12 -239t-57 -165q-63 -106 -178.5 -159.5t-264.5 -53.5t-264 53.5t-178 159.5q-45 76 -57.5 166.5t-12.5 237.5z" />
<glyph unicode="V" horiz-adv-x="1118" d="M49 1393h49l373 -1076q69 -200 86 -266q29 103 86 264l385 1078h49l-497 -1393h-50z" />
<glyph unicode="W" horiz-adv-x="1744" d="M59 1393h50l292 -990q8 -27 33.5 -110.5t40.5 -136.5t19 -80h2q13 58 86 327l274 990h43l277 -985q61 -219 86 -330h2q17 76 88 325l276 990h47l-389 -1393h-47l-238 854q-110 392 -122 451h-2q-4 -17 -123 -453l-236 -852h-47z" />
<glyph unicode="X" horiz-adv-x="1150" d="M14 0l535 750l-455 643h58l426 -607l432 607h55l-463 -643l531 -750h-60l-498 715l-507 -715h-54z" />
<glyph unicode="Y" horiz-adv-x="1097" d="M31 1393h53l465 -754l473 754h53l-506 -799l2 -594h-45v594z" />
<glyph unicode="Z" horiz-adv-x="1134" d="M57 0v39l934 1311h-905v43h963v-39l-934 -1311h962v-43h-1020z" />
<glyph unicode="[" horiz-adv-x="544" d="M174 -324v1717h305v-43h-260v-1631h260v-43h-305z" />
<glyph unicode="\" horiz-adv-x="890" d="M53 1393h51l734 -1393h-52z" />
<glyph unicode="]" horiz-adv-x="544" d="M66 -281h260v1631h-260v43h305v-1717h-305v43z" />
<glyph unicode="^" horiz-adv-x="931" d="M133 657l326 736h45l325 -736h-51l-297 686l-297 -686h-51z" />
<glyph unicode="_" horiz-adv-x="1529" d="M225 -246h1080v-43h-1080v43z" />
<glyph unicode="`" horiz-adv-x="819" d="M283 1393h63l244 -279h-55z" />
<glyph unicode="a" horiz-adv-x="985" d="M102 260q0 140 107 209q69 43 201 68l270 51q49 8 66.5 21t17.5 50v39q0 129 -67 193.5t-222 64.5q-301 0 -301 -276l-45 29q-1 137 93 212.5t253 75.5q183 0 262 -79q36 -36 54 -90t18 -148v-494q0 -98 31 -131q26 -26 78 -26q28 0 49 6v-43q-24 -6 -62 -6 q-80 0 -110.5 43.5t-30.5 128.5q0 53 2 73h-2q-12 -49 -38 -92t-67.5 -81t-106.5 -60.5t-146 -22.5q-148 0 -226 79t-78 206zM152 262q0 -118 73 -181t197 -63q177 0 278 148q64 99 64 260v147q-19 -17 -162 -43l-147 -26q-59 -10 -94 -18.5t-80 -27.5t-72 -46 q-57 -57 -57 -150z" />
<glyph unicode="b" horiz-adv-x="1089" d="M166 0v1393h45v-670h2q12 51 39.5 97.5t70 87.5t107.5 66t143 25q193 0 299.5 -138t106.5 -378q0 -233 -110 -370.5t-296 -137.5q-67 0 -122.5 16t-93.5 41.5t-67.5 61t-47 70t-29.5 74.5h-2v-238h-45zM205 479q0 -218 99 -339.5t265 -121.5q169 0 265 123t96 346 q0 225 -99 347t-264 122q-162 0 -262 -127t-100 -350z" />
<glyph unicode="c" horiz-adv-x="993" d="M109 481q0 235 110.5 376.5t310.5 141.5q134 0 232 -66.5t143 -182.5l-35 -39q-41 118 -129.5 181.5t-210.5 63.5q-171 0 -271.5 -126t-100.5 -347q0 -217 101.5 -341t270.5 -124q116 0 201.5 59t130.5 167l39 -33q-52 -112 -146.5 -174t-224.5 -62q-197 0 -309 138.5 t-112 367.5z" />
<glyph unicode="d" horiz-adv-x="1089" d="M111 483q0 240 106 378t299 138q78 0 143 -25t108 -66t70.5 -88t39.5 -97h2v670h45v-1393h-45v238h-2q-12 -40 -29.5 -74.5t-47.5 -70t-68 -61t-93.5 -41.5t-122.5 -16q-186 0 -295.5 137.5t-109.5 370.5zM160 487q0 -223 96 -346t264 -123q166 0 265.5 121.5t99.5 339.5 q0 223 -100.5 350t-262.5 127q-165 0 -263.5 -122t-98.5 -347z" />
<glyph unicode="e" horiz-adv-x="1050" d="M109 483q0 231 116 373.5t305 142.5q186 0 301.5 -127.5t118.5 -357.5h-792v-18q0 -216 103.5 -347t287.5 -131q253 0 356 252l37 -37q-49 -114 -148 -186t-247 -72q-196 0 -317 136.5t-121 371.5zM162 557h737q-17 191 -113.5 295t-255.5 104q-156 0 -253.5 -105.5 t-114.5 -293.5z" />
<glyph unicode="f" horiz-adv-x="634" d="M43 932v43h223v217q0 67 10.5 102t34.5 62q52 61 162 61q64 0 125 -26v-50q-64 33 -129 33q-95 0 -135 -59q-23 -38 -23 -113v-227h287v-43h-287v-932h-45v932h-223z" />
<glyph unicode="g" horiz-adv-x="1089" d="M111 483q0 240 106 378t299 138q78 0 143 -25t108 -66t70.5 -88t39.5 -97h2v252h45v-823q0 -130 -7.5 -199.5t-27.5 -126.5q-83 -232 -377 -232q-100 0 -176.5 26t-120.5 71t-66.5 97.5t-25.5 113.5l43 35q3 -142 92.5 -220.5t253.5 -78.5q268 0 340 219q27 89 27 293v88 h-2q-12 -40 -29.5 -74.5t-47.5 -70t-68 -61t-93.5 -41.5t-122.5 -16q-186 0 -295.5 137.5t-109.5 370.5zM160 487q0 -223 96 -346t264 -123q166 0 265.5 121.5t99.5 339.5q0 223 -100.5 350t-262.5 127q-165 0 -263.5 -122t-98.5 -347z" />
<glyph unicode="h" horiz-adv-x="1032" d="M166 0v1393h45v-627h2q13 42 38.5 80.5t65 74.5t100.5 57t134 21q139 0 210.5 -60.5t96.5 -170.5q16 -76 16 -199v-569h-45v528q0 151 -18 232q-23 97 -85.5 146.5t-184.5 49.5q-151 0 -240.5 -107.5t-89.5 -262.5v-586h-45z" />
<glyph unicode="i" horiz-adv-x="376" d="M166 0v975h45v-975h-45zM166 1157v236h45v-236h-45z" />
<glyph unicode="j" horiz-adv-x="376" d="M-133 -324q68 -38 139 -38q84 0 121 45q39 47 39 186v1106h45v-985q0 -171 -8 -232t-39 -102q-48 -62 -158 -62q-73 0 -139 29v53zM166 1157v236h45v-236h-45z" />
<glyph unicode="k" horiz-adv-x="933" d="M166 0v1393h45v-971l582 553h61l-377 -357l420 -618h-57l-396 588l-233 -219v-369h-45z" />
<glyph unicode="l" horiz-adv-x="409" d="M182 0v1393h45v-1393h-45z" />
<glyph unicode="m" horiz-adv-x="1564" d="M166 0v975h45v-217h2q16 60 52.5 112t105 90.5t155.5 38.5q128 0 196 -71t77 -199q8 46 31.5 91.5t62.5 86.5t99 66.5t132 25.5q166 0 232 -114q33 -57 42 -121.5t9 -171.5v-592h-45v594q0 147 -27 221q-51 141 -217 141q-99 0 -171 -59.5t-105 -147t-33 -188.5v-561h-45 v575q0 75 -6.5 131.5t-23 105t-43.5 79.5t-70 48t-101 17q-76 0 -136.5 -35t-97.5 -93t-56 -128.5t-19 -146.5v-553h-45z" />
<glyph unicode="n" horiz-adv-x="1032" d="M166 0v975h45v-209h2q13 42 38.5 80.5t65 74.5t100.5 57t134 21q139 0 210.5 -60.5t96.5 -170.5q16 -76 16 -199v-569h-45v528q0 151 -18 232q-23 97 -85.5 146.5t-184.5 49.5q-151 0 -240.5 -107.5t-89.5 -262.5v-586h-45z" />
<glyph unicode="o" horiz-adv-x="1062" d="M109 481q0 235 110.5 376.5t310.5 141.5t312 -141.5t112 -376.5q0 -229 -113 -367.5t-311 -138.5q-197 0 -309 138.5t-112 367.5zM158 483q0 -217 101.5 -341t270.5 -124q172 0 273.5 124t101.5 341q0 223 -100.5 348t-274.5 125q-171 0 -271.5 -126t-100.5 -347z" />
<glyph unicode="p" horiz-adv-x="1089" d="M166 -389v1364h45v-252h2q12 51 39.5 97.5t70 87.5t107.5 66t143 25q193 0 299.5 -138t106.5 -378q0 -233 -110 -370.5t-296 -137.5q-67 0 -122.5 16t-93.5 41.5t-67.5 61t-47 70t-29.5 74.5h-2v-627h-45zM205 479q0 -218 99 -339.5t265 -121.5q169 0 265 123t96 346 q0 225 -99 347t-264 122q-162 0 -262 -127t-100 -350z" />
<glyph unicode="q" horiz-adv-x="1089" d="M111 483q0 240 106 378t299 138q78 0 143 -25t108 -66t70.5 -88t39.5 -97h2v252h45v-1364h-45v627h-2q-12 -40 -29.5 -74.5t-47.5 -70t-68 -61t-93.5 -41.5t-122.5 -16q-186 0 -295.5 137.5t-109.5 370.5zM160 487q0 -223 96 -346t264 -123q166 0 265.5 121.5t99.5 339.5 q0 223 -100.5 350t-262.5 127q-165 0 -263.5 -122t-98.5 -347z" />
<glyph unicode="r" horiz-adv-x="620" d="M166 0v975h45v-203q24 90 102 158.5t185 68.5q48 0 73 -10v-45q-42 10 -73 10q-85 0 -152 -50.5t-101 -128.5t-34 -165v-610h-45z" />
<glyph unicode="s" horiz-adv-x="899" d="M86 137l31 43q59 -74 148.5 -118t203.5 -44q144 1 220.5 61t76.5 161q-1 51 -20 89t-58 63.5t-80 41.5t-104 33l-121 31q-68 18 -113 36t-82.5 46.5t-55 70t-17.5 97.5q0 119 92 185t229 66q102 0 185.5 -37.5t134.5 -95.5l-25 -47q-112 137 -297 137q-118 -2 -195 -55.5 t-77 -148.5q0 -90 58.5 -136.5t185.5 -78.5l118 -31q67 -17 116 -36.5t90 -50t62 -74.5t21 -101q0 -128 -93.5 -197.5t-256.5 -71.5q-128 0 -223 46.5t-154 115.5z" />
<glyph unicode="t" horiz-adv-x="587" d="M31 932v43h196v381l45 10v-391h256v-43h-256v-725q0 -114 31 -152q27 -35 92 -35q85 0 148 54v-49q-28 -22 -70.5 -35t-83.5 -13q-85 0 -125 50q-37 45 -37 157v748h-196z" />
<glyph unicode="u" horiz-adv-x="1028" d="M156 389v586h45v-533q0 -85 5.5 -143.5t23.5 -115.5t49.5 -90.5t85 -54t129.5 -20.5q150 0 236.5 107.5t86.5 263.5v586h45v-975h-45v209h-2q-14 -43 -38 -81t-62.5 -74t-98.5 -57.5t-133 -21.5q-82 0 -142 23t-95 59.5t-55.5 92.5t-27.5 111.5t-7 127.5z" />
<glyph unicode="v" horiz-adv-x="864" d="M57 975h47l242 -666q66 -177 82 -239h2q13 51 88 241l256 664h45l-377 -975h-32z" />
<glyph unicode="w" horiz-adv-x="1329" d="M61 975h48l202 -621q65 -188 88 -274h2q12 49 74 270l176 625h35l174 -619q44 -151 76 -276h2q23 89 86 285l197 610h43l-310 -975h-39l-182 653q-64 235 -65 238h-2q-17 -82 -64 -240l-184 -651h-39z" />
<glyph unicode="x" horiz-adv-x="860" d="M45 0l358 502l-331 473h53l307 -438l305 438h54l-336 -471l360 -504h-55l-332 467l-330 -467h-53z" />
<glyph unicode="y" horiz-adv-x="868" d="M43 -334q39 -28 98 -28q48 0 78 18q32 18 55 53.5t50 102.5l82 208l-349 955h52l251 -694q13 -35 27.5 -77t26 -78.5t14.5 -43.5h2q2 8 80 205l264 688h47l-426 -1100q-53 -136 -82 -184q-60 -97 -178 -97q-48 0 -92 19v53z" />
<glyph unicode="z" horiz-adv-x="829" d="M78 0v35l598 897h-594v43h653v-35l-600 -897h631v-43h-688z" />
<glyph unicode="{" horiz-adv-x="583" d="M76 520v51q34 10 58 24t40 36.5t25 44t13.5 59t5.5 69.5t1 87v221q0 155 63.5 218t221.5 63h16v-41q-153 0 -204.5 -51.5t-51.5 -198.5v-174q0 -88 -3.5 -141.5t-12 -96t-28 -67.5t-45.5 -42.5t-69 -33.5v-2q43 -16 69 -33.5t45.5 -42.5t28 -67.5t12 -96t3.5 -141.5v-197 q0 -147 51.5 -198.5t204.5 -51.5v-41h-16q-158 0 -221.5 63t-63.5 218v244q0 55 -1 87t-5.5 69.5t-13.5 59t-25 43.5t-40 36t-58 24z" />
<glyph unicode="|" horiz-adv-x="393" d="M174 -324v1717h45v-1717h-45z" />
<glyph unicode="}" horiz-adv-x="583" d="M63 -283q153 0 204.5 51.5t51.5 198.5v197q0 88 3.5 141.5t12 96t28 67.5t45.5 42.5t69 33.5v2q-43 16 -69 33.5t-45.5 42.5t-28 67.5t-12 96t-3.5 141.5v174q0 147 -51.5 198.5t-204.5 51.5v41h17q158 0 221.5 -63t63.5 -218v-221q0 -55 1 -87t5.5 -69.5t13.5 -59 t25 -44t40 -36.5t58 -24v-51q-34 -10 -58 -24t-40 -36t-25 -43.5t-13.5 -59t-5.5 -69.5t-1 -87v-244q0 -155 -63.5 -218t-221.5 -63h-17v41z" />
<glyph unicode="~" horiz-adv-x="1179" d="M127 575q99 134 231 134q50 0 103 -18t147 -62q100 -48 141.5 -63t79.5 -15q99 0 201 115l27 -29q-105 -127 -228 -127q-24 0 -48.5 4.5t-54 15.5t-47 18.5t-55 25.5t-51.5 24q-7 3 -28.5 13t-29 13t-26.5 11t-28.5 11.5t-25.5 8.5t-27.5 7t-26 4t-27.5 2 q-54 0 -100.5 -29.5t-97.5 -91.5z" />
<glyph unicode="&#xa1;" horiz-adv-x="368" d="M162 285l6 329h33l6 -329v-703h-45v703zM162 741v234h45v-234h-45z" />
<glyph unicode="&#xa2;" horiz-adv-x="1005" d="M115 481q0 227 103.5 367.5t291.5 150.5v189h45v-189q127 -4 219.5 -71t136.5 -178l-34 -39q-40 113 -123.5 176.5t-198.5 68.5v-938q108 4 189 63t124 163l39 -33q-50 -109 -139.5 -170.5t-212.5 -65.5v-206h-45v206q-185 10 -290 147.5t-105 358.5zM164 483 q0 -208 93.5 -331t252.5 -134v936q-161 -9 -253.5 -134t-92.5 -337z" />
<glyph unicode="&#xa3;" horiz-adv-x="1138" d="M90 678v45h234q-15 175 -15 227q0 76 8.5 138.5t33 126t64.5 106.5t108 70.5t159 27.5q155 0 250 -80t110 -217l-38 -16q-17 130 -101.5 200t-222.5 70q-79 0 -138 -23t-94.5 -60t-57 -91.5t-29 -110t-7.5 -124.5q0 -54 15 -244h342v-45h-338q12 -210 12 -262 q0 -136 -31 -232.5t-114 -138.5v-2h772v-43h-920v33q136 15 191 100t55 299q0 82 -12 246h-236z" />
<glyph unicode="&#xa4;" horiz-adv-x="1136" d="M125 1014l29 30l149 -151q113 102 264 102q149 0 262 -102l148 147l31 -30l-148 -148q101 -116 101 -260q0 -150 -103 -264l152 -150l-31 -28l-150 149q-112 -98 -262 -98t-262 98l-145 -147l-31 31l147 147q-100 111 -100 262q0 148 98 260zM221 602 q0 -145 100.5 -246.5t245.5 -101.5t246.5 101.5t101.5 246.5t-101.5 247.5t-246.5 102.5q-144 0 -245 -102.5t-101 -247.5z" />
<glyph unicode="&#xa5;" horiz-adv-x="1241" d="M102 1393h54l465 -754l473 754h53l-477 -754h428v-43h-457v-2v-221h457v-43h-457l2 -330h-45v330h-459v43h459v221l-2 2h-457v43h430z" />
<glyph unicode="&#xa6;" horiz-adv-x="397" d="M176 -324v662h45v-662h-45zM176 731v662h45v-662h-45z" />
<glyph unicode="&#xa7;" horiz-adv-x="993" d="M117 -16l30 43q58 -74 148.5 -118t204.5 -44q144 1 220.5 60.5t76.5 160.5q-1 49 -17 83.5t-59 62t-70.5 40t-97.5 38.5q-12 5 -18 7l-127 48q-65 24 -111.5 48.5t-90.5 60.5t-66.5 86.5t-22.5 113.5q0 112 70.5 180.5t174.5 91.5q-41 16 -70 32.5t-56.5 42t-41.5 62.5 t-14 84q0 119 93 185.5t229 66.5q102 0 185 -37.5t134 -95.5l-24 -47q-112 137 -297 137q-118 -2 -195.5 -56t-77.5 -149q0 -37 12 -66.5t30 -49t53.5 -38.5t66.5 -31t86 -30l137 -45q61 -20 105.5 -42t85.5 -55.5t62.5 -82t21.5 -110.5q0 -66 -22.5 -120t-60.5 -88.5 t-74 -55.5t-75 -35q189 -72 189 -234q0 -128 -93.5 -197t-256.5 -69q-127 0 -222.5 46.5t-154.5 115.5zM164 682q0 -105 73.5 -169t211.5 -110l159 -61q105 35 168.5 104.5t63.5 163.5q0 101 -64 160t-196 102l-162 54q-118 -23 -186 -88.5t-68 -155.5z" />
<glyph unicode="&#xa8;" horiz-adv-x="819" d="M193 1147v199h45v-199h-45zM582 1147v199h45v-199h-45z" />
<glyph unicode="&#xa9;" horiz-adv-x="1634" d="M117 717q0 146 54 275.5t147 223t223 147.5t276 54q195 0 356 -92t253 -252.5t92 -355.5t-92 -355.5t-253 -253t-356 -92.5t-356 92.5t-252.5 253t-91.5 355.5zM164 717q0 -182 84.5 -333t234.5 -238t334 -87t334 87t234.5 238t84.5 333t-84.5 332.5t-234.5 237.5 t-334 87t-334 -87t-234.5 -237.5t-84.5 -332.5zM453 721q0 198 100 317t266 119q107 0 183.5 -49t117.5 -135l-37 -29q-74 170 -264 170q-144 0 -231.5 -103.5t-87.5 -287.5q0 -182 88.5 -284.5t230.5 -102.5q191 0 264 147l35 -26q-90 -164 -299 -164q-166 0 -266 116.5 t-100 311.5z" />
<glyph unicode="&#xaa;" horiz-adv-x="759" d="M115 961q0 78 46.5 117t143.5 57l176 32q21 3 31 10.5t10 26.5v21q0 78 -40 116.5t-132 38.5q-180 0 -180 -172l-39 21q0 90 59 139t160 49q114 0 166 -49q47 -47 47 -151v-302q0 -55 17 -75q15 -15 45 -15q11 0 34 9v-41q-19 -7 -43 -7q-53 0 -73.5 28.5t-20.5 84.5v4 q-25 -53 -78 -88t-135 -35q-96 0 -145 50t-49 131zM158 963q0 -69 43 -106.5t116 -37.5q108 0 166 88q39 59 39 158v76q-28 -9 -76 -17l-110 -20q-31 -5 -52.5 -10t-47 -15.5t-41 -25t-26.5 -37.5t-11 -53z" />
<glyph unicode="&#xab;" horiz-adv-x="782" d="M106 565v39l291 342v-65l-254 -293l254 -299v-66zM369 565v39l290 342v-65l-253 -293l253 -299v-66z" />
<glyph unicode="&#xac;" horiz-adv-x="1091" d="M119 887v43h811v-477h-45v434h-766z" />
<glyph unicode="&#xad;" horiz-adv-x="849" d="M141 526v43h568v-43h-568z" />
<glyph unicode="&#xae;" horiz-adv-x="1634" d="M117 717q0 146 54 275.5t147 223t223 147.5t276 54q195 0 356 -92t253 -252.5t92 -355.5t-92 -355.5t-253 -253t-356 -92.5t-356 92.5t-252.5 253t-91.5 355.5zM164 717q0 -182 84.5 -333t234.5 -238t334 -87t334 87t234.5 238t84.5 333t-84.5 332.5t-234.5 237.5 t-334 87t-334 -87t-234.5 -237.5t-84.5 -332.5zM537 303v836h337q108 0 166 -21q59 -26 94 -77t35 -121q0 -225 -286 -222l280 -395h-55l-281 395h-245v-395h-45zM582 741h315q117 0 172 44.5t55 134.5q0 122 -120 163q-50 13 -107 13h-315v-355z" />
<glyph unicode="&#xaf;" horiz-adv-x="962" d="M203 1167v43h555v-43h-555z" />
<glyph unicode="&#xb0;" horiz-adv-x="774" d="M102 1133q0 118 83 201t202 83t202 -83t83 -201q0 -119 -83.5 -203t-201.5 -84t-201.5 84t-83.5 203zM147 1133q0 -100 70.5 -172t169.5 -72q98 0 169 72t71 172q0 98 -71 169.5t-169 71.5q-99 0 -169.5 -71t-70.5 -170z" />
<glyph unicode="&#xb1;" horiz-adv-x="1497" d="M150 0v43h1200v-43h-1200zM150 696v43h579v475h45v-475h576v-43h-576v-477h-45v477h-579z" />
<glyph unicode="&#xb2;" horiz-adv-x="811" d="M131 555v39q224 153 311 231q88 79 135.5 151.5t47.5 168.5q0 107 -65.5 169t-162.5 62q-102 0 -160.5 -61.5t-58.5 -151.5q0 -67 35 -135l-53 14q-25 67 -25 121q0 107 70.5 180.5t195.5 73.5t197 -78t72 -192q0 -73 -28 -139.5t-82.5 -125.5t-107 -102t-128.5 -96 q-121 -81 -131 -86h483v-43h-545z" />
<glyph unicode="&#xb3;" horiz-adv-x="794" d="M104 741l46 29q6 -109 76 -159t167 -50q106 0 172 56t66 155q0 121 -111 174q-35 15 -78.5 21t-130.5 6h-49v41h39q123 0 191 24q116 49 116 168q0 72 -55 120t-160 48q-99 0 -156.5 -49t-68.5 -123l-41 23q3 29 20 60t47.5 61.5t82.5 50.5t116 20q133 0 198.5 -61 t65.5 -148q0 -73 -43 -131t-120 -76v-4q83 -18 134.5 -79t51.5 -148q0 -114 -74.5 -183t-214.5 -69q-124 0 -201 59.5t-86 163.5z" />
<glyph unicode="&#xb4;" horiz-adv-x="962" d="M334 1114l244 279h63l-252 -279h-55z" />
<glyph unicode="&#xb5;" horiz-adv-x="1011" d="M172 -389v1364h45v-533q0 -84 6 -143.5t24 -115.5t50 -90t85 -54.5t128 -20.5q150 0 237 107.5t87 263.5v586h45v-975h-45v209h-3q-11 -34 -27.5 -64.5t-44.5 -62.5t-63 -55t-86 -37.5t-110 -14.5q-122 0 -188 46.5t-93 128.5h-2v-539h-45z" />
<glyph unicode="&#xb6;" horiz-adv-x="1103" d="M66 1061q0 165 114 256q49 39 113 57.5t176 18.5h575v-43h-190v-1612h-45v1612h-281v-1612h-45v991h-14q-112 0 -176 18.5t-113 57.5q-114 91 -114 256z" />
<glyph unicode="&#xb7;" horiz-adv-x="346" d="M152 539v233h45v-233h-45z" />
<glyph unicode="&#xb8;" horiz-adv-x="962" d="M311 -133l121 139h47l-104 -121q42 11 69 11q67 0 110.5 -35.5t43.5 -102.5q0 -80 -49 -116.5t-129 -36.5q-53 0 -96 14l14 41q44 -14 86 -14q56 0 92.5 26t36.5 84q0 54 -37 78.5t-94 24.5q-46 0 -92 -17z" />
<glyph unicode="&#xb9;" horiz-adv-x="489" d="M70 1171v41h30q94 0 138 33q56 41 59 148h37v-861h-43v703q-57 -64 -207 -64h-14z" />
<glyph unicode="&#xba;" horiz-adv-x="751" d="M109 1096q0 148 71.5 232.5t198.5 84.5q123 0 193.5 -84.5t70.5 -232.5q0 -144 -70 -228t-194 -84q-126 0 -198 84t-72 228zM150 1096q0 -129 63.5 -201t165.5 -72q98 0 160.5 73t62.5 200q0 134 -60.5 206t-162.5 72q-103 0 -166 -73.5t-63 -204.5z" />
<glyph unicode="&#xbb;" horiz-adv-x="782" d="M123 223v66l254 299l-254 293v65l291 -342v-39zM385 223v66l254 299l-254 293v65l291 -342v-39z" />
<glyph unicode="&#xbc;" horiz-adv-x="1425" d="M74 1171v41h30q94 0 138 33q56 41 59 148h37v-861h-43v703q-57 -64 -207 -64h-14zM293 0l729 1393h47l-727 -1393h-49zM735 217v39l426 604h39v-600h162v-43h-162v-217h-45v217h-420zM788 260h367v256l2 272q-80 -118 -135 -200l-84 -121z" />
<glyph unicode="&#xbd;" horiz-adv-x="1542" d="M74 1171v41h30q94 0 138 33q56 41 59 148h37v-861h-43v703q-57 -64 -207 -64h-14zM264 0l729 1393h47l-727 -1393h-49zM905 0v39q228 155 312 231q87 78 134.5 151t47.5 169q0 107 -65.5 169t-162.5 62q-102 0 -160.5 -61.5t-58.5 -151.5q0 -67 35 -135l-53 14 q-25 67 -25 121q0 107 71 180.5t196 73.5t196.5 -78t71.5 -192q0 -73 -28 -139.5t-82.5 -125.5t-107 -102t-128.5 -96q-121 -81 -131 -86h483v-43h-545z" />
<glyph unicode="&#xbe;" horiz-adv-x="1656" d="M88 741l45 29q6 -109 76 -159t168 -50q105 0 171 56t66 155q0 64 -31 107.5t-79 66.5q-35 15 -78.5 21t-130.5 6h-49v41h39q123 0 190 24q117 50 117 168q0 72 -55 120t-160 48q-99 0 -156.5 -49t-68.5 -123l-41 23q3 29 20 60t47.5 61.5t82.5 50.5t116 20 q133 0 198.5 -61t65.5 -148q0 -73 -43.5 -131t-120.5 -76v-4q83 -18 135 -79.5t52 -147.5q0 -114 -74.5 -183t-214.5 -69q-124 0 -201 59.5t-86 163.5zM524 0l729 1393h47l-727 -1393h-49zM967 217v39l426 604h39v-600h161v-43h-161v-217h-46v217h-419zM1020 260h366v256 l3 272q-81 -118 -136 -200l-84 -121z" />
<glyph unicode="&#xbf;" horiz-adv-x="901" d="M70 -86q0 118 46 201.5t138 167.5l53 47q60 55 84 78.5t46 57.5t27 65t5 83v39h45v-47q0 -82 -25 -136.5t-112 -131.5l-92 -84q-83 -74 -125.5 -155t-42.5 -181q0 -139 91.5 -228t246.5 -89q159 0 244 93t85 232q0 71 -26 154l51 -14q22 -67 22 -146q0 -158 -102 -260 t-276 -102q-176 0 -279.5 101.5t-103.5 254.5zM469 748v227h45v-227h-45z" />
<glyph unicode="&#xc0;" horiz-adv-x="1181" d="M43 0l522 1393h49l527 -1393h-51l-168 453h-664l-166 -453h-49zM272 496h633l-209 546q-25 68 -51 141.5t-39 113.5l-14 40h-2q-58 -162 -107 -293zM354 1821h64l244 -279h-56z" />
<glyph unicode="&#xc1;" horiz-adv-x="1181" d="M43 0l522 1393h49l527 -1393h-51l-168 453h-664l-166 -453h-49zM272 496h633l-209 546q-25 68 -51 141.5t-39 113.5l-14 40h-2q-58 -162 -107 -293zM549 1542l244 279h63l-252 -279h-55z" />
<glyph unicode="&#xc2;" horiz-adv-x="1181" d="M43 0l522 1393h49l527 -1393h-51l-168 453h-664l-166 -453h-49zM272 496h633l-209 546q-25 68 -51 141.5t-39 113.5l-14 40h-2q-58 -162 -107 -293zM328 1542l252 279h53l254 -279h-56l-225 240l-223 -240h-55z" />
<glyph unicode="&#xc3;" horiz-adv-x="1181" d="M43 0l522 1393h49l527 -1393h-51l-168 453h-664l-166 -453h-49zM272 496h633l-209 546q-25 68 -51 141.5t-39 113.5l-14 40h-2q-58 -162 -107 -293zM293 1593q13 54 55.5 97t110.5 43q51 0 153 -52q96 -49 144 -49q77 0 116 94l35 -14q-41 -121 -153 -121q-60 0 -156 49 q-44 21 -61.5 29t-41 15.5t-42.5 7.5q-47 0 -77 -33t-44 -80z" />
<glyph unicode="&#xc4;" horiz-adv-x="1181" d="M43 0l522 1393h49l527 -1393h-51l-168 453h-664l-166 -453h-49zM272 496h633l-209 546q-25 68 -51 141.5t-39 113.5l-14 40h-2q-58 -162 -107 -293zM375 1591v199h45v-199h-45zM764 1591v199h45v-199h-45z" />
<glyph unicode="&#xc5;" horiz-adv-x="1181" d="M43 0l522 1393h49l527 -1393h-51l-168 453h-664l-166 -453h-49zM272 496h633l-209 546q-25 68 -51 141.5t-39 113.5l-14 40h-2q-58 -162 -107 -293zM426 1696q0 71 49 118.5t119 47.5t119 -47.5t49 -118.5t-49 -118.5t-119 -47.5t-119 47.5t-49 118.5zM465 1696 q0 -54 38 -91.5t91 -37.5t90 37.5t37 91.5t-37 91.5t-90 37.5t-91 -37.5t-38 -91.5z" />
<glyph unicode="&#xc6;" horiz-adv-x="1806" d="M-14 0l860 1393h844v-43h-783v-609h709v-43h-709v-655h826v-43h-871v459h-538l-287 -459h-51zM346 502h516v497l4 353h-2q-96 -173 -180 -308z" />
<glyph unicode="&#xc7;" horiz-adv-x="1323" d="M121 696q0 329 158 525t430 196q179 0 310.5 -87.5t201.5 -246.5l-35 -36q-65 157 -188 242t-289 85q-249 0 -395 -183t-146 -495q0 -311 147 -494.5t394 -183.5q168 0 294 90t189 254l39 -30q-67 -163 -194 -256.5t-302 -100.5l-78 -90q42 11 70 11q67 0 110.5 -35.5 t43.5 -102.5q0 -80 -49.5 -116.5t-129.5 -36.5q-53 0 -96 14l15 41q44 -14 86 -14q56 0 92.5 26t36.5 84q0 54 -37 78.5t-94 24.5q-47 0 -93 -17l-18 25l96 110q-265 6 -417 200t-152 519z" />
<glyph unicode="&#xc8;" horiz-adv-x="1161" d="M195 0v1393h849v-43h-804v-609h731v-43h-731v-655h847v-43h-892zM389 1821h64l243 -279h-55z" />
<glyph unicode="&#xc9;" horiz-adv-x="1161" d="M195 0v1393h849v-43h-804v-609h731v-43h-731v-655h847v-43h-892zM526 1542l244 279h64l-252 -279h-56z" />
<glyph unicode="&#xca;" horiz-adv-x="1161" d="M195 0v1393h849v-43h-804v-609h731v-43h-731v-655h847v-43h-892zM362 1542l252 279h54l254 -279h-56l-225 240l-223 -240h-56z" />
<glyph unicode="&#xcb;" horiz-adv-x="1161" d="M195 0v1393h849v-43h-804v-609h731v-43h-731v-655h847v-43h-892zM410 1591v199h45v-199h-45zM799 1591v199h45v-199h-45z" />
<glyph unicode="&#xcc;" horiz-adv-x="434" d="M-45 1821h63l244 -279h-55zM195 0v1434h45v-1434h-45z" />
<glyph unicode="&#xcd;" horiz-adv-x="434" d="M178 1542l244 279h63l-252 -279h-55zM195 0v1434h45v-1434h-45z" />
<glyph unicode="&#xce;" horiz-adv-x="434" d="M-51 1542l252 279h53l254 -279h-55l-226 240l-223 -240h-55zM195 0v1434h45v-1434h-45z" />
<glyph unicode="&#xcf;" horiz-adv-x="434" d="M0 1591v199h45v-199h-45zM195 0v1434h45v-1434h-45zM389 1591v199h45v-199h-45z" />
<glyph unicode="&#xd0;" horiz-adv-x="1378" d="M23 715v43h174v635h317q188 0 292.5 -16.5t192.5 -78.5q118 -84 188 -241t70 -357q0 -177 -52 -321t-150 -238q-41 -40 -86 -66.5t-87.5 -41.5t-108.5 -22.5t-121.5 -9t-155.5 -1.5h-299v715h-174zM242 43h299q68 0 107 1t97.5 7t98 17.5t83 33.5t77.5 54 q204 188 204 538q0 360 -209 541q-83 73 -189 94t-304 21h-264v-592h534v-43h-534v-672z" />
<glyph unicode="&#xd1;" horiz-adv-x="1347" d="M195 0v1393h41l761 -1137q101 -153 113 -174h2q0 18 -2 79.5t-2 117.5v1114h45v-1393h-41l-760 1137q-90 131 -114 174h-2q4 -122 4 -187v-1124h-45zM371 1593q13 54 55.5 97t110.5 43q51 0 153 -52q96 -49 144 -49q77 0 116 94l35 -14q-41 -121 -154 -121q-59 0 -155 49 q-42 21 -61 29.5t-42.5 15.5t-42.5 7q-46 0 -76 -33t-44 -80z" />
<glyph unicode="&#xd2;" horiz-adv-x="1413" d="M121 696q0 329 157 525t429 196q273 0 429 -195.5t156 -525.5t-155.5 -525.5t-429.5 -195.5q-273 0 -429.5 195.5t-156.5 525.5zM168 696q0 -311 147 -494.5t392 -183.5t391.5 183.5t146.5 494.5q0 312 -144.5 495t-393.5 183q-248 0 -393.5 -183t-145.5 -495zM489 1821 h64l244 -279h-56z" />
<glyph unicode="&#xd3;" horiz-adv-x="1413" d="M121 696q0 329 157 525t429 196q273 0 429 -195.5t156 -525.5t-155.5 -525.5t-429.5 -195.5q-273 0 -429.5 195.5t-156.5 525.5zM168 696q0 -311 147 -494.5t392 -183.5t391.5 183.5t146.5 494.5q0 312 -144.5 495t-393.5 183q-248 0 -393.5 -183t-145.5 -495zM612 1542 l244 279h64l-252 -279h-56z" />
<glyph unicode="&#xd4;" horiz-adv-x="1413" d="M121 696q0 329 157 525t429 196q273 0 429 -195.5t156 -525.5t-155.5 -525.5t-429.5 -195.5q-273 0 -429.5 195.5t-156.5 525.5zM168 696q0 -311 147 -494.5t392 -183.5t391.5 183.5t146.5 494.5q0 312 -144.5 495t-393.5 183q-248 0 -393.5 -183t-145.5 -495zM438 1542 l252 279h53l254 -279h-55l-225 240l-223 -240h-56z" />
<glyph unicode="&#xd5;" horiz-adv-x="1413" d="M121 696q0 329 157 525t429 196q273 0 429 -195.5t156 -525.5t-155.5 -525.5t-429.5 -195.5q-273 0 -429.5 195.5t-156.5 525.5zM168 696q0 -311 147 -494.5t392 -183.5t391.5 183.5t146.5 494.5q0 312 -144.5 495t-393.5 183q-248 0 -393.5 -183t-145.5 -495zM389 1593 q13 54 55.5 97t110.5 43q52 0 154 -52q96 -49 143 -49q78 0 117 94l35 -14q-41 -121 -154 -121q-60 0 -156 49q-44 21 -61.5 29t-41 15.5t-42.5 7.5q-47 0 -77 -33t-44 -80z" />
<glyph unicode="&#xd6;" horiz-adv-x="1413" d="M121 696q0 329 157 525t429 196q273 0 429 -195.5t156 -525.5t-155.5 -525.5t-429.5 -195.5q-273 0 -429.5 195.5t-156.5 525.5zM168 696q0 -311 147 -494.5t392 -183.5t391.5 183.5t146.5 494.5q0 312 -144.5 495t-393.5 183q-248 0 -393.5 -183t-145.5 -495zM487 1591 v199h45v-199h-45zM877 1591v199h45v-199h-45z" />
<glyph unicode="&#xd7;" horiz-adv-x="1275" d="M121 125l487 487l-487 488l31 28l485 -487l487 487l31 -28l-487 -488l487 -485l-31 -31l-487 488l-487 -488z" />
<glyph unicode="&#xd8;" horiz-adv-x="1421" d="M59 -16l197 219q-133 190 -133 493q0 329 157 525t429 196q141 0 254.5 -55.5t189.5 -159.5l184 205l35 -33l-192 -215q114 -186 114 -463q0 -330 -155.5 -525.5t-429.5 -195.5q-268 0 -424 189l-191 -211zM170 696q0 -281 119 -456l831 925q-70 101 -175 155t-236 54 q-248 0 -393.5 -183t-145.5 -495zM317 201q147 -183 392 -183t391.5 183.5t146.5 494.5q0 257 -100 428z" />
<glyph unicode="&#xd9;" horiz-adv-x="1388" d="M182 588v805h45v-840q0 -75 3 -125.5t20 -117.5t49 -113q128 -183 395 -183q268 0 396 183q32 46 48.5 112.5t19.5 116t3 125.5v842h45v-805q0 -149 -12 -239t-57 -165q-63 -106 -178.5 -159.5t-264.5 -53.5t-264 53.5t-178 159.5q-45 76 -57.5 166.5t-12.5 237.5z M465 1821h63l244 -279h-55z" />
<glyph unicode="&#xda;" horiz-adv-x="1388" d="M182 588v805h45v-840q0 -75 3 -125.5t20 -117.5t49 -113q128 -183 395 -183q268 0 396 183q32 46 48.5 112.5t19.5 116t3 125.5v842h45v-805q0 -149 -12 -239t-57 -165q-63 -106 -178.5 -159.5t-264.5 -53.5t-264 53.5t-178 159.5q-45 76 -57.5 166.5t-12.5 237.5z M584 1542l243 279h64l-252 -279h-55z" />
<glyph unicode="&#xdb;" horiz-adv-x="1388" d="M182 588v805h45v-840q0 -75 3 -125.5t20 -117.5t49 -113q128 -183 395 -183q268 0 396 183q32 46 48.5 112.5t19.5 116t3 125.5v842h45v-805q0 -149 -12 -239t-57 -165q-63 -106 -178.5 -159.5t-264.5 -53.5t-264 53.5t-178 159.5q-45 76 -57.5 166.5t-12.5 237.5z M424 1542l252 279h53l254 -279h-55l-226 240l-223 -240h-55z" />
<glyph unicode="&#xdc;" horiz-adv-x="1388" d="M182 588v805h45v-840q0 -75 3 -125.5t20 -117.5t49 -113q128 -183 395 -183q268 0 396 183q32 46 48.5 112.5t19.5 116t3 125.5v842h45v-805q0 -149 -12 -239t-57 -165q-63 -106 -178.5 -159.5t-264.5 -53.5t-264 53.5t-178 159.5q-45 76 -57.5 166.5t-12.5 237.5z M477 1591v199h45v-199h-45zM866 1591v199h45v-199h-45z" />
<glyph unicode="&#xdd;" horiz-adv-x="1097" d="M31 1393h53l465 -754l473 754h53l-506 -799l2 -594h-45v594zM496 1542l243 279h64l-252 -279h-55z" />
<glyph unicode="&#xde;" horiz-adv-x="1282" d="M195 0v1393h45v-183h426q140 0 225 -18q137 -27 219 -121.5t82 -243.5q0 -131 -70 -225t-180 -129q-101 -33 -274 -33h-428v-440h-45zM240 483h436q123 0 204 20t146 66q56 40 86.5 107.5t30.5 150.5q0 116 -62 198t-170 116q-79 26 -268 26h-403v-684z" />
<glyph unicode="&#xdf;" horiz-adv-x="1005" d="M166 0v913v42v47.5t1 44t2.5 48l4.5 43.5t8 46t11.5 39.5t16 40.5t21.5 34q83 117 275 117q160 0 242.5 -83t82.5 -220q0 -279 -260 -297q53 -4 93.5 -13.5t85.5 -36t74 -68.5t48 -114t19 -169q0 -234 -68 -331t-221 -97q-147 0 -201 84q-25 41 -34 94t-9 160v18h45 q0 -36 0.5 -56t2 -52t5 -50t10.5 -43t17 -39t25.5 -30.5t35 -25t46 -14t59.5 -5.5q132 0 187 91.5t55 297.5q0 112 -25 186t-78.5 115.5t-124.5 57.5t-176 16h-84v43h72q181 0 267.5 59t86.5 213q0 121 -70 194.5t-210 73.5q-164 0 -234 -98q-14 -20 -24.5 -42.5t-17 -52 t-10.5 -49t-5.5 -57t-2 -50.5t0 -56t0.5 -49v-920h-45z" />
<glyph unicode="&#xe0;" horiz-adv-x="985" d="M102 260q0 140 107 209q69 43 201 68l270 51q49 8 66.5 21t17.5 50v39q0 129 -67 193.5t-222 64.5q-301 0 -301 -276l-45 29q-1 137 93 212.5t253 75.5q183 0 262 -79q36 -36 54 -90t18 -148v-494q0 -98 31 -131q26 -26 78 -26q28 0 49 6v-43q-24 -6 -62 -6 q-80 0 -110.5 43.5t-30.5 128.5q0 53 2 73h-2q-12 -49 -38 -92t-67.5 -81t-106.5 -60.5t-146 -22.5q-148 0 -226 79t-78 206zM152 262q0 -118 73 -181t197 -63q177 0 278 148q64 99 64 260v147q-19 -17 -162 -43l-147 -26q-59 -10 -94 -18.5t-80 -27.5t-72 -46 q-57 -57 -57 -150zM279 1393h63l244 -279h-56z" />
<glyph unicode="&#xe1;" horiz-adv-x="985" d="M102 260q0 140 107 209q69 43 201 68l270 51q49 8 66.5 21t17.5 50v39q0 129 -67 193.5t-222 64.5q-301 0 -301 -276l-45 29q-1 137 93 212.5t253 75.5q183 0 262 -79q36 -36 54 -90t18 -148v-494q0 -98 31 -131q26 -26 78 -26q28 0 49 6v-43q-24 -6 -62 -6 q-80 0 -110.5 43.5t-30.5 128.5q0 53 2 73h-2q-12 -49 -38 -92t-67.5 -81t-106.5 -60.5t-146 -22.5q-148 0 -226 79t-78 206zM152 262q0 -118 73 -181t197 -63q177 0 278 148q64 99 64 260v147q-19 -17 -162 -43l-147 -26q-59 -10 -94 -18.5t-80 -27.5t-72 -46 q-57 -57 -57 -150zM389 1114l244 279h63l-252 -279h-55z" />
<glyph unicode="&#xe2;" horiz-adv-x="985" d="M102 260q0 140 107 209q69 43 201 68l270 51q49 8 66.5 21t17.5 50v39q0 129 -67 193.5t-222 64.5q-301 0 -301 -276l-45 29q-1 137 93 212.5t253 75.5q183 0 262 -79q36 -36 54 -90t18 -148v-494q0 -98 31 -131q26 -26 78 -26q28 0 49 6v-43q-24 -6 -62 -6 q-80 0 -110.5 43.5t-30.5 128.5q0 53 2 73h-2q-12 -49 -38 -92t-67.5 -81t-106.5 -60.5t-146 -22.5q-148 0 -226 79t-78 206zM152 262q0 -118 73 -181t197 -63q177 0 278 148q64 99 64 260v147q-19 -17 -162 -43l-147 -26q-59 -10 -94 -18.5t-80 -27.5t-72 -46 q-57 -57 -57 -150zM217 1114l252 279h53l254 -279h-55l-225 240l-224 -240h-55z" />
<glyph unicode="&#xe3;" horiz-adv-x="985" d="M102 260q0 140 107 209q69 43 201 68l270 51q49 8 66.5 21t17.5 50v39q0 129 -67 193.5t-222 64.5q-301 0 -301 -276l-45 29q-1 137 93 212.5t253 75.5q183 0 262 -79q36 -36 54 -90t18 -148v-494q0 -98 31 -131q26 -26 78 -26q28 0 49 6v-43q-24 -6 -62 -6 q-80 0 -110.5 43.5t-30.5 128.5q0 53 2 73h-2q-12 -49 -38 -92t-67.5 -81t-106.5 -60.5t-146 -22.5q-148 0 -226 79t-78 206zM152 262q0 -118 73 -181t197 -63q177 0 278 148q64 99 64 260v147q-19 -17 -162 -43l-147 -26q-59 -10 -94 -18.5t-80 -27.5t-72 -46 q-57 -57 -57 -150zM180 1161q13 53 55.5 96t110.5 43q54 0 154 -51q96 -49 143 -49q78 0 117 94l35 -14q-41 -121 -154 -121q-60 0 -156 49q-44 21 -61.5 29t-41 15.5t-42.5 7.5q-47 0 -77 -33t-44 -80z" />
<glyph unicode="&#xe4;" horiz-adv-x="985" d="M102 260q0 140 107 209q69 43 201 68l270 51q49 8 66.5 21t17.5 50v39q0 129 -67 193.5t-222 64.5q-301 0 -301 -276l-45 29q-1 137 93 212.5t253 75.5q183 0 262 -79q36 -36 54 -90t18 -148v-494q0 -98 31 -131q26 -26 78 -26q28 0 49 6v-43q-24 -6 -62 -6 q-80 0 -110.5 43.5t-30.5 128.5q0 53 2 73h-2q-12 -49 -38 -92t-67.5 -81t-106.5 -60.5t-146 -22.5q-148 0 -226 79t-78 206zM152 262q0 -118 73 -181t197 -63q177 0 278 148q64 99 64 260v147q-19 -17 -162 -43l-147 -26q-59 -10 -94 -18.5t-80 -27.5t-72 -46 q-57 -57 -57 -150zM276 1147v199h46v-199h-46zM666 1147v199h45v-199h-45z" />
<glyph unicode="&#xe5;" horiz-adv-x="985" d="M102 260q0 140 107 209q69 43 201 68l270 51q49 8 66.5 21t17.5 50v39q0 129 -67 193.5t-222 64.5q-301 0 -301 -276l-45 29q-1 137 93 212.5t253 75.5q183 0 262 -79q36 -36 54 -90t18 -148v-494q0 -98 31 -131q26 -26 78 -26q28 0 49 6v-43q-24 -6 -62 -6 q-80 0 -110.5 43.5t-30.5 128.5q0 53 2 73h-2q-12 -49 -38 -92t-67.5 -81t-106.5 -60.5t-146 -22.5q-148 0 -226 79t-78 206zM152 262q0 -118 73 -181t197 -63q177 0 278 148q64 99 64 260v147q-19 -17 -162 -43l-147 -26q-59 -10 -94 -18.5t-80 -27.5t-72 -46 q-57 -57 -57 -150zM315 1270q0 71 49 118.5t119 47.5t119 -47.5t49 -118.5t-49 -118.5t-119 -47.5t-119 47.5t-49 118.5zM354 1270q0 -54 38 -91.5t91 -37.5t90 37.5t37 91.5t-37 91.5t-90 37.5t-91 -37.5t-38 -91.5z" />
<glyph unicode="&#xe6;" horiz-adv-x="1689" d="M102 260q0 140 107 209q69 43 201 68l270 51q49 8 66.5 21t17.5 50v39q0 129 -67 193.5t-222 64.5q-301 0 -301 -276l-45 29q-1 137 93 212.5t253 75.5q183 0 262 -79q60 -63 70 -179q50 123 145 191.5t224 68.5q185 0 297.5 -127.5t115.5 -357.5h-782v-18 q0 -217 101.5 -347.5t285.5 -130.5q247 0 350 252l37 -37q-49 -115 -145.5 -186.5t-243.5 -71.5t-252.5 77.5t-151.5 219.5q-11 -51 -34.5 -98.5t-66 -94.5t-115 -75.5t-166.5 -28.5q-148 0 -226 79t-78 206zM152 262q0 -118 73 -181t197 -63q177 0 278 148q64 99 64 260 v147q-19 -17 -162 -43l-147 -26q-59 -10 -94 -18.5t-80 -27.5t-72 -46q-57 -57 -57 -150zM811 557h727q-17 192 -110.5 295.5t-251.5 103.5q-155 0 -251.5 -105t-113.5 -294z" />
<glyph unicode="&#xe7;" horiz-adv-x="993" d="M109 481q0 235 110.5 376.5t310.5 141.5q134 0 232 -66.5t143 -182.5l-35 -39q-41 118 -129.5 181.5t-210.5 63.5q-171 0 -271.5 -126t-100.5 -347q0 -217 101.5 -341t270.5 -124q116 0 201.5 59t130.5 167l39 -33q-105 -224 -346 -236l-80 -90q46 11 72 11 q65 0 108 -35.5t43 -102.5q0 -80 -49 -116.5t-129 -36.5q-53 0 -96 14l14 41q44 -14 86 -14q56 0 92.5 26t36.5 84q0 54 -36.5 78.5t-92.5 24.5q-48 0 -94 -17l-18 25l96 108q-187 9 -293 146.5t-106 359.5z" />
<glyph unicode="&#xe8;" horiz-adv-x="1050" d="M109 483q0 231 116 373.5t305 142.5q186 0 301.5 -127.5t118.5 -357.5h-792v-18q0 -216 103.5 -347t287.5 -131q253 0 356 252l37 -37q-49 -114 -148 -186t-247 -72q-196 0 -317 136.5t-121 371.5zM162 557h737q-17 191 -113.5 295t-255.5 104q-156 0 -253.5 -105.5 t-114.5 -293.5zM313 1393h64l244 -279h-56z" />
<glyph unicode="&#xe9;" horiz-adv-x="1050" d="M109 483q0 231 116 373.5t305 142.5q186 0 301.5 -127.5t118.5 -357.5h-792v-18q0 -216 103.5 -347t287.5 -131q253 0 356 252l37 -37q-49 -114 -148 -186t-247 -72q-196 0 -317 136.5t-121 371.5zM162 557h737q-17 191 -113.5 295t-255.5 104q-156 0 -253.5 -105.5 t-114.5 -293.5zM422 1114l244 279h63l-252 -279h-55z" />
<glyph unicode="&#xea;" horiz-adv-x="1050" d="M109 483q0 231 116 373.5t305 142.5q186 0 301.5 -127.5t118.5 -357.5h-792v-18q0 -216 103.5 -347t287.5 -131q253 0 356 252l37 -37q-49 -114 -148 -186t-247 -72q-196 0 -317 136.5t-121 371.5zM162 557h737q-17 191 -113.5 295t-255.5 104q-156 0 -253.5 -105.5 t-114.5 -293.5zM254 1114l252 279h53l254 -279h-55l-226 240l-223 -240h-55z" />
<glyph unicode="&#xeb;" horiz-adv-x="1050" d="M109 483q0 231 116 373.5t305 142.5q186 0 301.5 -127.5t118.5 -357.5h-792v-18q0 -216 103.5 -347t287.5 -131q253 0 356 252l37 -37q-49 -114 -148 -186t-247 -72q-196 0 -317 136.5t-121 371.5zM162 557h737q-17 191 -113.5 295t-255.5 104q-156 0 -253.5 -105.5 t-114.5 -293.5zM317 1147v199h45v-199h-45zM707 1147v199h45v-199h-45z" />
<glyph unicode="&#xec;" horiz-adv-x="376" d="M-61 1393h63l244 -279h-56zM166 0v975h45v-975h-45z" />
<glyph unicode="&#xed;" horiz-adv-x="376" d="M156 1114l243 279h64l-252 -279h-55zM166 0v975h45v-975h-45z" />
<glyph unicode="&#xee;" horiz-adv-x="376" d="M-88 1114l252 279h53l254 -279h-55l-226 240l-223 -240h-55zM166 0v975h45v-975h-45z" />
<glyph unicode="&#xef;" horiz-adv-x="376" d="M-29 1147v199h45v-199h-45zM166 0v975h45v-975h-45zM360 1147v199h46v-199h-46z" />
<glyph unicode="&#xf0;" horiz-adv-x="1095" d="M111 483q0 239 110 377.5t316 138.5q299 0 387 -294l2 2q-56 299 -203 538l-381 -127l-14 43l370 121q-50 77 -88 121l45 24q58 -72 95 -127l196 64l12 -41l-184 -61q203 -336 203 -738q0 -117 -26.5 -216t-78.5 -174.5t-136.5 -118t-194.5 -42.5q-201 0 -315.5 137 t-114.5 373zM166 485q0 -219 102 -344t273 -125q169 0 275 126.5t106 342.5q0 220 -104 345.5t-277 125.5q-184 0 -279.5 -123.5t-95.5 -347.5z" />
<glyph unicode="&#xf1;" horiz-adv-x="1032" d="M166 0v975h45v-209h2q13 42 38.5 80.5t65 74.5t100.5 57t134 21q139 0 210.5 -60.5t96.5 -170.5q16 -76 16 -199v-569h-45v528q0 151 -18 232q-23 97 -85.5 146.5t-184.5 49.5q-151 0 -240.5 -107.5t-89.5 -262.5v-586h-45zM236 1161q13 54 55 96.5t110 42.5 q54 0 154 -51q96 -49 143 -49q78 0 117 94l35 -14q-41 -121 -154 -121q-59 0 -155 49q-42 21 -61 29.5t-42.5 15.5t-42.5 7q-47 0 -77 -33t-44 -80z" />
<glyph unicode="&#xf2;" horiz-adv-x="1062" d="M109 481q0 235 110.5 376.5t310.5 141.5t312 -141.5t112 -376.5q0 -229 -113 -367.5t-311 -138.5q-197 0 -309 138.5t-112 367.5zM158 483q0 -217 101.5 -341t270.5 -124q172 0 273.5 124t101.5 341q0 223 -100.5 348t-274.5 125q-171 0 -271.5 -126t-100.5 -347z M330 1393h63l244 -279h-55z" />
<glyph unicode="&#xf3;" horiz-adv-x="1062" d="M109 481q0 235 110.5 376.5t310.5 141.5t312 -141.5t112 -376.5q0 -229 -113 -367.5t-311 -138.5q-197 0 -309 138.5t-112 367.5zM158 483q0 -217 101.5 -341t270.5 -124q172 0 273.5 124t101.5 341q0 223 -100.5 348t-274.5 125q-171 0 -271.5 -126t-100.5 -347z M436 1114l244 279h63l-251 -279h-56z" />
<glyph unicode="&#xf4;" horiz-adv-x="1062" d="M109 481q0 235 110.5 376.5t310.5 141.5t312 -141.5t112 -376.5q0 -229 -113 -367.5t-311 -138.5q-197 0 -309 138.5t-112 367.5zM158 483q0 -217 101.5 -341t270.5 -124q172 0 273.5 124t101.5 341q0 223 -100.5 348t-274.5 125q-171 0 -271.5 -126t-100.5 -347z M260 1114l252 279h53l254 -279h-55l-225 240l-224 -240h-55z" />
<glyph unicode="&#xf5;" horiz-adv-x="1062" d="M109 481q0 235 110.5 376.5t310.5 141.5t312 -141.5t112 -376.5q0 -229 -113 -367.5t-311 -138.5q-197 0 -309 138.5t-112 367.5zM158 483q0 -217 101.5 -341t270.5 -124q172 0 273.5 124t101.5 341q0 223 -100.5 348t-274.5 125q-171 0 -271.5 -126t-100.5 -347z M231 1161q13 53 55.5 96t110.5 43q54 0 154 -51q96 -49 143 -49q78 0 117 94l35 -14q-41 -121 -154 -121q-59 0 -155 49q-42 21 -61 29.5t-42.5 15.5t-42.5 7q-47 0 -77 -33t-44 -80z" />
<glyph unicode="&#xf6;" horiz-adv-x="1062" d="M109 481q0 235 110.5 376.5t310.5 141.5t312 -141.5t112 -376.5q0 -229 -113 -367.5t-311 -138.5q-197 0 -309 138.5t-112 367.5zM158 483q0 -217 101.5 -341t270.5 -124q172 0 273.5 124t101.5 341q0 223 -100.5 348t-274.5 125q-171 0 -271.5 -126t-100.5 -347z M313 1147v199h45v-199h-45zM702 1147v199h46v-199h-46z" />
<glyph unicode="&#xf7;" horiz-adv-x="1714" d="M168 465v43h1378v-43h-1378zM834 0v233h45v-233h-45zM834 741v234h45v-234h-45z" />
<glyph unicode="&#xf8;" horiz-adv-x="1062" d="M109 481q0 235 110.5 376.5t310.5 141.5q181 0 293 -118l105 135l35 -29l-111 -143q102 -135 102 -363q0 -229 -113 -367.5t-311 -138.5q-162 0 -272 99l-104 -135l-33 28l106 137q-118 136 -118 377zM158 483q0 -216 98 -340l539 701q-100 112 -265 112 q-171 0 -271.5 -126t-100.5 -347zM287 111q99 -93 243 -93q172 0 273.5 124t101.5 341q0 200 -82 324z" />
<glyph unicode="&#xf9;" horiz-adv-x="1028" d="M156 389v586h45v-533q0 -85 5.5 -143.5t23.5 -115.5t49.5 -90.5t85 -54t129.5 -20.5q150 0 236.5 107.5t86.5 263.5v586h45v-975h-45v209h-2q-14 -43 -38 -81t-62.5 -74t-98.5 -57.5t-133 -21.5q-82 0 -142 23t-95 59.5t-55.5 92.5t-27.5 111.5t-7 127.5zM309 1393h64 l243 -279h-55z" />
<glyph unicode="&#xfa;" horiz-adv-x="1028" d="M156 389v586h45v-533q0 -85 5.5 -143.5t23.5 -115.5t49.5 -90.5t85 -54t129.5 -20.5q150 0 236.5 107.5t86.5 263.5v586h45v-975h-45v209h-2q-14 -43 -38 -81t-62.5 -74t-98.5 -57.5t-133 -21.5q-82 0 -142 23t-95 59.5t-55.5 92.5t-27.5 111.5t-7 127.5zM408 1114 l243 279h64l-252 -279h-55z" />
<glyph unicode="&#xfb;" horiz-adv-x="1028" d="M156 389v586h45v-533q0 -85 5.5 -143.5t23.5 -115.5t49.5 -90.5t85 -54t129.5 -20.5q150 0 236.5 107.5t86.5 263.5v586h45v-975h-45v209h-2q-14 -43 -38 -81t-62.5 -74t-98.5 -57.5t-133 -21.5q-82 0 -142 23t-95 59.5t-55.5 92.5t-27.5 111.5t-7 127.5zM242 1114 l252 279h53l254 -279h-56l-225 240l-223 -240h-55z" />
<glyph unicode="&#xfc;" horiz-adv-x="1028" d="M156 389v586h45v-533q0 -85 5.5 -143.5t23.5 -115.5t49.5 -90.5t85 -54t129.5 -20.5q150 0 236.5 107.5t86.5 263.5v586h45v-975h-45v209h-2q-14 -43 -38 -81t-62.5 -74t-98.5 -57.5t-133 -21.5q-82 0 -142 23t-95 59.5t-55.5 92.5t-27.5 111.5t-7 127.5zM301 1147v199 h45v-199h-45zM690 1147v199h45v-199h-45z" />
<glyph unicode="&#xfd;" horiz-adv-x="868" d="M43 -334q39 -28 98 -28q48 0 78 18q32 18 55 53.5t50 102.5l82 208l-349 955h52l251 -694q13 -35 27.5 -77t26 -78.5t14.5 -43.5h2q2 8 80 205l264 688h47l-426 -1100q-53 -136 -82 -184q-60 -97 -178 -97q-48 0 -92 19v53zM371 1114l243 279h64l-252 -279h-55z" />
<glyph unicode="&#xfe;" horiz-adv-x="1089" d="M166 -389v1782h45v-670h2q12 51 39.5 97.5t70 87.5t107.5 66t143 25q193 0 299.5 -138t106.5 -378q0 -233 -110 -370.5t-296 -137.5q-67 0 -122.5 16t-93.5 41.5t-67.5 61t-47 70t-29.5 74.5h-2v-627h-45zM205 479q0 -218 99 -339.5t265 -121.5q169 0 265 123t96 346 q0 225 -99 347t-264 122q-162 0 -262 -127t-100 -350z" />
<glyph unicode="&#xff;" horiz-adv-x="868" d="M43 -334q39 -28 98 -28q48 0 78 18q32 18 55 53.5t50 102.5l82 208l-349 955h52l251 -694q13 -35 27.5 -77t26 -78.5t14.5 -43.5h2q2 8 80 205l264 688h47l-426 -1100q-53 -136 -82 -184q-60 -97 -178 -97q-48 0 -92 19v53zM240 1147v199h45v-199h-45zM629 1147v199h45 v-199h-45z" />
<glyph unicode="&#x152;" horiz-adv-x="2045" d="M119 692q0 185 56 326t156.5 227t231 129t287.5 43q117 0 237 -24h842v-43h-792v-609h718v-43h-718v-655h833v-43h-880q-128 -25 -246 -25q-122 0 -228.5 25t-198.5 80.5t-157.5 138t-103 203.5t-37.5 270zM164 692q0 -323 185 -498.5t491 -175.5q134 0 250 27v1301 q-107 24 -242 24q-113 0 -212.5 -23t-187 -75t-150 -129.5t-98.5 -192.5t-36 -258z" />
<glyph unicode="&#x153;" horiz-adv-x="1826" d="M111 481q0 236 108 377t307 141q157 0 254.5 -88t137.5 -241q42 154 145.5 241.5t249.5 87.5q185 0 297.5 -127.5t115.5 -357.5h-782v-18q0 -217 101.5 -347.5t285.5 -130.5q247 0 350 252l37 -37q-49 -115 -145.5 -186.5t-243.5 -71.5q-153 0 -261.5 84t-149.5 236 q-41 -149 -137.5 -234.5t-254.5 -85.5q-196 0 -305.5 138t-109.5 368zM160 483q0 -218 98.5 -341.5t267.5 -123.5q171 0 270 124t99 341q0 224 -97.5 348.5t-271.5 124.5q-171 0 -268.5 -125.5t-97.5 -347.5zM948 557h727q-17 192 -110.5 295.5t-251.5 103.5 q-155 0 -251.5 -105t-113.5 -294z" />
<glyph unicode="&#x178;" horiz-adv-x="1097" d="M31 1393h53l465 -754l473 754h53l-506 -799l2 -594h-45v594zM328 1591v199h45v-199h-45zM717 1591v199h45v-199h-45z" />
<glyph unicode="&#x2c6;" horiz-adv-x="962" d="M211 1114l252 279h53l254 -279h-55l-226 240l-223 -240h-55z" />
<glyph unicode="&#x2dc;" horiz-adv-x="962" d="M174 1161q13 53 55.5 96t110.5 43q54 0 154 -51q96 -49 143 -49q78 0 117 94l34 -14q-41 -121 -153 -121q-60 0 -156 49q-44 21 -61.5 29t-41 15.5t-42.5 7.5q-47 0 -77 -33t-44 -80z" />
<glyph unicode="&#x2000;" horiz-adv-x="931" />
<glyph unicode="&#x2001;" horiz-adv-x="1862" />
<glyph unicode="&#x2002;" horiz-adv-x="931" />
<glyph unicode="&#x2003;" horiz-adv-x="1862" />
<glyph unicode="&#x2004;" horiz-adv-x="620" />
<glyph unicode="&#x2005;" horiz-adv-x="465" />
<glyph unicode="&#x2006;" horiz-adv-x="310" />
<glyph unicode="&#x2007;" horiz-adv-x="310" />
<glyph unicode="&#x2008;" horiz-adv-x="232" />
<glyph unicode="&#x2009;" horiz-adv-x="372" />
<glyph unicode="&#x200a;" horiz-adv-x="103" />
<glyph unicode="&#x2010;" horiz-adv-x="849" d="M141 526v43h568v-43h-568z" />
<glyph unicode="&#x2011;" horiz-adv-x="849" d="M141 526v43h568v-43h-568z" />
<glyph unicode="&#x2012;" horiz-adv-x="849" d="M141 526v43h568v-43h-568z" />
<glyph unicode="&#x2013;" horiz-adv-x="1323" d="M141 526v43h1041v-43h-1041z" />
<glyph unicode="&#x2014;" horiz-adv-x="1714" d="M141 526v43h1432v-43h-1432z" />
<glyph unicode="&#x2018;" horiz-adv-x="346" d="M141 854v293q0 107 22 169t73 97v-53q-50 -50 -50 -203v-303h-45z" />
<glyph unicode="&#x2019;" horiz-adv-x="346" d="M121 834v53q49 49 49 203v303h45v-293q0 -108 -21.5 -169.5t-72.5 -96.5z" />
<glyph unicode="&#x201a;" horiz-adv-x="327" d="M92 -272q26 26 37.5 72.5t11.5 129.5v303h45v-292q0 -108 -21.5 -170t-72.5 -97v54z" />
<glyph unicode="&#x201c;" horiz-adv-x="555" d="M141 854v293q0 107 22 169t73 97v-53q-50 -50 -50 -203v-303h-45zM350 854v293q0 108 21.5 169.5t72.5 96.5v-53q-49 -49 -49 -203v-303h-45z" />
<glyph unicode="&#x201d;" horiz-adv-x="555" d="M121 834v53q49 49 49 203v303h45v-293q0 -108 -21.5 -169.5t-72.5 -96.5zM330 834v53q49 49 49 203v303h45v-293q0 -108 -21.5 -169.5t-72.5 -96.5z" />
<glyph unicode="&#x201e;" horiz-adv-x="536" d="M92 -272q26 26 37.5 72.5t11.5 129.5v303h45v-292q0 -108 -21.5 -170t-72.5 -97v54zM301 -272q26 26 37.5 72.5t11.5 129.5v303h45v-292q0 -108 -21.5 -170t-72.5 -97v54z" />
<glyph unicode="&#x2022;" horiz-adv-x="679" d="M180 702q0 64 46.5 110t111.5 46q66 0 114 -46t48 -110q0 -67 -47.5 -113t-114.5 -46q-65 0 -111.5 46t-46.5 113z" />
<glyph unicode="&#x2026;" horiz-adv-x="1693" d="M141 0v233h45v-233h-45zM823 0v233h45v-233h-45zM1507 0v233h45v-233h-45z" />
<glyph unicode="&#x202f;" horiz-adv-x="372" />
<glyph unicode="&#x2039;" horiz-adv-x="520" d="M106 565v39l291 342v-65l-254 -293l254 -299v-66z" />
<glyph unicode="&#x203a;" horiz-adv-x="520" d="M123 223v66l254 299l-254 293v65l291 -342v-39z" />
<glyph unicode="&#x205f;" horiz-adv-x="465" />
<glyph unicode="&#x20ac;" horiz-adv-x="1257" d="M84 514l12 41h148q-6 67 -6 139t6 140h-160l12 40h152q16 121 52.5 219t94.5 171t142.5 113t189.5 40q302 0 420 -323l-41 -25q-112 305 -379 305q-181 0 -291 -136t-141 -364h577l-14 -40h-567q-6 -65 -6 -136q0 -76 6 -143h477l-14 -41h-459q13 -108 42.5 -194.5 t80 -156t129 -107.5t180.5 -38q285 0 385 299l37 -26q-116 -316 -422 -316q-112 0 -198.5 41t-143 116.5t-90 169.5t-47.5 212h-164z" />
<glyph unicode="&#x2122;" horiz-adv-x="1816" d="M102 1350v43h656v-43h-305v-852h-45v852h-306zM928 498v895h67l234 -650l65 -196h2q29 98 62 196l217 650h65v-895h-45v635l2 198h-2q-22 -71 -47 -145l-231 -688h-47l-246 684l-53 157h-2q4 -151 4 -225v-616h-45z" />
<glyph unicode="&#x25fc;" horiz-adv-x="972" d="M0 0v973h973v-973h-973z" />
</font>
</defs>
</svg>
