<?xml version="1.0" standalone="no"?>
<!DOCTYPE svg PUBLIC "-//W3C//DTD SVG 1.1//EN" "http://www.w3.org/Graphics/SVG/1.1/DTD/svg11.dtd" >
<svg xmlns="http://www.w3.org/2000/svg">
<metadata></metadata>
<defs>
<font id="theinhardtthin_italic" horiz-adv-x="1208" >
<font-face units-per-em="2048" ascent="1642" descent="-406" />
<missing-glyph horiz-adv-x="409" />
<glyph unicode="&#xfb01;" horiz-adv-x="974" d="M106 909l13 66h225l49 231q22 103 76 154q63 57 164 57q81 0 151 -28l-16 -66q-71 27 -139 27q-73 0 -111 -35q-37 -34 -59 -148l-39 -192h225l-12 -66h-225q-184 -854 -195 -909h-76l195 909h-226zM623 0l206 975h76l-207 -975h-75zM872 1178l48 215h75l-47 -215h-76z " />
<glyph unicode="&#xfb02;" horiz-adv-x="993" d="M106 909l13 66h225l49 231q22 103 76 154q63 57 164 57q81 0 151 -28l-16 -66q-71 27 -139 27q-73 0 -111 -35q-37 -34 -59 -148l-39 -192h225l-12 -66h-225q-184 -854 -195 -909h-76l195 909h-226zM623 0l297 1393h75l-297 -1393h-75z" />
<glyph horiz-adv-x="2048" />
<glyph horiz-adv-x="2048" />
<glyph unicode="&#xd;" horiz-adv-x="2048" />
<glyph unicode=" "  horiz-adv-x="409" />
<glyph unicode="&#x09;" horiz-adv-x="409" />
<glyph unicode="&#xa0;" horiz-adv-x="409" />
<glyph unicode="!" horiz-adv-x="425" d="M37 0l49 233h104l-49 -233h-104zM139 360l58 330l149 703h80l-150 -703l-81 -330h-56z" />
<glyph unicode="&#x22;" horiz-adv-x="585" d="M203 836l57 352l43 205h76l-43 -205l-90 -352h-43zM446 836l58 352l43 205h76l-43 -205l-91 -352h-43z" />
<glyph unicode="#" horiz-adv-x="1398" d="M88 426l6 70h344l92 383h-368l4 71h381l106 443h78l-106 -443h303l106 443h78l-106 -443h350l-4 -71h-365l-90 -383h385l-6 -70h-395l-103 -426h-78l103 426h-303l-103 -426h-78l103 426h-334zM516 496h303l92 383h-305z" />
<glyph unicode="$" horiz-adv-x="1175" d="M49 346l66 51q87 -250 319 -311l131 610l-71 27q-33 12 -55 20.5t-56 25t-56.5 33t-49 42.5t-42 54t-26 67t-10.5 84q0 157 120.5 252.5t325.5 95.5q22 0 68 -4l35 159h75l-35 -174q122 -28 207.5 -93.5t128.5 -154.5l-59 -55q-41 89 -117 149t-176 85l-121 -564l88 -32 q56 -20 94.5 -36.5t84.5 -45t74 -61t47.5 -81.5t19.5 -108q0 -79 -29 -147.5t-85 -122t-148 -84.5t-209 -31q-50 0 -96 6l-43 -201h-76l45 213q-133 32 -228 118t-141 214zM281 1063q0 -62 19 -107.5t61 -78t84 -52.5t112 -45l23 -10l118 551q-36 4 -55 4q-76 0 -140 -15.5 t-114.5 -46t-79 -82t-28.5 -118.5zM506 72q27 -4 84 -4q185 0 286 79t101 226q0 48 -16 87.5t-41 67t-67 52.5t-81 41.5t-96 35.5l-41 15z" />
<glyph unicode="%" horiz-adv-x="1884" d="M147 858q0 100 26 198t73.5 178t121.5 129.5t162 49.5q44 0 85.5 -14.5t81.5 -47t64.5 -97t24.5 -152.5q0 -102 -25.5 -202t-71.5 -182t-119.5 -132.5t-161.5 -50.5q-131 0 -196 85t-65 238zM219 866q0 -136 54 -199t143 -63t158.5 73.5t104.5 181.5t36 224 q0 119 -50 189.5t-143 70.5q-74 0 -134 -45t-95.5 -117t-54.5 -153.5t-19 -161.5zM451 0l931 1393h84l-931 -1393h-84zM1147 297q0 100 26 198t73.5 178t121.5 129.5t162 49.5q44 0 85.5 -14.5t81.5 -47t64.5 -97t24.5 -152.5q0 -102 -25.5 -202t-72 -182t-120 -133 t-161.5 -51q-131 0 -195.5 85.5t-64.5 238.5zM1219 305q0 -137 53.5 -199.5t142.5 -62.5t158.5 73.5t104.5 181.5t36 224q0 119 -49.5 189.5t-142.5 70.5q-74 0 -134 -45t-95.5 -117t-54.5 -153.5t-19 -161.5z" />
<glyph unicode="&#x26;" horiz-adv-x="1239" d="M47 322q0 58 14.5 108t45.5 92.5t67.5 77t93.5 69.5t109 62t129 62q-51 108 -73.5 178t-22.5 151q0 133 88.5 225.5t238.5 92.5q128 0 200.5 -70.5t72.5 -173.5q0 -131 -95.5 -234.5t-308.5 -201.5q129 -246 281 -451q107 156 178 328l57 -41q-81 -187 -192 -338 q105 -150 198 -258h-98q-50 59 -151 199q-42 -46 -79 -78.5t-94.5 -70t-130.5 -57.5t-157 -20q-166 0 -268.5 96t-102.5 253zM125 340q0 -134 84 -215.5t229 -81.5q125 0 225 60t173 147q-165 229 -299 485q-175 -82 -240 -125q-157 -103 -171 -241q-1 -14 -1 -29zM487 1124 q0 -27 2.5 -52.5t10 -52.5t12 -44.5t16.5 -46l16 -38t18.5 -39.5t15.5 -32q171 74 263.5 164.5t92.5 208.5q0 86 -55.5 135t-147.5 49q-109 0 -176.5 -71.5t-67.5 -180.5z" />
<glyph unicode="'" horiz-adv-x="342" d="M203 836l57 352l43 205h76l-43 -205l-90 -352h-43z" />
<glyph unicode="(" horiz-adv-x="489" d="M66 248q0 621 485 1161l74 -10q-226 -249 -355 -548t-129 -615q0 -282 95 -572l-72 -12q-98 279 -98 596z" />
<glyph unicode=")" horiz-adv-x="487" d="M-158 -338q226 249 355 548t129 615q0 288 -93 572l68 12q100 -285 100 -596q0 -625 -481 -1161z" />
<glyph unicode="*" horiz-adv-x="768" d="M217 1221l39 65l213 -133l43 248l76 -17l-60 -243l248 37l6 -78l-247 -19l112 -225l-74 -29l-96 228l-178 -172l-51 57l188 160z" />
<glyph unicode="+" horiz-adv-x="1345" d="M78 569v68h565v577h68v-577h567v-68h-567v-569h-68v569h-565z" />
<glyph unicode="," horiz-adv-x="370" d="M-55 -317l14 65q29 10 47 56.5t35 134.5l12 61h-39l52 236h98l-58 -271q-9 -44 -13 -63t-13.5 -55.5t-16.5 -53.5t-19.5 -41.5t-26 -35.5t-32 -21t-40.5 -12z" />
<glyph unicode="-" horiz-adv-x="829" d="M117 510l14 74h567l-14 -74h-567z" />
<glyph unicode="." horiz-adv-x="368" d="M14 0l52 233h98l-51 -233h-99z" />
<glyph unicode="/" horiz-adv-x="702" d="M-31 0l736 1393h81l-733 -1393h-84z" />
<glyph unicode="0" d="M109 500q0 134 26.5 265t79.5 248.5t127 207t176 142.5t219 54q56 0 109.5 -13.5t110 -49t98.5 -91t69 -147.5t27 -209q0 -133 -25.5 -265t-78 -252.5t-125.5 -212.5t-175.5 -147t-220.5 -55q-139 0 -234 66.5t-139 182.5t-44 276zM186 512q1 -125 28.5 -217.5t77 -145.5 t110.5 -78.5t135 -25.5q120 0 222.5 76t169 198t104 269.5t38.5 296.5q0 210 -88.5 335.5t-253.5 125.5q-89 0 -167.5 -37t-136.5 -100.5t-104 -146t-75 -176.5t-44 -188.5t-16 -185.5z" />
<glyph unicode="1" d="M410 1028l14 68h31q158 0 250 59q112 70 155 238h66l-299 -1393h-78l250 1161q-91 -135 -332 -135q-51 0 -57 2z" />
<glyph unicode="2" d="M39 0l12 59q105 62 272 174t312 220q72 54 120.5 92.5t109 98.5t96.5 114t61 125t25 145q0 146 -94 232t-253 86q-93 0 -166.5 -30.5t-119 -83.5t-69 -120.5t-23.5 -144.5q0 -61 14 -127l-82 32q-10 44 -10 103q0 186 127 314t331 128q195 0 309.5 -104.5t114.5 -274.5 q0 -92 -33.5 -179.5t-75 -149t-125.5 -138t-134.5 -115.5t-152.5 -112q-7 -5 -11 -8q-57 -40 -127.5 -86t-119 -76.5t-102 -64t-63.5 -39.5l2 -4q206 4 353 4h438l-12 -70h-924z" />
<glyph unicode="3" d="M82 338l78 39q5 -87 36 -152t83 -103.5t116.5 -56.5t143.5 -18q82 0 152.5 20t127 60t89 108t32.5 156q0 120 -82 199q-73 71 -171.5 91.5t-242.5 20.5h-51l15 68h133q199 0 297 49q163 83 163 262q0 117 -86.5 191t-232.5 74q-147 0 -249.5 -83.5t-115.5 -222.5l-71 35 q14 140 134.5 241t309.5 101q96 0 173 -27.5t125 -74.5t73.5 -105.5t25.5 -122.5q0 -139 -92 -236t-266 -118l-2 -2q133 -31 214 -119t81 -221q0 -82 -30.5 -155.5t-88 -132t-151.5 -93.5t-211 -35q-206 0 -326.5 96t-132.5 267z" />
<glyph unicode="4" d="M51 379l12 61l844 953h76l-201 -940h305l-16 -74h-305l-82 -379h-76l80 379h-637zM166 451q195 2 297 2h242l114 536q31 151 70 289h-2q-63 -85 -234 -277l-288 -327l-199 -221v-2z" />
<glyph unicode="5" d="M109 293l73 41q29 -140 131 -216.5t232 -76.5q81 0 156.5 30.5t136 87t97 147.5t36.5 202q0 88 -28.5 157.5t-76.5 111t-107.5 62.5t-125.5 21q-126 0 -233 -70.5t-148 -195.5l-70 27l197 772h725l-19 -74h-651l-145 -561l2 -4q53 82 148.5 129t213.5 47 q80 0 150.5 -25.5t126.5 -75t88.5 -130t32.5 -183.5q0 -131 -43.5 -236.5t-116 -170.5t-161.5 -99.5t-185 -34.5q-163 0 -279.5 80.5t-156.5 237.5z" />
<glyph unicode="6" d="M143 481q0 151 28.5 291.5t84 257t131 203.5t175 135.5t210.5 48.5q147 0 248 -81t137 -214l-72 -55q-29 134 -115 206.5t-208 72.5q-193 0 -332.5 -174.5t-191.5 -458.5h2q68 94 176 145t229 51q103 0 185 -34.5t133 -93t77.5 -132t26.5 -155.5q0 -76 -20 -150 t-61 -140.5t-99 -117.5t-139.5 -81t-176.5 -30q-196 0 -312 130.5t-116 375.5zM221 504q0 -221 96.5 -340t264.5 -119q93 0 171 38t127.5 100t77 139t27.5 157q0 89 -29 159.5t-79.5 113.5t-113.5 65.5t-134 22.5q-78 0 -153.5 -26t-142.5 -81t-108 -131q-4 -35 -4 -98z" />
<glyph unicode="7" d="M240 991l86 402h944l-13 -60q-600 -663 -798 -1333h-84q46 169 130 351.5t190 352.5t221.5 324t238.5 291h-770l-70 -328h-75z" />
<glyph unicode="8" d="M74 354q0 164 109.5 274t281.5 134v2q-95 33 -155 106.5t-60 190.5q0 145 127.5 250.5t329.5 105.5q186 0 304.5 -90.5t118.5 -232.5q0 -143 -91.5 -237.5t-241.5 -113.5l-2 -2q262 -96 262 -350q0 -182 -137 -299t-367 -117q-221 0 -350 99t-129 280zM158 365 q0 -147 101.5 -232.5t285.5 -85.5q196 0 313 91t117 253q0 149 -107.5 236.5t-287.5 87.5q-105 0 -188 -29t-133 -78.5t-75.5 -111.5t-25.5 -131zM334 1061q0 -123 84.5 -200t253.5 -77q181 0 278 84.5t97 221.5q0 117 -92 188.5t-250 71.5q-177 -1 -274 -84t-97 -205z" />
<glyph unicode="9" d="M100 270l72 56q29 -134 115.5 -206.5t208.5 -72.5q193 0 332.5 174.5t191.5 458.5h-2q-68 -94 -176.5 -145.5t-229.5 -51.5q-103 0 -185 34.5t-133 93t-77.5 132.5t-26.5 156q0 96 32.5 187t92.5 165.5t156.5 120t214.5 45.5q196 0 312 -130.5t116 -375.5 q0 -151 -28.5 -291.5t-84 -257t-131 -203.5t-175 -135.5t-210.5 -48.5q-147 0 -248 81t-137 214zM272 913q0 -89 29.5 -159.5t79.5 -113.5t113.5 -65t134.5 -22q120 0 231 62t172 176q4 35 4 98q0 221 -96 340t-264 119q-93 0 -171.5 -38t-128 -100.5t-77 -139.5t-27.5 -157 z" />
<glyph unicode=":" horiz-adv-x="405" d="M31 0l51 233h98l-51 -233h-98zM186 741l52 234h98l-51 -234h-99z" />
<glyph unicode=";" horiz-adv-x="423" d="M-63 -293q60 69 91 128t50 138l6 27h-39l51 233h99l-35 -163q-29 -135 -52.5 -199.5t-76.5 -136.5q-25 -32 -51 -62zM201 741l51 234h98l-51 -234h-98z" />
<glyph unicode="&#x3c;" horiz-adv-x="1720" d="M96 649v78l1442 678v-82l-1343 -635l1343 -639v-82z" />
<glyph unicode="=" horiz-adv-x="1830" d="M217 383v68h1378v-68h-1378zM217 739v68h1378v-68h-1378z" />
<glyph unicode="&#x3e;" horiz-adv-x="1714" d="M223 -33v82l1344 639l-1344 635v82l1442 -678v-78z" />
<glyph unicode="?" horiz-adv-x="935" d="M170 1016q0 168 119.5 284.5t312.5 116.5q170 0 267.5 -91t97.5 -232q0 -96 -49.5 -186.5t-145.5 -164.5l-186 -143q-38 -28 -64 -54t-41 -45t-26.5 -47.5t-16.5 -46.5t-14 -57l-4 -22h-82q20 115 61.5 183.5t137.5 141.5l163 121q94 70 140.5 151t46.5 162 q0 117 -77 188t-220 71q-160 0 -251 -99.5t-91 -242.5q0 -69 16 -121l-84 28q-10 58 -10 105zM276 0l37 172h86l-37 -172h-86z" />
<glyph unicode="@" horiz-adv-x="1654" d="M80 371q0 131 36 261.5t109.5 247.5t175 207.5t243 143.5t302.5 53q124 0 226.5 -33t172 -89.5t117.5 -133t70 -161t22 -175.5q0 -77 -17.5 -160t-54.5 -164t-88 -145t-125 -103.5t-159 -39.5q-57 0 -88 25t-31 71q0 35 6 51h-2q-37 -68 -111.5 -112.5t-166.5 -44.5 q-113 0 -175.5 59t-62.5 158q0 83 45 145q68 87 262 117l220 35q41 8 56 18t21 39q11 46 11 84q0 65 -45.5 101t-161.5 36q-114 0 -179.5 -55.5t-78.5 -147.5l-60 39q11 71 62 123t120.5 76.5t147.5 24.5q52 0 96 -9t82 -29t60 -56.5t22 -86.5q0 -47 -18 -135l-68 -317 q-14 -60 -14 -92q0 -62 65 -62q97 1 180 80.5t130 206t47 266.5q0 83 -19 158.5t-61.5 144t-104.5 119t-155 80t-207 29.5q-145 0 -272 -49t-218 -132t-156.5 -191t-97.5 -227.5t-32 -240.5q0 -125 37 -234.5t109 -196.5t191.5 -137.5t272.5 -50.5q167 0 330.5 69.5 t281.5 195.5l19 -68q-119 -128 -288 -197t-345 -69q-138 0 -252.5 37t-193.5 101t-134 151t-80.5 185t-25.5 206zM549 297q0 -82 47 -124t133 -42q110 0 192 70.5t113 214.5l29 129q-31 -16 -127 -29l-119 -20q-52 -9 -82 -15.5t-70.5 -21.5t-62 -34t-37.5 -52t-16 -76z" />
<glyph unicode="A" horiz-adv-x="1202" d="M-84 0l817 1393h92l228 -1393h-80l-70 438h-645l-250 -438h-92zM303 512h586l-86 541q-34 215 -37 266q-98 -182 -145 -264z" />
<glyph unicode="B" horiz-adv-x="1366" d="M66 0l294 1393h521q191 0 288 -54q64 -34 95.5 -97t31.5 -142q0 -148 -83.5 -253t-229.5 -120v-4q117 -26 177.5 -104.5t60.5 -192.5q0 -110 -54.5 -211t-158.5 -158q-55 -31 -120 -44t-202 -13h-620zM160 74h594q108 0 194 35q99 44 145 131t46 192q0 176 -160 232 q-62 24 -217 24h-471zM305 758h492q195 0 284 61q65 46 100.5 110t35.5 163q0 63 -23.5 108t-68.5 70t-101 36t-129 11h-467z" />
<glyph unicode="C" horiz-adv-x="1304" d="M127 549q0 131 30 257.5t90 236.5t143 193.5t196.5 132t242.5 48.5q178 0 301 -90.5t168 -259.5l-71 -47q-37 156 -141.5 241t-268.5 85q-96 0 -182 -33.5t-152 -91.5t-119 -134t-87 -163t-52 -177t-18 -176q0 -248 109 -386t323 -138q161 0 286 90t203 240l64 -47 q-91 -165 -235 -260t-336 -95q-236 0 -365 151t-129 423z" />
<glyph unicode="D" horiz-adv-x="1400" d="M63 0l297 1393h291q274 0 434 -72q242 -115 242 -430q0 -158 -41 -310.5t-126 -282.5t-202 -198q-99 -57 -212 -78.5t-273 -21.5h-410zM162 76h321q154 0 256.5 19t190.5 77q80 54 142.5 142.5t98.5 188t54 197t18 185.5q0 274 -211 372q-126 60 -348 60h-256z" />
<glyph unicode="E" horiz-adv-x="1171" d="M63 0l297 1393h873l-16 -76h-793l-119 -559h719l-16 -76h-719l-129 -606h833l-16 -76h-914z" />
<glyph unicode="F" horiz-adv-x="1067" d="M63 0l297 1393h830l-16 -76h-750l-119 -559h676l-16 -76h-676l-146 -682h-80z" />
<glyph unicode="G" horiz-adv-x="1376" d="M127 549q0 131 30 257.5t90 236.5t143 193.5t196 132t241 48.5q178 0 303 -91.5t170 -260.5l-75 -45q-37 156 -141 241t-267 85q-96 0 -182 -33.5t-152 -91.5t-119 -134t-87 -163t-52 -177t-18 -176q0 -249 110 -386.5t328 -137.5q167 0 299.5 90.5t190.5 247.5 q22 62 41 156l14 69h-477l14 76h555l-145 -686h-80l51 231h-2q-32 -52 -69 -92.5t-94 -80t-139 -61.5t-183 -22q-236 0 -365 151t-129 423z" />
<glyph unicode="H" horiz-adv-x="1382" d="M63 0l297 1393h80l-135 -633h848l135 633h80l-297 -1393h-80l146 682h-848l-146 -682h-80z" />
<glyph unicode="I" horiz-adv-x="454" d="M63 0l297 1393h80l-297 -1393h-80z" />
<glyph unicode="J" horiz-adv-x="983" d="M-23 295q0 20 3 47l81 33q-4 -20 -4 -66q0 -123 70 -198.5t211 -75.5q111 0 180 46.5t111 137.5q28 60 65 217l205 957h80l-199 -934q-25 -116 -45.5 -185.5t-50.5 -123.5q-52 -87 -133.5 -134t-212.5 -47q-175 0 -268 87.5t-93 238.5z" />
<glyph unicode="K" horiz-adv-x="1251" d="M63 0l297 1393h80l-178 -828l1000 828h118l-680 -559l414 -834h-96l-381 786l-393 -331l-101 -455h-80z" />
<glyph unicode="L" horiz-adv-x="1075" d="M63 0l297 1393h80l-280 -1317h794l-16 -76h-875z" />
<glyph unicode="M" horiz-adv-x="1574" d="M66 0l294 1393h105l192 -1102q6 -34 15 -82t13.5 -77.5t6.5 -53.5h2q62 122 115 213l635 1102h117l-297 -1393h-80l194 909q59 285 97 410h-2q-45 -92 -185 -334l-565 -985h-88l-172 969q-40 212 -51 342h-2q-18 -139 -66 -373l-199 -938h-79z" />
<glyph unicode="N" horiz-adv-x="1394" d="M63 0l299 1393h76l494 -1051l102 -221h2q27 151 60 307l204 965h80l-295 -1393h-77l-516 1100q-17 36 -36.5 80t-30.5 70l-11 26h-2q-18 -111 -45 -232l-224 -1044h-80z" />
<glyph unicode="O" horiz-adv-x="1400" d="M127 549q0 131 30 257.5t90.5 236.5t143.5 193.5t197 132t243 48.5q225 0 360.5 -143.5t135.5 -403.5q0 -110 -20 -217.5t-58 -208t-98.5 -185.5t-137 -148.5t-177 -99.5t-215.5 -36q-236 0 -365 151t-129 423zM207 571q0 -248 109 -386t323 -138q116 0 217 50.5 t171 132.5t120 187.5t74 215.5t24 215q0 234 -110 366t-318 132q-96 0 -182 -33.5t-152 -91.5t-119 -134t-87 -163t-52 -177t-18 -176z" />
<glyph unicode="P" horiz-adv-x="1261" d="M66 0l294 1393h482q186 0 284 -43q168 -78 168 -265q0 -52 -11 -106t-37 -115.5t-79 -114t-127 -81.5q-98 -37 -245 -37h-516l-134 -631h-79zM293 707h504q100 0 155.5 12t98.5 37q82 48 121.5 133t39.5 186q0 159 -145 213q-91 29 -221 29h-420z" />
<glyph unicode="Q" horiz-adv-x="1417" d="M127 549q0 131 30 257.5t90.5 236.5t143.5 193.5t197 132t243 48.5q225 0 360.5 -143.5t135.5 -403.5q0 -193 -59 -373t-172 -307l137 -198l-68 -45l-127 186q-176 -158 -417 -158q-236 0 -365 151t-129 423zM207 571q0 -248 109 -386t323 -138q116 0 217 50.5t171 132.5 t120 187.5t74 215.5t24 215q0 234 -110 366t-318 132q-96 0 -182 -33.5t-152 -91.5t-119 -134t-87 -163t-52 -177t-18 -176z" />
<glyph unicode="R" horiz-adv-x="1316" d="M66 0l294 1393h482q186 0 284 -43q168 -78 168 -265q0 -52 -11 -106t-37 -115.5t-79 -114t-127 -81.5q-80 -29 -188 -35l256 -633h-88l-248 631h-493l-134 -631h-79zM293 705h502q100 0 156.5 12t99.5 37q82 48 121.5 134t39.5 187q0 159 -145 213q-91 29 -223 29h-418z " />
<glyph unicode="S" horiz-adv-x="1206" d="M47 336l68 53q58 -166 180.5 -254t306.5 -88q190 0 296 82.5t106 232.5q0 36 -9 67t-22.5 54.5t-37.5 45.5t-47 37.5t-59 32.5t-64 28.5t-71 27.5l-188 68q-49 18 -80.5 31.5t-78 42.5t-74 61.5t-48 85t-20.5 115.5q0 162 123 260t334 98q179 0 306.5 -78t186.5 -196 l-61 -58q-56 122 -170.5 191.5t-264.5 69.5q-163 0 -267.5 -69t-104.5 -204q0 -64 19.5 -110.5t62 -80t86 -54t116.5 -46.5l187 -69q57 -20 96.5 -37t87 -47t76 -63t48 -83t19.5 -110q0 -82 -29.5 -152.5t-87 -126t-151.5 -87.5t-215 -32q-211 0 -350.5 94.5t-204.5 266.5z " />
<glyph unicode="T" horiz-adv-x="1077" d="M184 1317l17 76h1024l-17 -76h-471l-280 -1317h-82l280 1317h-471z" />
<glyph unicode="U" horiz-adv-x="1380" d="M143 367q0 75 23 178l182 848h82l-178 -822q-25 -125 -25 -196q0 -330 385 -330q219 0 334 109q60 58 96.5 139.5t67.5 224.5l186 875h80l-184 -873q-33 -158 -78.5 -258.5t-116.5 -167.5q-133 -121 -403 -121q-206 0 -328.5 99t-122.5 295z" />
<glyph unicode="V" horiz-adv-x="1146" d="M207 1393h82l135 -998l37 -301h2q88 176 164 309l567 990h84l-795 -1393h-86z" />
<glyph unicode="W" horiz-adv-x="1808" d="M221 1393h84l72 -944q23 -304 22 -332h2q51 119 156 332l475 944h76l80 -944q20 -251 24 -332h2q46 110 156 332l467 944h84l-690 -1393h-80l-72 819q-30 343 -30 461h-2q-90 -198 -213 -444l-418 -836h-84z" />
<glyph unicode="X" horiz-adv-x="1159" d="M-113 0l686 739l-321 654h88l293 -598l543 598h98l-608 -662l360 -731h-88l-332 676l-618 -676h-101z" />
<glyph unicode="Y" horiz-adv-x="1122" d="M182 1393h86l307 -719l607 719h92l-674 -797l-125 -596h-80l127 596z" />
<glyph unicode="Z" horiz-adv-x="1146" d="M-78 0l12 57l1184 1260h-870l16 76h985l-12 -58l-1184 -1259h928l-14 -76h-1045z" />
<glyph unicode="[" horiz-adv-x="563" d="M-25 -324l363 1717h338l-14 -70h-263l-336 -1577h263l-15 -70h-336z" />
<glyph unicode="\" horiz-adv-x="905" d="M217 1393h82l440 -1393h-84z" />
<glyph unicode="]" horiz-adv-x="561" d="M-133 -324l14 70h262l336 1577h-262l14 70h336l-362 -1717h-338z" />
<glyph unicode="^" horiz-adv-x="942" d="M119 657l510 736h76l182 -736h-80l-154 658l-440 -658h-94z" />
<glyph unicode="_" horiz-adv-x="1519" d="M49 -236l10 58h1076l-11 -58h-1075z" />
<glyph unicode="`" horiz-adv-x="757" d="M311 1393h129l215 -279h-80z" />
<glyph unicode="a" horiz-adv-x="974" d="M33 229q0 111 55 179q46 57 119 86.5t192 50.5l265 45q48 8 67.5 21t26.5 48q12 62 12 103q0 80 -55.5 126t-194.5 46t-219 -66.5t-94 -175.5l-62 39q19 128 130 198t257 70q58 0 109 -10.5t97.5 -34t74 -67.5t27.5 -105q0 -50 -23 -168l-86 -407q-12 -54 -12 -84 q0 -37 20.5 -56.5t69.5 -19.5q29 0 47 6l-10 -59q-31 -8 -66 -8q-64 0 -99.5 32t-35.5 88q0 30 8 54h-2q-117 -185 -340 -185q-133 0 -205.5 71.5t-72.5 182.5zM111 244q0 -100 56.5 -151.5t160.5 -51.5q85 0 157.5 35t130 115t82.5 198l35 162q-26 -18 -153 -37l-146 -25 q-50 -8 -82.5 -15t-74.5 -19.5t-68 -29.5t-50.5 -41.5t-36 -59.5t-11.5 -80z" />
<glyph unicode="b" horiz-adv-x="1089" d="M33 0l297 1393h76l-127 -592h2q40 77 133 137.5t209 60.5q160 0 257 -103t97 -292q0 -123 -34.5 -236.5t-96.5 -201t-156 -139.5t-205 -52q-270 0 -323 258h-2l-51 -233h-76zM197 383q0 -161 73 -251.5t219 -90.5q93 0 172.5 50t129.5 129.5t78 173t28 184.5 q0 160 -73 257t-216 97q-80 0 -148.5 -35t-116 -92t-81 -129t-49.5 -147t-16 -146z" />
<glyph unicode="c" horiz-adv-x="997" d="M76 379q0 116 32 225t92.5 198t159 143t220.5 54q137 0 229.5 -77.5t122.5 -210.5l-72 -37q-20 122 -98 191t-195 69q-81 0 -150.5 -32.5t-117 -87t-81 -125.5t-49 -146.5t-15.5 -151.5q0 -162 79.5 -256t215.5 -94q117 0 206.5 65.5t143.5 174.5l59 -45 q-137 -261 -416 -261q-170 0 -268 109.5t-98 294.5z" />
<glyph unicode="d" horiz-adv-x="1091" d="M76 373q0 166 57 307t170.5 230t261.5 89q76 0 137 -22.5t99 -60t60.5 -79t31.5 -87.5h2l139 643h76l-299 -1393h-76l39 172h-2q-40 -77 -133 -137t-209 -60q-160 0 -257 103.5t-97 294.5zM156 395q0 -160 72.5 -256t215.5 -96q99 0 180 52.5t130 135t75.5 176 t26.5 183.5q0 160 -74 251t-219 91q-75 0 -141.5 -33t-114.5 -87.5t-82.5 -124.5t-51.5 -145t-17 -147z" />
<glyph unicode="e" horiz-adv-x="1026" d="M76 395q0 159 61 296t178.5 222.5t266.5 85.5q87 0 153.5 -29t106 -80.5t59 -116t19.5 -140.5q0 -60 -13 -127h-747q-8 -47 -8 -109q0 -71 16 -132t50 -113t95.5 -81.5t145.5 -29.5q234 0 356 227l59 -41q-39 -73 -92 -123q-132 -129 -333 -129q-180 0 -276.5 108 t-96.5 312zM174 569h662q6 43 6 80q0 57 -14.5 106t-45 90.5t-85 65t-128.5 23.5q-79 0 -147.5 -32.5t-116.5 -86t-81 -116t-50 -130.5z" />
<glyph unicode="f" horiz-adv-x="602" d="M106 909l13 66h225l49 231q22 103 76 154q63 57 164 57q81 0 151 -28l-16 -66q-71 27 -139 27q-73 0 -111 -35q-37 -34 -59 -148l-39 -192h225l-12 -66h-225q-184 -854 -195 -909h-76l195 909h-226z" />
<glyph unicode="g" horiz-adv-x="1089" d="M4 -100l74 26v-12q0 -123 68 -188.5t223 -65.5q57 0 103.5 10t80.5 26t61.5 43t46.5 55.5t35 70t26 79t21 89.5l31 139h-2q-40 -77 -133 -137t-209 -60q-160 0 -257 103.5t-97 294.5q0 166 57 307t170.5 230t261.5 89q76 0 137 -22.5t99 -60t60.5 -79t31.5 -87.5h2 l47 225h76l-199 -936q-19 -93 -39.5 -156t-55 -122t-81 -93t-117 -54t-164.5 -20q-95 0 -166.5 24t-112 65.5t-60 92t-19.5 109.5v15zM156 395q0 -160 72.5 -256t215.5 -96q99 0 180 52.5t130 135t75.5 176t26.5 183.5q0 160 -74 251t-219 91q-75 0 -141.5 -33t-114.5 -87.5 t-82.5 -124.5t-51.5 -145t-17 -147z" />
<glyph unicode="h" horiz-adv-x="1030" d="M33 0l297 1393h76l-127 -592h2q40 76 135.5 137t220.5 61q128 0 197 -65.5t69 -188.5q0 -66 -24 -188l-117 -557h-76l113 537q28 136 28 198q0 93 -47 146t-162 53q-80 0 -149 -33t-116.5 -87.5t-78.5 -117t-45 -129.5l-120 -567h-76z" />
<glyph unicode="i" horiz-adv-x="391" d="M35 0l207 975h75l-206 -975h-76zM285 1178l47 215h76l-48 -215h-75z" />
<glyph unicode="j" horiz-adv-x="387" d="M-319 -377l18 72q57 -31 129 -31q85 0 127 60q30 44 61 194l224 1057h75l-215 -1012q-2 -9 -6.5 -31.5t-6.5 -30.5t-6 -27.5t-6 -27.5l-6 -24t-6.5 -24.5t-6 -21.5t-6.5 -21.5t-7 -18.5t-8 -19q-30 -65 -79 -94t-136 -29q-79 0 -139 29zM285 1178l45 215h76l-46 -215h-75 z" />
<glyph unicode="k" horiz-adv-x="966" d="M33 0l297 1393h76l-201 -942l672 524h114l-463 -359l289 -616h-90l-260 567l-285 -219l-73 -348h-76z" />
<glyph unicode="l" horiz-adv-x="417" d="M47 0l297 1393h76l-297 -1393h-76z" />
<glyph unicode="m" horiz-adv-x="1644" d="M35 0l207 975h75l-41 -178l3 -2q25 48 69.5 91.5t119.5 78t159 34.5q119 0 186.5 -58t71.5 -165q21 37 52 72.5t76 71t109 57.5t135 22q127 0 194 -65.5t67 -188.5q0 -61 -25 -188l-117 -557h-76l113 537q29 141 29 198q0 94 -44.5 146.5t-158.5 52.5q-74 0 -140 -32 t-111.5 -84.5t-76.5 -113.5t-45 -126l-121 -578h-75l112 537q29 141 29 198q0 94 -44.5 146.5t-158.5 52.5q-76 0 -142.5 -33t-112.5 -87t-77 -117.5t-45 -129.5l-120 -567h-76z" />
<glyph unicode="n" horiz-adv-x="1032" d="M35 0l207 975h75l-41 -178l3 -2q41 78 136.5 141t223.5 63t197 -65.5t69 -188.5q0 -66 -24 -188l-117 -557h-76l113 537q28 136 28 198q0 93 -46.5 146t-161.5 53q-80 0 -149.5 -33t-117 -87.5t-78.5 -117t-45 -129.5l-120 -567h-76z" />
<glyph unicode="o" horiz-adv-x="1058" d="M74 379q0 92 20 180.5t62 168.5t100.5 140t142 95.5t181.5 35.5q169 0 267.5 -110.5t98.5 -294.5q0 -91 -20 -179t-61.5 -168t-100 -140.5t-142.5 -96t-182 -35.5q-170 0 -268 109.5t-98 294.5zM152 391q0 -162 79.5 -256t214.5 -94q81 0 151.5 33.5t119 89t83.5 126.5 t51.5 147t16.5 151q0 161 -81 253.5t-220 92.5q-80 0 -149 -32.5t-117 -87t-82 -125t-50.5 -146.5t-16.5 -152z" />
<glyph unicode="p" horiz-adv-x="1089" d="M-49 -389l291 1364h75l-38 -174h2q40 77 133 137.5t209 60.5q160 0 257 -102t97 -291q0 -123 -34.5 -237t-96.5 -201.5t-156 -140t-205 -52.5q-270 0 -323 258h-2l-133 -622h-76zM197 383q0 -161 73 -251.5t219 -90.5q93 0 172.5 50.5t129.5 130t78 173.5t28 185 q0 160 -72.5 256t-216.5 96q-80 0 -148.5 -35t-116 -92t-81 -129t-49.5 -147t-16 -146z" />
<glyph unicode="q" horiz-adv-x="1091" d="M76 373q0 166 57 307t170.5 230t261.5 89q76 0 137 -22.5t99 -60t60.5 -79t31.5 -87.5h2l47 225h76l-287 -1364h-76l119 561h-2q-40 -77 -133 -137t-209 -60q-160 0 -257 103.5t-97 294.5zM156 395q0 -160 72.5 -256t215.5 -96q99 0 180 52.5t130 135t75.5 176 t26.5 183.5q0 160 -74 251t-219 91q-75 0 -141.5 -33t-114.5 -87.5t-82.5 -124.5t-51.5 -145t-17 -147z" />
<glyph unicode="r" horiz-adv-x="638" d="M35 0l207 975h75l-47 -195h2q35 88 130 153.5t202 65.5q45 0 76 -10l-14 -65q-31 8 -68 8q-130 0 -232.5 -105.5t-132.5 -242.5l-122 -584h-76z" />
<glyph unicode="s" horiz-adv-x="897" d="M16 223l58 51q48 -107 136.5 -170t209.5 -63q119 0 186.5 59.5t67.5 155.5q0 34 -11 60.5t-25.5 43.5t-46 34t-53.5 26t-67 26l-129 50q-36 13 -57.5 22t-54.5 29.5t-51.5 43t-33 59t-14.5 81.5q0 120 86 194t229 74q124 0 215 -52.5t144 -139.5l-57 -51 q-106 178 -302 178q-105 0 -173 -50t-68 -141q0 -75 43.5 -115t142.5 -75l125 -47q32 -12 49 -18.5t46.5 -20t45.5 -25t37 -30.5t31.5 -39t18.5 -48t8 -61q0 -123 -88.5 -206t-247.5 -83q-147 0 -247.5 69t-152.5 179z" />
<glyph unicode="t" horiz-adv-x="593" d="M92 909l12 66h199l78 375l78 16l-82 -391h241l-12 -66h-244l-147 -700q-12 -59 -12 -90q0 -38 19.5 -57t66.5 -19q71 0 164 43l-13 -74q-28 -14 -77 -25.5t-95 -11.5q-143 0 -143 125q0 37 16 115l148 694h-197z" />
<glyph unicode="u" horiz-adv-x="1015" d="M88 229q0 62 25 189l116 557h76l-112 -537q-29 -141 -29 -198q0 -94 43.5 -146.5t157.5 -52.5q77 0 144.5 33t114 87t77 117t44.5 130l121 567h76l-207 -975h-76l41 178l-2 2q-41 -79 -133.5 -142t-218.5 -63q-127 0 -192.5 65t-65.5 189z" />
<glyph unicode="v" horiz-adv-x="876" d="M131 975h78l100 -666q25 -162 25 -200h2q41 78 113 202l395 664h82l-586 -975h-61z" />
<glyph unicode="w" horiz-adv-x="1329" d="M133 975h76l72 -621q11 -88 18 -239h2q14 27 53 113.5t56 121.5l311 625h57l49 -619q6 -58 13 -227h2q74 152 119 236l323 610h78l-524 -975h-47l-56 653q-4 51 -6 94t-2.5 69t-1.5 34h-2q-17 -50 -90 -199l-326 -651h-59z" />
<glyph unicode="x" horiz-adv-x="870" d="M-84 0l463 504l-232 471h82l205 -420l373 420h90l-436 -477l250 -498h-84l-217 446l-408 -446h-86z" />
<glyph unicode="y" horiz-adv-x="882" d="M-143 -383l16 74q41 -25 90 -25q54 0 92 34.5t88 113.5l133 209l-143 952h80l90 -606q29 -192 33 -258h2q26 54 135 233l375 631h86l-668 -1098q-86 -141 -121 -184q-77 -99 -184 -99q-58 0 -104 23z" />
<glyph unicode="z" horiz-adv-x="835" d="M-55 0l12 57l748 848h-551l14 70h653l-10 -57l-754 -848h615l-15 -70h-712z" />
<glyph unicode="{" horiz-adv-x="579" d="M70 561l14 64q43 10 73 27t50 37.5t35.5 58.5t25.5 74.5t23 101.5l33 153q13 62 23 100t26.5 82t37.5 69t51 47.5t72 32t97 9.5l69 -4l-16 -65q-36 4 -51 4q-36 0 -65 -7.5t-49.5 -18.5t-37.5 -31.5t-28 -39t-21 -50t-15.5 -54.5t-13.5 -61l-26 -129q-42 -209 -81 -276.5 t-140 -94.5v-2q94 -40 94 -154q0 -77 -39 -250l-39 -172q-18 -80 -18 -139q0 -71 43.5 -104t144.5 -39l-14 -62q-59 3 -101.5 13t-78.5 31t-54 58.5t-18 92.5q0 59 37 229l32 146q29 138 29 180q0 55 -23.5 89t-80.5 54z" />
<glyph unicode="|" horiz-adv-x="503" d="M203 -324v1717h76v-1717h-76z" />
<glyph unicode="}" horiz-adv-x="579" d="M-135 -328l16 66q36 -4 51 -4q36 0 65 7.5t49.5 18.5t37.5 31.5t28 39t21 50t15.5 54.5t13.5 61l31 143q42 209 81 276.5t140 94.5v2q-95 41 -95 154q0 76 39 249l35 158q19 84 19 139q0 71 -44 104.5t-145 39.5l15 61q59 -3 101 -13t78 -30.5t54 -58t18 -92.5 q0 -64 -36 -230l-29 -131q-29 -138 -29 -180q0 -54 24 -88.5t81 -54.5l-15 -64q-43 -10 -73 -27t-50 -37.5t-35.5 -59t-25 -74.5t-22.5 -101l-37 -168q-13 -62 -23 -100t-27 -82t-37.5 -69t-51 -47.5t-72.5 -32t-97 -9.5z" />
<glyph unicode="~" horiz-adv-x="1153" d="M106 569q21 33 52 64.5t84.5 59.5t109.5 28q51 0 105 -17.5t143 -60.5q96 -46 131.5 -59t71.5 -13q106 0 198 113l52 -57q-107 -127 -252 -127q-39 0 -84.5 12.5t-77.5 26.5t-88 41q-44 22 -65.5 31.5t-62.5 21.5t-75 12q-52 0 -94 -29.5t-96 -97.5z" />
<glyph unicode="&#xa1;" horiz-adv-x="391" d="M-55 -418l149 703l82 329h55l-57 -329l-149 -703h-80zM180 741l49 234h105l-49 -234h-105z" />
<glyph unicode="&#xa2;" horiz-adv-x="1003" d="M80 379q0 91 19 178.5t59 166t97 138.5t138 96.5t176 38.5l41 191h76l-41 -193q113 -17 189 -91.5t102 -192.5l-72 -37q-17 104 -78 170.5t-155 83.5l-189 -887h11q117 0 206.5 65.5t143.5 174.5l59 -45q-137 -261 -416 -261h-18l-43 -206h-76l45 217q-130 26 -202 130 t-72 263zM158 391q0 -135 56 -224.5t155 -115.5l186 881q-97 -4 -175 -54.5t-125 -129.5t-72 -171t-25 -186z" />
<glyph unicode="&#xa3;" horiz-adv-x="1099" d="M-37 0l17 59q71 8 117 26t85.5 59.5t66.5 110t50 177.5q27 137 39 234h-225l14 69h221l12 88q15 106 27.5 173t44 152t76.5 138q114 133 301 133q148 0 233.5 -83.5t83.5 -219.5l-69 -26q0 135 -70.5 200.5t-185.5 65.5q-47 0 -87.5 -11t-71.5 -28t-57 -46t-44.5 -57 t-34.5 -70t-26 -75.5t-19 -83t-14 -83.5t-11 -85l-10 -82h328l-17 -69h-321l-29 -179q-29 -181 -79.5 -281.5t-141.5 -135.5l2 -4q11 0 117 2t217 2h395l-14 -70h-920z" />
<glyph unicode="&#xa4;" horiz-adv-x="1163" d="M143 225l136 135q-86 115 -86 246t86 250l-136 133l56 53l133 -133q118 86 250 86q129 0 245 -86l134 133l57 -55l-131 -131q86 -123 86 -250q0 -133 -84 -250l129 -129l-57 -55l-130 129q-120 -84 -249 -84q-128 0 -248 86l-133 -133zM264 606q0 -135 91.5 -228 t226.5 -93q137 0 228 92.5t91 228.5q0 137 -90.5 230.5t-228.5 93.5q-135 0 -226.5 -93.5t-91.5 -230.5z" />
<glyph unicode="&#xa5;" horiz-adv-x="1239" d="M104 319l13 70h411l43 207l-2 2h-405l14 70h365l-310 725h86l306 -719l608 719h90l-614 -725h399l-12 -70h-445l-2 -2l-43 -207h443l-15 -70h-442l-68 -319h-80l68 319h-408z" />
<glyph unicode="&#xa6;" horiz-adv-x="528" d="M215 -324v662h76v-662h-76zM215 731v662h76v-662h-76z" />
<glyph unicode="&#xa7;" horiz-adv-x="1003" d="M18 68l60 51q48 -107 136.5 -170.5t209.5 -63.5q119 0 186.5 59.5t67.5 155.5q0 41 -17.5 76t-55.5 64.5t-74.5 51t-96.5 50.5l-67 33q-65 32 -105.5 56.5t-78.5 59t-55 77.5t-17 98q0 71 31 126t82.5 87.5t109.5 50t121 20.5q-54 29 -92.5 82t-38.5 123q0 115 88 188.5 t229 73.5q125 0 219.5 -58.5t145.5 -150.5l-56 -51q-108 195 -311 195q-105 0 -173.5 -51t-68.5 -142q0 -73 51 -120t154 -95l70 -33q58 -27 92.5 -47.5t70 -52t52 -72.5t16.5 -94q0 -70 -27 -127t-72 -94t-95.5 -60t-106.5 -34q154 -81 154 -221q0 -124 -87.5 -206.5 t-246.5 -82.5q-150 0 -251 69t-153 179zM186 674q0 -38 13 -71.5t31 -55.5t50.5 -45t56.5 -36t64 -32l134 -63q125 15 208.5 89t83.5 175q0 44 -14.5 77t-49.5 61t-65.5 45.5t-89.5 45.5l-84 41q-151 -5 -244.5 -64.5t-93.5 -166.5z" />
<glyph unicode="&#xa8;" horiz-adv-x="962" d="M354 1157l39 186h84l-39 -186h-84zM731 1157l39 186h84l-39 -186h-84z" />
<glyph unicode="&#xa9;" horiz-adv-x="1646" d="M152 717q0 194 92 354.5t253 253t355 92.5t355 -92.5t253 -253t92 -354.5q0 -145 -54 -274.5t-147 -222.5t-223 -147.5t-276 -54.5t-276 54.5t-223 147.5t-147 222.5t-54 274.5zM227 717q0 -174 81 -319t224.5 -229.5t319.5 -84.5t319.5 84.5t224.5 229.5t81 319 t-81 319.5t-224.5 230.5t-319.5 85t-319.5 -85t-224.5 -230.5t-81 -319.5zM481 715q0 200 101 320t270 120q112 0 190 -51.5t119 -145.5l-59 -43q-65 175 -250 175q-135 0 -215 -99t-80 -274q0 -174 81 -271.5t214 -97.5q180 0 250 152l59 -41q-92 -176 -309 -176 q-168 0 -269.5 118.5t-101.5 313.5z" />
<glyph unicode="&#xaa;" horiz-adv-x="739" d="M184 940q0 68 37 115q27 36 73.5 54.5t123.5 31.5l160 28q44 7 51 39q6 27 6 56q0 45 -31.5 70.5t-111.5 25.5q-81 0 -127 -40.5t-56 -105.5l-53 35q15 78 82 123t164 45q48 0 88 -11t72 -44.5t32 -85.5q0 -31 -14 -102l-47 -230q-12 -54 -12 -70q0 -36 45 -36 q18 0 41 10l-9 -60q-21 -6 -49 -6q-96 0 -90 92q-23 -37 -72 -67.5t-122 -30.5q-85 0 -133 46t-48 118zM250 948q0 -114 125 -114q75 0 135.5 53t81.5 151l20 86q-20 -7 -61 -14l-111 -18q-42 -7 -70.5 -15.5t-58.5 -24t-45.5 -42t-15.5 -62.5z" />
<glyph unicode="&#xab;" horiz-adv-x="776" d="M104 578l15 71l340 297l-27 -119l-258 -219l152 -278l-25 -115zM377 578l14 71l340 297l-26 -119l-259 -219l152 -278l-25 -115z" />
<glyph unicode="&#xac;" horiz-adv-x="1128" d="M166 860v70h811v-477h-76v407h-735z" />
<glyph unicode="&#xad;" horiz-adv-x="829" d="M117 510l14 74h567l-14 -74h-567z" />
<glyph unicode="&#xae;" horiz-adv-x="1646" d="M152 717q0 194 92 354.5t253 253t355 92.5t355 -92.5t253 -253t92 -354.5q0 -145 -54 -274.5t-147 -222.5t-223 -147.5t-276 -54.5t-276 54.5t-223 147.5t-147 222.5t-54 274.5zM227 717q0 -174 81 -319t224.5 -229.5t319.5 -84.5t319.5 84.5t224.5 229.5t81 319 t-81 319.5t-224.5 230.5t-319.5 85t-319.5 -85t-224.5 -230.5t-81 -319.5zM559 303v836h338q131 0 199 -41q100 -63 100 -187q0 -112 -73 -167t-191 -62l272 -379h-84l-272 379h-221v-379h-68zM627 743h243q104 0 162 23q96 49 96 141q0 99 -96 148q-55 22 -162 22h-243 v-334z" />
<glyph unicode="&#xaf;" horiz-adv-x="921" d="M168 1247l14 66h555l-14 -66h-555z" />
<glyph unicode="&#xb0;" horiz-adv-x="763" d="M211 1133q0 118 83 201t202 83q118 0 201 -82.5t83 -201.5t-83 -203t-201 -84t-201.5 84t-83.5 203zM279 1133q0 -91 63 -154.5t154 -63.5q90 0 153.5 63.5t63.5 154.5q0 89 -64 153t-153 64q-90 0 -153.5 -63.5t-63.5 -153.5z" />
<glyph unicode="&#xb1;" horiz-adv-x="1509" d="M121 0v68h1200v-68h-1200zM121 684v68h567v462h70v-462h563v-68h-563v-465h-70v465h-567z" />
<glyph unicode="&#xb2;" horiz-adv-x="823" d="M123 539l12 61q169 95 348 229q53 40 88 70t74.5 74.5t59.5 94t20 103.5q0 82 -52.5 131.5t-140.5 49.5q-105 0 -161 -62t-56 -153q0 -48 17 -103l-82 35q-8 27 -8 68q0 119 80.5 199.5t214.5 80.5q121 0 193.5 -67t72.5 -172q0 -219 -330 -435q-44 -28 -125.5 -77 t-89.5 -54l2 -6h455l-15 -67h-577z" />
<glyph unicode="&#xb3;" horiz-adv-x="788" d="M141 766l72 31q5 -91 57.5 -148t155.5 -57q98 0 161.5 49.5t63.5 146.5q0 59 -35 102t-100 62q-44 15 -145 15h-49l14 61h88q120 0 176 27q90 41 90 149q0 65 -49 106.5t-131 41.5q-85 0 -143.5 -52t-61.5 -143l-69 33q2 89 80 158t198 69q123 0 189.5 -63t66.5 -148 t-56.5 -140.5t-140.5 -68.5q64 -22 109 -77t45 -132q0 -116 -83.5 -189t-217.5 -73t-204 66.5t-81 173.5z" />
<glyph unicode="&#xb4;" horiz-adv-x="860" d="M371 1114l215 279h129l-264 -279h-80z" />
<glyph unicode="&#xb5;" horiz-adv-x="1013" d="M-41 -391l291 1366h76l-117 -545q-25 -121 -24.5 -206.5t48 -132t148.5 -46.5q139 0 244 88q109 95 145 252l125 590h76l-207 -975h-76l37 176h-2q-51 -90 -144 -145.5t-219 -55.5q-86 0 -146.5 36.5t-72.5 99.5l-106 -502h-76z" />
<glyph unicode="&#xb6;" horiz-adv-x="1196" d="M160 985q0 189 119 295q71 61 170.5 88t287.5 27l561 -2l-14 -68h-174l-348 -1638h-72l346 1638h-252l-348 -1638h-71l204 979h-49q-159 0 -259.5 81.5t-100.5 237.5z" />
<glyph unicode="&#xb7;" horiz-adv-x="385" d="M133 539l51 233h99l-52 -233h-98z" />
<glyph unicode="&#xb8;" horiz-adv-x="921" d="M213 -373l16 54q46 -17 93 -17q56 0 91.5 23t35.5 75q0 49 -36.5 72t-88.5 23q-41 0 -80 -17l-29 37l123 133h68l-101 -106q16 4 45 4q69 0 115.5 -38.5t46.5 -105.5q0 -78 -55.5 -116.5t-137.5 -38.5q-59 0 -106 18z" />
<glyph unicode="&#xb9;" horiz-adv-x="497" d="M182 1153l13 64h22q186 0 238 176h65l-180 -852h-74l140 663q-71 -53 -187 -53q-25 0 -37 2z" />
<glyph unicode="&#xba;" horiz-adv-x="743" d="M201 1026q0 101 36.5 187.5t112 143t174.5 56.5q105 0 169.5 -63.5t64.5 -175.5q0 -72 -21 -141.5t-60 -127t-102.5 -92.5t-140.5 -35q-113 0 -173 67.5t-60 180.5zM266 1036q0 -97 44 -149.5t130 -52.5q62 0 112 31.5t79.5 81.5t45 106.5t15.5 111.5q0 92 -44 143.5 t-132 51.5q-59 0 -108 -30.5t-79 -78.5t-46.5 -104t-16.5 -111z" />
<glyph unicode="&#xbb;" horiz-adv-x="772" d="M43 215l27 119l258 219l-152 278l25 115l194 -368l-14 -72zM315 215l27 119l258 219l-151 278l24 115l195 -368l-15 -72z" />
<glyph unicode="&#xbc;" horiz-adv-x="1579" d="M186 1153l13 64h22q186 0 238 176h65l-180 -852h-74l140 663q-71 -53 -187 -53q-25 0 -37 2zM250 0l932 1393h84l-932 -1393h-84zM807 225l10 51l533 572h73l-120 -555h149l-10 -68h-152l-49 -225h-74l47 225h-407zM920 293h309l47 229q8 35 19 85.5t18 78t16 53.5l-4 2 q-20 -32 -62.5 -83t-76.5 -83z" />
<glyph unicode="&#xbd;" horiz-adv-x="1691" d="M184 1153l13 64h22q186 0 238 176h65l-180 -852h-74l140 663q-71 -53 -187 -53q-25 0 -37 2zM248 0l932 1393h84l-932 -1393h-84zM922 0l12 61q163 92 348 230q53 40 88 70t74.5 74.5t59.5 94t20 103.5q0 82 -52.5 131t-140.5 49q-105 0 -161 -62t-56 -153q0 -50 16 -102 l-81 34q-9 30 -9 68q0 119 80.5 200t214.5 81q121 0 194 -67.5t73 -172.5q0 -218 -330 -434q-44 -28 -125.5 -77t-89.5 -54l2 -6h454l-14 -68h-577z" />
<glyph unicode="&#xbe;" horiz-adv-x="1802" d="M129 766l72 31q5 -91 57.5 -148t155.5 -57q98 0 161.5 49.5t63.5 146.5q0 59 -35 102t-100 62q-44 15 -146 15h-49l15 61h88q120 0 176 27q90 41 90 149q0 65 -49 106.5t-131 41.5q-85 0 -143.5 -52t-61.5 -143l-70 33q2 89 80.5 158t198.5 69q123 0 189.5 -63t66.5 -148 t-56.5 -140.5t-140.5 -68.5q64 -22 109 -77t45 -132q0 -116 -83.5 -189t-217.5 -73t-204 66.5t-81 173.5zM473 0l932 1393h84l-932 -1393h-84zM1030 225l10 51l533 572h74l-121 -555h149l-10 -68h-152l-49 -225h-73l47 225h-408zM1143 293h309l47 229q8 35 19 85.5t18 78 t16 53.5l-4 2q-20 -32 -62.5 -83t-76.5 -83z" />
<glyph unicode="&#xbf;" horiz-adv-x="925" d="M-76 -119q0 96 49.5 186t145.5 164l186 144q38 28 64 54t41 45t26.5 47.5t16.5 46.5t14 57l4 22h82q-20 -115 -61.5 -183.5t-137.5 -141.5l-164 -121q-93 -70 -139.5 -151.5t-46.5 -162.5q0 -116 77 -187t220 -71q160 0 251 99.5t91 242.5q0 69 -16 121l84 -29 q10 -58 10 -104q0 -168 -119.5 -284.5t-312.5 -116.5q-170 0 -267.5 91t-97.5 232zM492 803l36 172h86l-36 -172h-86z" />
<glyph unicode="&#xc0;" horiz-adv-x="1202" d="M-84 0l817 1393h92l228 -1393h-80l-70 438h-645l-250 -438h-92zM303 512h586l-86 541q-34 215 -37 266q-98 -182 -145 -264zM520 1821h129l215 -279h-80z" />
<glyph unicode="&#xc1;" horiz-adv-x="1202" d="M-84 0l817 1393h92l228 -1393h-80l-70 438h-645l-250 -438h-92zM303 512h586l-86 541q-34 215 -37 266q-98 -182 -145 -264zM711 1542l215 279h129l-264 -279h-80z" />
<glyph unicode="&#xc2;" horiz-adv-x="1202" d="M-84 0l817 1393h92l228 -1393h-80l-70 438h-645l-250 -438h-92zM303 512h586l-86 541q-34 215 -37 266q-98 -182 -145 -264zM504 1542l295 279h98l176 -279h-78l-155 215l-250 -215h-86z" />
<glyph unicode="&#xc3;" horiz-adv-x="1202" d="M-84 0l817 1393h92l228 -1393h-80l-70 438h-645l-250 -438h-92zM303 512h586l-86 541q-34 215 -37 266q-98 -182 -145 -264zM518 1606q8 35 26.5 67.5t58 59t91.5 26.5t156 -53q88 -45 133 -45q24 0 42 7.5t30.5 24.5t19 29t15.5 35l57 -22q-44 -138 -166 -138 q-60 0 -158 50q-56 28 -83.5 38.5t-51.5 10.5q-41 0 -68 -33.5t-40 -79.5z" />
<glyph unicode="&#xc4;" horiz-adv-x="1202" d="M-84 0l817 1393h92l228 -1393h-80l-70 438h-645l-250 -438h-92zM303 512h586l-86 541q-34 215 -37 266q-98 -182 -145 -264zM584 1597l39 187h84l-39 -187h-84zM961 1597l38 187h84l-39 -187h-83z" />
<glyph unicode="&#xc5;" horiz-adv-x="1202" d="M-84 0l817 1393h92l228 -1393h-80l-70 438h-645l-250 -438h-92zM303 512h586l-86 541q-34 215 -37 266q-98 -182 -145 -264zM655 1692q0 71 49 118.5t119 47.5t119 -47.5t49 -118.5t-49 -118.5t-119 -47.5t-119 47.5t-49 118.5zM711 1692q0 -46 32 -78.5t78 -32.5 t78.5 32.5t32.5 78.5t-32.5 78t-78.5 32t-78 -32t-32 -78z" />
<glyph unicode="&#xc6;" horiz-adv-x="1800" d="M-143 0l1114 1393h893l-17 -76h-749l-121 -559h678l-17 -76h-675l-132 -606h793l-16 -76h-869l88 436h-528l-342 -436h-100zM358 512h486l117 553l59 272h-2q-58 -71 -205 -260z" />
<glyph unicode="&#xc7;" horiz-adv-x="1304" d="M127 549q0 131 30 257.5t90 236.5t143 193.5t196.5 132t242.5 48.5q178 0 301 -90.5t168 -259.5l-71 -47q-37 156 -141.5 241t-268.5 85q-96 0 -182 -33.5t-152 -91.5t-119 -134t-87 -163t-52 -177t-18 -176q0 -248 109 -386t323 -138q161 0 286 90t203 240l64 -47 q-91 -164 -233.5 -259t-333.5 -96l-68 -71q16 4 45 4q69 0 115.5 -38.5t46.5 -105.5q0 -78 -55.5 -116.5t-137.5 -38.5q-59 0 -106 18l16 54q46 -17 92 -17q56 0 91.5 23t35.5 75q0 49 -36.5 72t-88.5 23q-40 0 -79 -17l-29 37l90 103q-206 19 -318 167.5t-112 401.5z" />
<glyph unicode="&#xc8;" horiz-adv-x="1171" d="M63 0l297 1393h873l-16 -76h-793l-119 -559h719l-16 -76h-719l-129 -606h833l-16 -76h-914zM575 1821h130l215 -279h-80z" />
<glyph unicode="&#xc9;" horiz-adv-x="1171" d="M63 0l297 1393h873l-16 -76h-793l-119 -559h719l-16 -76h-719l-129 -606h833l-16 -76h-914zM692 1542l215 279h129l-264 -279h-80z" />
<glyph unicode="&#xca;" horiz-adv-x="1171" d="M63 0l297 1393h873l-16 -76h-793l-119 -559h719l-16 -76h-719l-129 -606h833l-16 -76h-914zM535 1542l294 279h99l176 -279h-78l-156 215l-249 -215h-86z" />
<glyph unicode="&#xcb;" horiz-adv-x="1171" d="M63 0l297 1393h873l-16 -76h-793l-119 -559h719l-16 -76h-719l-129 -606h833l-16 -76h-914zM586 1597l39 187h84l-39 -187h-84zM963 1597l38 187h84l-38 -187h-84z" />
<glyph unicode="&#xcc;" horiz-adv-x="454" d="M63 0l297 1393h80l-297 -1393h-80zM139 1819h129l215 -277h-80z" />
<glyph unicode="&#xcd;" horiz-adv-x="454" d="M63 0l297 1393h80l-297 -1393h-80zM391 1542l215 279h129l-264 -279h-80z" />
<glyph unicode="&#xce;" horiz-adv-x="454" d="M63 0l297 1393h80l-297 -1393h-80zM141 1542l295 279h99l176 -279h-78l-156 215l-250 -215h-86z" />
<glyph unicode="&#xcf;" horiz-adv-x="454" d="M63 0l297 1393h80l-297 -1393h-80zM207 1597l39 187h84l-39 -187h-84zM584 1597l39 187h84l-39 -187h-84z" />
<glyph unicode="&#xd0;" horiz-adv-x="1417" d="M14 698l17 74h213l133 621h291q274 0 434 -72q241 -114 241 -430q0 -158 -40.5 -310t-125.5 -282.5t-202 -198.5q-99 -57 -212.5 -78.5t-273.5 -21.5h-409l147 698h-213zM178 76h322q154 0 256 19t190 77q80 54 142.5 142.5t98.5 188t54.5 197t18.5 185.5q0 274 -211 372 q-126 60 -349 60h-256l-116 -545h456l-14 -74h-459z" />
<glyph unicode="&#xd1;" horiz-adv-x="1394" d="M63 0l299 1393h76l494 -1051l102 -221h2q27 151 60 307l204 965h80l-295 -1393h-77l-516 1100q-17 36 -36.5 80t-30.5 70l-11 26h-2q-18 -111 -45 -232l-224 -1044h-80zM596 1606q8 35 26.5 67.5t58 59t91.5 26.5t156 -53q88 -45 133 -45q24 0 42 7.5t30.5 24.5t18.5 29 t15 35l58 -22q-44 -138 -166 -138q-60 0 -158 50q-56 28 -83.5 38.5t-51.5 10.5q-41 0 -68.5 -34t-40.5 -79z" />
<glyph unicode="&#xd2;" horiz-adv-x="1400" d="M127 549q0 131 30 257.5t90.5 236.5t143.5 193.5t197 132t243 48.5q225 0 360.5 -143.5t135.5 -403.5q0 -110 -20 -217.5t-58 -208t-98.5 -185.5t-137 -148.5t-177 -99.5t-215.5 -36q-236 0 -365 151t-129 423zM207 571q0 -248 109 -386t323 -138q116 0 217 50.5 t171 132.5t120 187.5t74 215.5t24 215q0 234 -110 366t-318 132q-96 0 -182 -33.5t-152 -91.5t-119 -134t-87 -163t-52 -177t-18 -176zM608 1821h129l215 -279h-80z" />
<glyph unicode="&#xd3;" horiz-adv-x="1400" d="M127 549q0 131 30 257.5t90.5 236.5t143.5 193.5t197 132t243 48.5q225 0 360.5 -143.5t135.5 -403.5q0 -110 -20 -217.5t-58 -208t-98.5 -185.5t-137 -148.5t-177 -99.5t-215.5 -36q-236 0 -365 151t-129 423zM207 571q0 -248 109 -386t323 -138q116 0 217 50.5 t171 132.5t120 187.5t74 215.5t24 215q0 234 -110 366t-318 132q-96 0 -182 -33.5t-152 -91.5t-119 -134t-87 -163t-52 -177t-18 -176zM793 1542l215 279h129l-265 -279h-79z" />
<glyph unicode="&#xd4;" horiz-adv-x="1400" d="M127 549q0 131 30 257.5t90.5 236.5t143.5 193.5t197 132t243 48.5q225 0 360.5 -143.5t135.5 -403.5q0 -110 -20 -217.5t-58 -208t-98.5 -185.5t-137 -148.5t-177 -99.5t-215.5 -36q-236 0 -365 151t-129 423zM207 571q0 -248 109 -386t323 -138q116 0 217 50.5 t171 132.5t120 187.5t74 215.5t24 215q0 234 -110 366t-318 132q-96 0 -182 -33.5t-152 -91.5t-119 -134t-87 -163t-52 -177t-18 -176zM604 1542l295 279h98l177 -279h-78l-156 215l-250 -215h-86z" />
<glyph unicode="&#xd5;" horiz-adv-x="1400" d="M127 549q0 131 30 257.5t90.5 236.5t143.5 193.5t197 132t243 48.5q225 0 360.5 -143.5t135.5 -403.5q0 -110 -20 -217.5t-58 -208t-98.5 -185.5t-137 -148.5t-177 -99.5t-215.5 -36q-236 0 -365 151t-129 423zM207 571q0 -248 109 -386t323 -138q116 0 217 50.5 t171 132.5t120 187.5t74 215.5t24 215q0 234 -110 366t-318 132q-96 0 -182 -33.5t-152 -91.5t-119 -134t-87 -163t-52 -177t-18 -176zM594 1606q8 35 26.5 67.5t58 59t91.5 26.5t156 -53q88 -45 133 -45q24 0 42 7.5t30.5 24.5t18.5 29t15 35l58 -22q-44 -138 -166 -138 q-60 0 -158 50q-56 28 -83.5 38.5t-51.5 10.5q-41 0 -68.5 -34t-40.5 -79z" />
<glyph unicode="&#xd6;" horiz-adv-x="1400" d="M127 549q0 131 30 257.5t90.5 236.5t143.5 193.5t197 132t243 48.5q225 0 360.5 -143.5t135.5 -403.5q0 -110 -20 -217.5t-58 -208t-98.5 -185.5t-137 -148.5t-177 -99.5t-215.5 -36q-236 0 -365 151t-129 423zM207 571q0 -248 109 -386t323 -138q116 0 217 50.5 t171 132.5t120 187.5t74 215.5t24 215q0 234 -110 366t-318 132q-96 0 -182 -33.5t-152 -91.5t-119 -134t-87 -163t-52 -177t-18 -176zM657 1597l39 187h84l-39 -187h-84zM1034 1597l39 187h84l-39 -187h-84z" />
<glyph unicode="&#xd7;" horiz-adv-x="1378" d="M176 121l483 483l-483 483l39 39l483 -483l486 485l39 -36l-486 -486l486 -487l-39 -39l-486 487l-485 -485z" />
<glyph unicode="&#xd8;" horiz-adv-x="1427" d="M-66 -2l259 233q-62 130 -62 318q0 131 30 257.5t90.5 236.5t144 193.5t197.5 132t243 48.5q141 0 249 -57.5t170 -169.5l267 242l53 -50l-287 -260q43 -115 43 -252q0 -110 -20 -217.5t-58 -208t-98.5 -185.5t-137 -148.5t-177 -99.5t-215.5 -36q-268 0 -398 193 l-243 -221zM211 571q0 -162 47 -280l934 842q-52 103 -145.5 158t-225.5 55q-96 0 -182 -33.5t-152 -91.5t-119 -134t-87 -163t-52 -177t-18 -176zM291 225q111 -178 352 -178q116 0 217 50.5t171 132.5t120 187.5t74 215.5t24 215q0 122 -30 213z" />
<glyph unicode="&#xd9;" horiz-adv-x="1380" d="M143 367q0 75 23 178l182 848h82l-178 -822q-25 -125 -25 -196q0 -330 385 -330q219 0 334 109q60 58 96.5 139.5t67.5 224.5l186 875h80l-184 -873q-33 -158 -78.5 -258.5t-116.5 -167.5q-133 -121 -403 -121q-206 0 -328.5 99t-122.5 295zM645 1821h129l215 -279h-80z " />
<glyph unicode="&#xda;" horiz-adv-x="1380" d="M143 367q0 75 23 178l182 848h82l-178 -822q-25 -125 -25 -196q0 -330 385 -330q219 0 334 109q60 58 96.5 139.5t67.5 224.5l186 875h80l-184 -873q-33 -158 -78.5 -258.5t-116.5 -167.5q-133 -121 -403 -121q-206 0 -328.5 99t-122.5 295zM760 1542l215 279h129 l-264 -279h-80z" />
<glyph unicode="&#xdb;" horiz-adv-x="1380" d="M143 367q0 75 23 178l182 848h82l-178 -822q-25 -125 -25 -196q0 -330 385 -330q219 0 334 109q60 58 96.5 139.5t67.5 224.5l186 875h80l-184 -873q-33 -158 -78.5 -258.5t-116.5 -167.5q-133 -121 -403 -121q-206 0 -328.5 99t-122.5 295zM594 1542l295 279h98 l176 -279h-78l-155 215l-250 -215h-86z" />
<glyph unicode="&#xdc;" horiz-adv-x="1380" d="M143 367q0 75 23 178l182 848h82l-178 -822q-25 -125 -25 -196q0 -330 385 -330q219 0 334 109q60 58 96.5 139.5t67.5 224.5l186 875h80l-184 -873q-33 -158 -78.5 -258.5t-116.5 -167.5q-133 -121 -403 -121q-206 0 -328.5 99t-122.5 295zM657 1597l39 187h84l-39 -187 h-84zM1034 1597l39 187h84l-39 -187h-84z" />
<glyph unicode="&#xdd;" horiz-adv-x="1122" d="M182 1393h86l307 -719l607 719h92l-674 -797l-125 -596h-80l127 596zM651 1542l215 279h129l-264 -279h-80z" />
<glyph unicode="&#xde;" horiz-adv-x="1269" d="M66 0l294 1393h80l-47 -209h404q186 0 284 -43q168 -78 168 -264q0 -52 -11 -106t-37 -116t-79 -114.5t-127 -81.5q-98 -37 -245 -37h-517l-88 -422h-79zM248 498h504q100 0 155.5 12t98.5 37q82 48 121.5 133t39.5 186q0 159 -145 213q-91 29 -221 29h-420z" />
<glyph unicode="&#xdf;" horiz-adv-x="980" d="M37 0l215 1032q39 182 96 258q96 133 279 133q131 0 214 -67t83 -197q0 -74 -24.5 -135.5t-63 -100.5t-80.5 -62.5t-84 -31.5l-2 -4q35 -7 64.5 -21.5t59.5 -43t47 -78t17 -115.5q0 -79 -22 -178q-48 -221 -133 -312t-222 -91q-223 0 -223 202q0 76 27 177h67 q-24 -102 -24 -154q0 -77 35 -119.5t122 -42.5q59 0 102.5 21t75 66.5t52.5 103.5t41 145q24 102 24 176q0 57 -12 96.5t-35 65.5t-62.5 40t-86.5 19.5t-115 5.5h-88l14 66h82q152 0 246 57q123 77 123 244q0 93 -58 148t-165 55q-162 0 -234 -139q-38 -76 -70 -230 l-208 -989h-74z" />
<glyph unicode="&#xe0;" horiz-adv-x="974" d="M33 229q0 111 55 179q46 57 119 86.5t192 50.5l265 45q48 8 67.5 21t26.5 48q12 62 12 103q0 80 -55.5 126t-194.5 46t-219 -66.5t-94 -175.5l-62 39q19 128 130 198t257 70q58 0 109 -10.5t97.5 -34t74 -67.5t27.5 -105q0 -50 -23 -168l-86 -407q-12 -54 -12 -84 q0 -37 20.5 -56.5t69.5 -19.5q29 0 47 6l-10 -59q-31 -8 -66 -8q-64 0 -99.5 32t-35.5 88q0 30 8 54h-2q-117 -185 -340 -185q-133 0 -205.5 71.5t-72.5 182.5zM111 244q0 -100 56.5 -151.5t160.5 -51.5q85 0 157.5 35t130 115t82.5 198l35 162q-26 -18 -153 -37l-146 -25 q-50 -8 -82.5 -15t-74.5 -19.5t-68 -29.5t-50.5 -41.5t-36 -59.5t-11.5 -80zM334 1393h129l215 -279h-80z" />
<glyph unicode="&#xe1;" horiz-adv-x="974" d="M33 229q0 111 55 179q46 57 119 86.5t192 50.5l265 45q48 8 67.5 21t26.5 48q12 62 12 103q0 80 -55.5 126t-194.5 46t-219 -66.5t-94 -175.5l-62 39q19 128 130 198t257 70q58 0 109 -10.5t97.5 -34t74 -67.5t27.5 -105q0 -50 -23 -168l-86 -407q-12 -54 -12 -84 q0 -37 20.5 -56.5t69.5 -19.5q29 0 47 6l-10 -59q-31 -8 -66 -8q-64 0 -99.5 32t-35.5 88q0 30 8 54h-2q-117 -185 -340 -185q-133 0 -205.5 71.5t-72.5 182.5zM111 244q0 -100 56.5 -151.5t160.5 -51.5q85 0 157.5 35t130 115t82.5 198l35 162q-26 -18 -153 -37l-146 -25 q-50 -8 -82.5 -15t-74.5 -19.5t-68 -29.5t-50.5 -41.5t-36 -59.5t-11.5 -80zM500 1114l215 279h129l-264 -279h-80z" />
<glyph unicode="&#xe2;" horiz-adv-x="974" d="M33 229q0 111 55 179q46 57 119 86.5t192 50.5l265 45q48 8 67.5 21t26.5 48q12 62 12 103q0 80 -55.5 126t-194.5 46t-219 -66.5t-94 -175.5l-62 39q19 128 130 198t257 70q58 0 109 -10.5t97.5 -34t74 -67.5t27.5 -105q0 -50 -23 -168l-86 -407q-12 -54 -12 -84 q0 -37 20.5 -56.5t69.5 -19.5q29 0 47 6l-10 -59q-31 -8 -66 -8q-64 0 -99.5 32t-35.5 88q0 30 8 54h-2q-117 -185 -340 -185q-133 0 -205.5 71.5t-72.5 182.5zM111 244q0 -100 56.5 -151.5t160.5 -51.5q85 0 157.5 35t130 115t82.5 198l35 162q-26 -18 -153 -37l-146 -25 q-50 -8 -82.5 -15t-74.5 -19.5t-68 -29.5t-50.5 -41.5t-36 -59.5t-11.5 -80zM293 1114l295 279h98l176 -279h-78l-155 215l-250 -215h-86z" />
<glyph unicode="&#xe3;" horiz-adv-x="974" d="M33 229q0 111 55 179q46 57 119 86.5t192 50.5l265 45q48 8 67.5 21t26.5 48q12 62 12 103q0 80 -55.5 126t-194.5 46t-219 -66.5t-94 -175.5l-62 39q19 128 130 198t257 70q58 0 109 -10.5t97.5 -34t74 -67.5t27.5 -105q0 -50 -23 -168l-86 -407q-12 -54 -12 -84 q0 -37 20.5 -56.5t69.5 -19.5q29 0 47 6l-10 -59q-31 -8 -66 -8q-64 0 -99.5 32t-35.5 88q0 30 8 54h-2q-117 -185 -340 -185q-133 0 -205.5 71.5t-72.5 182.5zM111 244q0 -100 56.5 -151.5t160.5 -51.5q85 0 157.5 35t130 115t82.5 198l35 162q-26 -18 -153 -37l-146 -25 q-50 -8 -82.5 -15t-74.5 -19.5t-68 -29.5t-50.5 -41.5t-36 -59.5t-11.5 -80zM268 1180q8 35 26.5 67.5t58 59t91.5 26.5t156 -53q88 -45 133 -45q24 0 42 7.5t30.5 24.5t19 29t15.5 35l57 -22q-44 -138 -166 -138q-60 0 -158 50q-56 28 -83.5 38.5t-51.5 10.5 q-41 0 -68 -33.5t-40 -79.5z" />
<glyph unicode="&#xe4;" horiz-adv-x="974" d="M33 229q0 111 55 179q46 57 119 86.5t192 50.5l265 45q48 8 67.5 21t26.5 48q12 62 12 103q0 80 -55.5 126t-194.5 46t-219 -66.5t-94 -175.5l-62 39q19 128 130 198t257 70q58 0 109 -10.5t97.5 -34t74 -67.5t27.5 -105q0 -50 -23 -168l-86 -407q-12 -54 -12 -84 q0 -37 20.5 -56.5t69.5 -19.5q29 0 47 6l-10 -59q-31 -8 -66 -8q-64 0 -99.5 32t-35.5 88q0 30 8 54h-2q-117 -185 -340 -185q-133 0 -205.5 71.5t-72.5 182.5zM111 244q0 -100 56.5 -151.5t160.5 -51.5q85 0 157.5 35t130 115t82.5 198l35 162q-26 -18 -153 -37l-146 -25 q-50 -8 -82.5 -15t-74.5 -19.5t-68 -29.5t-50.5 -41.5t-36 -59.5t-11.5 -80zM352 1157l39 186h84l-39 -186h-84zM729 1157l39 186h84l-39 -186h-84z" />
<glyph unicode="&#xe5;" horiz-adv-x="974" d="M33 229q0 111 55 179q46 57 119 86.5t192 50.5l265 45q48 8 67.5 21t26.5 48q12 62 12 103q0 80 -55.5 126t-194.5 46t-219 -66.5t-94 -175.5l-62 39q19 128 130 198t257 70q58 0 109 -10.5t97.5 -34t74 -67.5t27.5 -105q0 -50 -23 -168l-86 -407q-12 -54 -12 -84 q0 -37 20.5 -56.5t69.5 -19.5q29 0 47 6l-10 -59q-31 -8 -66 -8q-64 0 -99.5 32t-35.5 88q0 30 8 54h-2q-117 -185 -340 -185q-133 0 -205.5 71.5t-72.5 182.5zM111 244q0 -100 56.5 -151.5t160.5 -51.5q85 0 157.5 35t130 115t82.5 198l35 162q-26 -18 -153 -37l-146 -25 q-50 -8 -82.5 -15t-74.5 -19.5t-68 -29.5t-50.5 -41.5t-36 -59.5t-11.5 -80zM418 1264q0 71 49 118.5t119 47.5t119 -47.5t49 -118.5t-49 -118.5t-119 -47.5t-119 47.5t-49 118.5zM473 1264q0 -46 32.5 -78.5t78.5 -32.5t78 32.5t32 78.5t-32 78t-78 32t-78.5 -32t-32.5 -78 z" />
<glyph unicode="&#xe6;" horiz-adv-x="1656" d="M33 229q0 111 55 179q46 57 119 86.5t192 50.5l265 45q48 8 67.5 21t26.5 48q12 62 12 103q0 80 -55.5 126t-194.5 46q-138 0 -216.5 -66t-96.5 -176l-62 39q21 130 129 199t263 69q51 0 98.5 -9.5t92 -30t74.5 -59t36 -91.5q143 190 374 190q87 0 153.5 -29t106 -80.5 t59 -116t19.5 -140.5q0 -67 -12 -129h-747q-9 -53 -9 -107q0 -56 9.5 -106t32 -96.5t57 -80t88 -53.5t121.5 -20q234 0 356 227l59 -41q-39 -73 -92 -123q-132 -129 -334 -129q-146 0 -236.5 70t-121.5 205q-18 -49 -51.5 -95t-82.5 -87.5t-120.5 -67t-153.5 -25.5 q-133 0 -206.5 71.5t-73.5 182.5zM111 244q0 -100 56.5 -151.5t160.5 -51.5q85 0 157.5 35t130 115t82.5 198l35 162q-26 -18 -153 -37l-146 -25q-50 -8 -82.5 -15t-74.5 -19.5t-68 -29.5t-50.5 -41.5t-36 -59.5t-11.5 -80zM805 569h661q7 51 7 80q0 57 -14.5 106t-45 90.5 t-85 65t-128.5 23.5q-79 0 -147.5 -32.5t-116.5 -86t-81 -116t-50 -130.5z" />
<glyph unicode="&#xe7;" horiz-adv-x="997" d="M76 379q0 116 32 225t92.5 198t159 143t220.5 54q137 0 229.5 -77.5t122.5 -210.5l-72 -37q-20 122 -98 191t-195 69q-81 0 -150.5 -32.5t-117 -87t-81 -125.5t-49 -146.5t-15.5 -151.5q0 -162 79.5 -256t215.5 -94q117 0 206.5 65.5t143.5 174.5l59 -45 q-133 -255 -403 -261l-70 -71q16 4 45 4q69 0 115.5 -38.5t46.5 -105.5q0 -78 -55.5 -116.5t-137.5 -38.5q-59 0 -106 18l16 54q46 -17 92 -17q56 0 91.5 23t35.5 75q0 49 -36.5 72t-88.5 23q-40 0 -79 -17l-29 37l94 103q-148 15 -230.5 122t-82.5 277z" />
<glyph unicode="&#xe8;" horiz-adv-x="1026" d="M76 395q0 159 61 296t178.5 222.5t266.5 85.5q87 0 153.5 -29t106 -80.5t59 -116t19.5 -140.5q0 -62 -13 -129h-747q-8 -47 -8 -107q0 -71 16 -132t50 -113t95.5 -81.5t145.5 -29.5q234 0 356 227l59 -41q-39 -73 -92 -123q-132 -129 -333 -129q-180 0 -276.5 108 t-96.5 312zM174 569h662q6 43 6 80q0 57 -14.5 106t-45 90.5t-85 65t-128.5 23.5q-79 0 -147.5 -32.5t-116.5 -86t-81 -116t-50 -130.5zM352 1393h129l215 -279h-80z" />
<glyph unicode="&#xe9;" horiz-adv-x="1026" d="M76 395q0 159 61 296t178.5 222.5t266.5 85.5q87 0 153.5 -29t106 -80.5t59 -116t19.5 -140.5q0 -62 -13 -129h-747q-8 -47 -8 -107q0 -71 16 -132t50 -113t95.5 -81.5t145.5 -29.5q234 0 356 227l59 -41q-39 -73 -92 -123q-132 -129 -333 -129q-180 0 -276.5 108 t-96.5 312zM174 569h662q6 43 6 80q0 57 -14.5 106t-45 90.5t-85 65t-128.5 23.5q-79 0 -147.5 -32.5t-116.5 -86t-81 -116t-50 -130.5zM520 1114l215 279h129l-264 -279h-80z" />
<glyph unicode="&#xea;" horiz-adv-x="1026" d="M76 395q0 159 61 296t178.5 222.5t266.5 85.5q87 0 153.5 -29t106 -80.5t59 -116t19.5 -140.5q0 -62 -13 -129h-747q-8 -47 -8 -107q0 -71 16 -132t50 -113t95.5 -81.5t145.5 -29.5q234 0 356 227l59 -41q-39 -73 -92 -123q-132 -129 -333 -129q-180 0 -276.5 108 t-96.5 312zM174 569h662q6 43 6 80q0 57 -14.5 106t-45 90.5t-85 65t-128.5 23.5q-79 0 -147.5 -32.5t-116.5 -86t-81 -116t-50 -130.5zM311 1114l295 279h99l176 -279h-78l-156 215l-250 -215h-86z" />
<glyph unicode="&#xeb;" horiz-adv-x="1026" d="M76 395q0 159 61 296t178.5 222.5t266.5 85.5q87 0 153.5 -29t106 -80.5t59 -116t19.5 -140.5q0 -62 -13 -129h-747q-8 -47 -8 -107q0 -71 16 -132t50 -113t95.5 -81.5t145.5 -29.5q234 0 356 227l59 -41q-39 -73 -92 -123q-132 -129 -333 -129q-180 0 -276.5 108 t-96.5 312zM174 569h662q6 43 6 80q0 57 -14.5 106t-45 90.5t-85 65t-128.5 23.5q-79 0 -147.5 -32.5t-116.5 -86t-81 -116t-50 -130.5zM379 1157l39 186h84l-39 -186h-84zM756 1157l39 186h84l-39 -186h-84z" />
<glyph unicode="&#xec;" horiz-adv-x="391" d="M4 1393h129l215 -279h-80zM35 0l207 975h75l-206 -975h-76z" />
<glyph unicode="&#xed;" horiz-adv-x="391" d="M35 0l207 975h75l-206 -975h-76zM256 1114l215 279h129l-264 -279h-80z" />
<glyph unicode="&#xee;" horiz-adv-x="391" d="M14 1114l295 279h99l176 -279h-78l-156 215l-250 -215h-86zM35 0l207 975h75l-206 -975h-76z" />
<glyph unicode="&#xef;" horiz-adv-x="391" d="M35 0l207 975h75l-206 -975h-76zM90 1157l39 186h84l-39 -186h-84zM467 1157l39 186h84l-39 -186h-84z" />
<glyph unicode="&#xf0;" horiz-adv-x="1087" d="M74 375q0 117 34.5 228t96.5 199.5t158.5 142.5t211.5 54q84 0 151 -28t108 -76t62.5 -107.5t21.5 -125.5h6q0 140 -22.5 300.5t-70.5 260.5l-352 -103l-12 54l344 102q-18 33 -72 123l76 12q28 -42 66 -117l235 74l12 -57l-227 -68q84 -207 84 -465q0 -122 -18 -234 t-59.5 -217t-103 -182t-156 -123.5t-210.5 -46.5q-169 0 -266.5 107t-97.5 293zM152 389q0 -163 80 -255.5t219 -92.5q101 0 183.5 50.5t132 131.5t75.5 176t26 191q0 163 -79 253.5t-220 90.5q-81 0 -150 -32.5t-117.5 -87t-83 -125t-50.5 -147t-16 -153.5z" />
<glyph unicode="&#xf1;" horiz-adv-x="1032" d="M35 0l207 975h75l-41 -178l3 -2q41 78 136.5 141t223.5 63t197 -65.5t69 -188.5q0 -66 -24 -188l-117 -557h-76l113 537q28 136 28 198q0 93 -46.5 146t-161.5 53q-80 0 -149.5 -33t-117 -87.5t-78.5 -117t-45 -129.5l-120 -567h-76zM346 1180q8 35 26.5 67.5t58 59 t91.5 26.5t156 -53q88 -45 133 -45q24 0 42 7.5t30.5 24.5t19 29t15.5 35l57 -22q-44 -138 -166 -138q-60 0 -158 50q-56 28 -83.5 38.5t-51.5 10.5q-41 0 -68 -33.5t-40 -79.5z" />
<glyph unicode="&#xf2;" horiz-adv-x="1058" d="M74 379q0 92 20 180.5t62 168.5t100.5 140t142 95.5t181.5 35.5q169 0 267.5 -110.5t98.5 -294.5q0 -91 -20 -179t-61.5 -168t-100 -140.5t-142.5 -96t-182 -35.5q-170 0 -268 109.5t-98 294.5zM152 391q0 -162 79.5 -256t214.5 -94q81 0 151.5 33.5t119 89t83.5 126.5 t51.5 147t16.5 151q0 161 -81 253.5t-220 92.5q-80 0 -149 -32.5t-117 -87t-82 -125t-50.5 -146.5t-16.5 -152zM358 1393h129l215 -279h-79z" />
<glyph unicode="&#xf3;" horiz-adv-x="1058" d="M74 379q0 92 20 180.5t62 168.5t100.5 140t142 95.5t181.5 35.5q169 0 267.5 -110.5t98.5 -294.5q0 -91 -20 -179t-61.5 -168t-100 -140.5t-142.5 -96t-182 -35.5q-170 0 -268 109.5t-98 294.5zM152 391q0 -162 79.5 -256t214.5 -94q81 0 151.5 33.5t119 89t83.5 126.5 t51.5 147t16.5 151q0 161 -81 253.5t-220 92.5q-80 0 -149 -32.5t-117 -87t-82 -125t-50.5 -146.5t-16.5 -152zM561 1114l215 279h129l-264 -279h-80z" />
<glyph unicode="&#xf4;" horiz-adv-x="1058" d="M74 379q0 92 20 180.5t62 168.5t100.5 140t142 95.5t181.5 35.5q169 0 267.5 -110.5t98.5 -294.5q0 -91 -20 -179t-61.5 -168t-100 -140.5t-142.5 -96t-182 -35.5q-170 0 -268 109.5t-98 294.5zM152 391q0 -162 79.5 -256t214.5 -94q81 0 151.5 33.5t119 89t83.5 126.5 t51.5 147t16.5 151q0 161 -81 253.5t-220 92.5q-80 0 -149 -32.5t-117 -87t-82 -125t-50.5 -146.5t-16.5 -152zM344 1114l295 279h98l176 -279h-77l-156 215l-250 -215h-86z" />
<glyph unicode="&#xf5;" horiz-adv-x="1058" d="M74 379q0 92 20 180.5t62 168.5t100.5 140t142 95.5t181.5 35.5q169 0 267.5 -110.5t98.5 -294.5q0 -91 -20 -179t-61.5 -168t-100 -140.5t-142.5 -96t-182 -35.5q-170 0 -268 109.5t-98 294.5zM152 391q0 -162 79.5 -256t214.5 -94q81 0 151.5 33.5t119 89t83.5 126.5 t51.5 147t16.5 151q0 161 -81 253.5t-220 92.5q-80 0 -149 -32.5t-117 -87t-82 -125t-50.5 -146.5t-16.5 -152zM352 1180q8 35 26.5 67.5t58 59t91.5 26.5t156 -53q88 -45 133 -45q24 0 42 7.5t30.5 24.5t19 29t15.5 35l57 -22q-44 -138 -166 -138q-60 0 -158 50 q-56 28 -83.5 38.5t-51.5 10.5q-41 0 -68 -33.5t-40 -79.5z" />
<glyph unicode="&#xf6;" horiz-adv-x="1058" d="M74 379q0 92 20 180.5t62 168.5t100.5 140t142 95.5t181.5 35.5q169 0 267.5 -110.5t98.5 -294.5q0 -91 -20 -179t-61.5 -168t-100 -140.5t-142.5 -96t-182 -35.5q-170 0 -268 109.5t-98 294.5zM152 391q0 -162 79.5 -256t214.5 -94q81 0 151.5 33.5t119 89t83.5 126.5 t51.5 147t16.5 151q0 161 -81 253.5t-220 92.5q-80 0 -149 -32.5t-117 -87t-82 -125t-50.5 -146.5t-16.5 -152zM401 1157l39 186h84l-39 -186h-84zM778 1157l39 186h84l-39 -186h-84z" />
<glyph unicode="&#xf7;" horiz-adv-x="1712" d="M150 465v57h1376v-57h-1376zM788 0v233h99v-233h-99zM788 741v234h99v-234h-99z" />
<glyph unicode="&#xf8;" horiz-adv-x="1058" d="M-25 -25l158 160q-59 100 -59 244q0 92 20 180.5t62 168.5t100.5 140t142 95.5t181.5 35.5q180 0 278 -125l148 150l49 -43l-160 -162q51 -97 51 -225q0 -91 -20 -179t-61.5 -168t-100 -140.5t-142.5 -96t-182 -35.5q-173 0 -268 109l-149 -152zM152 391q0 -116 41 -196 l612 624q-82 115 -238 115q-80 0 -149 -32.5t-117 -87t-82 -125t-50.5 -146.5t-16.5 -152zM227 141q77 -100 219 -100q81 0 151.5 33.5t119 89t83.5 126.5t51.5 147t16.5 151q0 98 -30 172z" />
<glyph unicode="&#xf9;" horiz-adv-x="1015" d="M88 229q0 62 25 189l116 557h76l-112 -537q-29 -141 -29 -198q0 -94 43.5 -146.5t157.5 -52.5q77 0 144.5 33t114 87t77 117t44.5 130l121 567h76l-207 -975h-76l41 178l-2 2q-41 -79 -133.5 -142t-218.5 -63q-127 0 -192.5 65t-65.5 189zM379 1393h129l215 -279h-80z " />
<glyph unicode="&#xfa;" horiz-adv-x="1015" d="M88 229q0 62 25 189l116 557h76l-112 -537q-29 -141 -29 -198q0 -94 43.5 -146.5t157.5 -52.5q77 0 144.5 33t114 87t77 117t44.5 130l121 567h76l-207 -975h-76l41 178l-2 2q-41 -79 -133.5 -142t-218.5 -63q-127 0 -192.5 65t-65.5 189zM506 1114l215 279h129 l-264 -279h-80z" />
<glyph unicode="&#xfb;" horiz-adv-x="1015" d="M88 229q0 62 25 189l116 557h76l-112 -537q-29 -141 -29 -198q0 -94 43.5 -146.5t157.5 -52.5q77 0 144.5 33t114 87t77 117t44.5 130l121 567h76l-207 -975h-76l41 178l-2 2q-41 -79 -133.5 -142t-218.5 -63q-127 0 -192.5 65t-65.5 189zM330 1114l295 279h98l176 -279 h-78l-155 215l-250 -215h-86z" />
<glyph unicode="&#xfc;" horiz-adv-x="1015" d="M88 229q0 62 25 189l116 557h76l-112 -537q-29 -141 -29 -198q0 -94 43.5 -146.5t157.5 -52.5q77 0 144.5 33t114 87t77 117t44.5 130l121 567h76l-207 -975h-76l41 178l-2 2q-41 -79 -133.5 -142t-218.5 -63q-127 0 -192.5 65t-65.5 189zM389 1157l39 186h84l-39 -186 h-84zM766 1157l39 186h84l-39 -186h-84z" />
<glyph unicode="&#xfd;" horiz-adv-x="882" d="M-143 -383l16 74q41 -25 90 -25q54 0 92 34.5t88 113.5l133 209l-143 952h80l90 -606q29 -192 33 -258h2q26 54 135 233l375 631h86l-668 -1098q-86 -141 -121 -184q-77 -99 -184 -99q-58 0 -104 23zM471 1114l215 279h129l-264 -279h-80z" />
<glyph unicode="&#xfe;" horiz-adv-x="1089" d="M-49 -389l379 1782h76l-127 -592h2q40 77 132.5 136.5t209.5 59.5q160 0 257 -102t97 -291q0 -123 -34.5 -236.5t-96.5 -201t-156 -139.5t-205 -52q-270 0 -323 258h-2l-133 -622h-76zM197 383q0 -161 73 -251.5t219 -90.5q93 0 172.5 50t129.5 129.5t78 173t28 184.5 q0 160 -72.5 256t-216.5 96q-80 0 -148.5 -34.5t-116 -91.5t-81 -129t-49.5 -146.5t-16 -145.5z" />
<glyph unicode="&#xff;" horiz-adv-x="882" d="M-143 -383l16 74q41 -25 90 -25q54 0 92 34.5t88 113.5l133 209l-143 952h80l90 -606q29 -192 33 -258h2q26 54 135 233l375 631h86l-668 -1098q-86 -141 -121 -184q-77 -99 -184 -99q-58 0 -104 23zM334 1157l39 186h84l-39 -186h-84zM711 1157l39 186h84l-39 -186h-84z " />
<glyph unicode="&#x152;" horiz-adv-x="1882" d="M131 565q0 131 30.5 257t90.5 234.5t142 190.5t192.5 129t234.5 47q101 0 182 -27t123 -63l15 60h805l-17 -76h-723l-121 -559h648l-15 -76h-645l-133 -606h768l-14 -76h-850l10 45q-110 -45 -242 -45q-104 0 -191 34.5t-152 102.5t-101.5 177t-36.5 251zM219 573 q0 -240 111.5 -372.5t296.5 -132.5q131 0 239 49l240 1140q-32 37 -110.5 67t-174.5 30q-130 0 -243.5 -64t-191.5 -171.5t-122.5 -249.5t-44.5 -296z" />
<glyph unicode="&#x153;" horiz-adv-x="1800" d="M74 379q0 92 20 180.5t62 168.5t100.5 140t142 95.5t181.5 35.5q135 0 226 -73t124 -201q8 18 22 43q68 108 172 169.5t232 61.5q87 0 153.5 -29t106 -80.5t59 -116t19.5 -140.5q0 -62 -13 -129h-747q-8 -47 -8 -107q0 -71 16 -132t50 -113t95.5 -81.5t145.5 -29.5 q234 0 356 227l60 -41q-38 -71 -93 -123q-132 -129 -333 -129q-145 0 -236.5 70t-122.5 203q-64 -125 -171 -199t-253 -74q-170 0 -268 109.5t-98 294.5zM152 391q0 -162 79.5 -256t214.5 -94q81 0 151.5 33.5t119 89t83.5 126.5t51.5 147t16.5 151q0 161 -81 253.5 t-220 92.5q-80 0 -149 -32.5t-117 -87t-82 -125t-50.5 -146.5t-16.5 -152zM948 569h662q6 44 6 80q0 57 -14.5 106t-45 90.5t-85 65t-128.5 23.5q-79 0 -147.5 -32.5t-116.5 -86t-81 -116t-50 -130.5z" />
<glyph unicode="&#x178;" horiz-adv-x="1122" d="M182 1393h86l307 -719l607 719h92l-674 -797l-125 -596h-80l127 596zM506 1595l39 187h84l-39 -187h-84zM883 1595l39 187h84l-39 -187h-84z" />
<glyph unicode="&#x2c6;" horiz-adv-x="921" d="M262 1114l295 279h98l176 -279h-77l-156 215l-250 -215h-86z" />
<glyph unicode="&#x2dc;" horiz-adv-x="921" d="M266 1180q8 35 26.5 67.5t58 59t91.5 26.5t156 -53q88 -45 133 -45q24 0 42 7.5t30.5 24.5t19 29t15.5 35l57 -22q-44 -138 -166 -138q-60 0 -158 50q-56 28 -83.5 38.5t-51.5 10.5q-41 0 -68 -33.5t-40 -79.5z" />
<glyph unicode="&#x2000;" horiz-adv-x="929" />
<glyph unicode="&#x2001;" horiz-adv-x="1858" />
<glyph unicode="&#x2002;" horiz-adv-x="929" />
<glyph unicode="&#x2003;" horiz-adv-x="1858" />
<glyph unicode="&#x2004;" horiz-adv-x="619" />
<glyph unicode="&#x2005;" horiz-adv-x="464" />
<glyph unicode="&#x2006;" horiz-adv-x="309" />
<glyph unicode="&#x2007;" horiz-adv-x="309" />
<glyph unicode="&#x2008;" horiz-adv-x="232" />
<glyph unicode="&#x2009;" horiz-adv-x="371" />
<glyph unicode="&#x200a;" horiz-adv-x="103" />
<glyph unicode="&#x2010;" horiz-adv-x="829" d="M117 510l14 74h567l-14 -74h-567z" />
<glyph unicode="&#x2011;" horiz-adv-x="829" d="M117 510l14 74h567l-14 -74h-567z" />
<glyph unicode="&#x2012;" horiz-adv-x="829" d="M117 510l14 74h567l-14 -74h-567z" />
<glyph unicode="&#x2013;" horiz-adv-x="1304" d="M119 522l10 58h1042l-10 -58h-1042z" />
<glyph unicode="&#x2014;" horiz-adv-x="1693" d="M119 522l10 58h1432l-11 -58h-1431z" />
<glyph unicode="&#x2018;" horiz-adv-x="362" d="M193 860l57 270q9 43 13.5 63.5t13.5 56t16.5 53t20 41.5t25.5 35.5t32 21.5t41 12l-15 -65q-29 -10 -47 -56.5t-35 -134.5l-12 -61h39l-51 -236h-98z" />
<glyph unicode="&#x2019;" horiz-adv-x="360" d="M184 840l15 65q29 10 47 56.5t35 134.5l12 61h-39l51 236h98l-57 -271q-9 -43 -13.5 -63.5t-13.5 -55.5t-16.5 -52.5t-20 -41.5t-25.5 -36t-32 -21.5t-41 -11.5z" />
<glyph unicode="&#x201a;" horiz-adv-x="370" d="M-94 -293q60 69 91 128t50 138l6 27h-39l52 233h98l-35 -163q-29 -135 -52.5 -199.5t-76.5 -136.5q-25 -32 -51 -62z" />
<glyph unicode="&#x201c;" horiz-adv-x="645" d="M193 860l57 270q9 43 13.5 63.5t13.5 56t16.5 53t20 41.5t25.5 35.5t32 21.5t41 12l-15 -65q-29 -10 -47 -56.5t-35 -134.5l-12 -61h39l-51 -236h-98zM475 860l57 270q9 43 13.5 63.5t13.5 56t16.5 53t20 41.5t25.5 35.5t32 21.5t41 12l-14 -65q-29 -10 -47 -56.5 t-35 -134.5l-12 -61h39l-52 -236h-98z" />
<glyph unicode="&#x201d;" horiz-adv-x="643" d="M184 840l15 65q29 10 47 56.5t35 134.5l12 61h-39l51 236h98l-57 -271q-9 -43 -13.5 -63.5t-13.5 -55.5t-16.5 -52.5t-20 -41.5t-25.5 -36t-32 -21.5t-41 -11.5zM467 840l14 65q29 10 47 56.5t35 134.5l12 61h-38l51 236h98l-57 -271q-9 -43 -13.5 -63.5t-13.5 -55.5 t-16.5 -52.5t-20 -41.5t-25.5 -36t-32 -21.5t-41 -11.5z" />
<glyph unicode="&#x201e;" horiz-adv-x="659" d="M-94 -293q60 69 91 128t50 138l6 27h-39l52 233h98l-35 -163q-29 -135 -52.5 -199.5t-76.5 -136.5q-25 -32 -51 -62zM195 -293q60 69 91 128t50 138l6 27h-39l51 233h99l-35 -163q-29 -135 -52.5 -199.5t-76.5 -136.5q-25 -32 -51 -62z" />
<glyph unicode="&#x2022;" horiz-adv-x="727" d="M186 702q0 79 58.5 137t138.5 58q82 0 141.5 -58t59.5 -137q0 -83 -59.5 -140.5t-141.5 -57.5q-80 0 -138.5 58t-58.5 140z" />
<glyph unicode="&#x2026;" horiz-adv-x="1734" d="M14 0l52 233h98l-51 -233h-99zM696 0l52 233h98l-51 -233h-99zM1380 0l52 233h98l-51 -233h-99z" />
<glyph unicode="&#x202f;" horiz-adv-x="371" />
<glyph unicode="&#x2039;" horiz-adv-x="503" d="M104 578l15 71l340 297l-27 -119l-258 -219l152 -278l-25 -115z" />
<glyph unicode="&#x203a;" horiz-adv-x="499" d="M43 215l27 119l258 219l-152 278l25 115l194 -368l-14 -72z" />
<glyph unicode="&#x205f;" horiz-adv-x="464" />
<glyph unicode="&#x20ac;" horiz-adv-x="1267" d="M57 516l41 66h129q9 119 35 227h-141l39 65h119q34 115 88 211.5t126 171t165 117t198 43.5q47 0 93 -9.5t95 -35t89 -64t73 -102t49 -143.5l-71 -39q-28 151 -114.5 236.5t-223.5 85.5q-90 0 -169 -37.5t-139 -104t-104.5 -149t-75.5 -181.5h564l-39 -65h-543 q-31 -150 -35 -227h553l-39 -66h-516q1 -127 28 -220.5t76 -147t110.5 -78.5t137.5 -25q127 0 232.5 79.5t175.5 215.5l57 -41q-177 -324 -475 -324q-208 0 -314 140.5t-106 384.5v16h-168z" />
<glyph unicode="&#x2122;" horiz-adv-x="1933" d="M270 1327v66h658v-66h-295v-829h-70v829h-293zM1044 498v895h103l231 -641q14 -38 27.5 -80.5t20.5 -65.5l6 -24q18 82 49 170l215 641h102v-895h-69v628q0 97 4 179h-4q-11 -44 -39 -129l-232 -678h-59l-244 673l-41 134h-4q4 -109 4 -195v-612h-70z" />
<glyph unicode="&#x25fc;" horiz-adv-x="972" d="M0 0v973h973v-973h-973z" />
</font>
</defs>
</svg>
