<?xml version="1.0" standalone="no"?>
<!DOCTYPE svg PUBLIC "-//W3C//DTD SVG 1.1//EN" "http://www.w3.org/Graphics/SVG/1.1/DTD/svg11.dtd" >
<svg xmlns="http://www.w3.org/2000/svg">
<metadata></metadata>
<defs>
<font id="theinhardtbold" horiz-adv-x="1208" >
<font-face units-per-em="2048" ascent="1642" descent="-406" />
<missing-glyph horiz-adv-x="409" />
<glyph unicode="&#xfb01;" horiz-adv-x="1267" d="M41 764v211h162v106q0 145 59 226q71 98 281 98q94 0 180 -12v-226q-36 4 -82 4q-79 0 -111 -26q-28 -25 -28 -88v-82h221v-211h-221v-764h-299v764h-162zM850 0v975h299v-975h-299zM850 1100v293h299v-293h-299z" />
<glyph unicode="&#xfb02;" horiz-adv-x="1298" d="M41 764v211h162v106q0 145 59 226q71 98 281 98q94 0 180 -12v-226q-36 4 -82 4q-79 0 -111 -26q-28 -25 -28 -88v-82h221v-211h-221v-764h-299v764h-162zM868 0v1393h299v-1393h-299z" />
<glyph horiz-adv-x="2048" />
<glyph horiz-adv-x="2048" />
<glyph unicode="&#xd;" horiz-adv-x="2048" />
<glyph unicode=" "  horiz-adv-x="409" />
<glyph unicode="&#x09;" horiz-adv-x="409" />
<glyph unicode="&#xa0;" horiz-adv-x="409" />
<glyph unicode="!" horiz-adv-x="565" d="M133 0v324h299v-324h-299zM135 836v557h295v-557l-24 -400h-242z" />
<glyph unicode="&#x22;" horiz-adv-x="905" d="M96 1196v197h303v-197l-59 -448h-190zM508 1196v197h303v-197l-59 -448h-191z" />
<glyph unicode="#" horiz-adv-x="1423" d="M70 301v270h266l31 191h-240v270h283l59 361h270l-59 -361h180l60 361h270l-60 -361h222v-270h-265l-30 -191h237v-270h-280l-49 -301h-273l49 301h-178l-49 -301h-272l49 301h-221zM606 571h180l31 191h-180z" />
<glyph unicode="$" horiz-adv-x="1310" d="M55 274l211 183q69 -93 175.5 -153t238.5 -60q118 0 184 43.5t66 118.5q0 65 -49 94t-156 49l-176 33q-102 20 -175.5 47.5t-136 73t-94.5 116.5t-32 168q0 156 113 266.5t298 139.5v174h273v-178q241 -42 393 -201l-193 -184q-156 149 -354 149q-96 0 -155.5 -37.5 t-59.5 -101.5q0 -63 44.5 -96.5t141.5 -53.5l222 -43q204 -41 307.5 -130.5t103.5 -260.5q0 -179 -123.5 -292t-326.5 -140v-186h-273v190q-161 29 -282.5 107.5t-184.5 164.5z" />
<glyph unicode="%" horiz-adv-x="2013" d="M59 965q0 68 10.5 130t36.5 122t65.5 103.5t102.5 70t142 26.5q83 0 146.5 -28.5t101 -73t61.5 -106t32.5 -120.5t8.5 -124q0 -84 -21 -159t-62.5 -136t-111 -97t-159.5 -36q-92 0 -162.5 36.5t-110.5 98.5t-60 136t-20 157zM297 977q0 -103 28.5 -169.5t88.5 -66.5 q64 0 93.5 61.5t29.5 160.5q0 114 -31.5 180.5t-91.5 66.5q-57 0 -87 -65t-30 -168zM512 0l725 1393h260l-721 -1393h-264zM1247 403q0 68 10.5 130t36.5 122t65.5 103.5t102.5 70.5t142 27q83 0 146.5 -28.5t101 -73t61.5 -106.5t32.5 -121t8.5 -124q0 -84 -21 -159 t-63 -136t-111.5 -97t-159.5 -36q-92 0 -162 36.5t-110.5 98.5t-60 136t-19.5 157zM1485 416q0 -103 28.5 -169.5t88.5 -66.5q64 0 93 61t29 160q0 114 -31 181t-91 67q-57 0 -87 -65t-30 -168z" />
<glyph unicode="&#x26;" horiz-adv-x="1353" d="M94 393q0 242 291 393q-27 34 -44.5 58.5t-39.5 64.5t-33.5 86t-11.5 97q0 136 99.5 229.5t267.5 93.5q174 0 268 -87.5t94 -225.5q0 -111 -55.5 -197t-167.5 -162q145 -168 145 -170q21 75 37 181l238 -52q-33 -215 -90 -348l303 -354h-348l-117 133 q-150 -156 -381 -156q-208 0 -331.5 110t-123.5 306zM358 399q0 -84 59.5 -129t149.5 -45q63 0 120.5 23t88.5 65l-248 303q-82 -47 -126 -97.5t-44 -119.5zM518 1098q0 -74 92 -176q52 33 81.5 81t29.5 93q0 48 -28.5 74t-71.5 26q-46 0 -74.5 -26.5t-28.5 -71.5z" />
<glyph unicode="'" horiz-adv-x="493" d="M96 1196v197h303v-197l-59 -448h-190z" />
<glyph unicode="(" horiz-adv-x="626" d="M76 518q0 437 258 875h268q-233 -414 -233 -850q0 -434 229 -867h-266q-256 405 -256 842z" />
<glyph unicode=")" horiz-adv-x="626" d="M25 1393h268q258 -438 258 -875t-256 -842h-266q229 433 229 867q0 436 -233 850z" />
<glyph unicode="*" horiz-adv-x="991" d="M59 979l76 221l250 -92l-6 285h233l-6 -285l250 92l76 -221l-254 -80l174 -205l-193 -147l-163 219l-164 -219l-193 147l174 205z" />
<glyph unicode="+" horiz-adv-x="1339" d="M63 467v283h465v475h285v-475h463v-283h-463v-467h-285v467h-465z" />
<glyph unicode="," horiz-adv-x="546" d="M111 0v362h325v-221q0 -165 -22 -243q-32 -105 -101 -154.5t-202 -52.5v157q74 5 110.5 40.5t36.5 111.5h-147z" />
<glyph unicode="-" horiz-adv-x="813" d="M115 461v282h581v-282h-581z" />
<glyph unicode="." horiz-adv-x="546" d="M111 0v365h325v-365h-325z" />
<glyph unicode="/" horiz-adv-x="1132" d="M43 0l735 1393h312l-734 -1393h-313z" />
<glyph unicode="0" d="M80 688q0 109 14 207t51 196t94.5 168t151 114t213.5 44q118 0 209.5 -42.5t149 -111t95 -165.5t53 -196.5t17.5 -213.5q0 -106 -13 -200t-49 -191t-92.5 -166t-151.5 -112.5t-218 -43.5q-115 0 -206 41t-149.5 109t-97.5 162t-55 193t-16 208zM389 688q0 -68 3.5 -121.5 t16.5 -115t35.5 -102.5t63 -68t96.5 -27q41 0 73.5 14t54.5 37t38.5 58t25.5 71t14.5 82.5t7 85t1.5 86.5q0 69 -4 125t-17.5 119.5t-35.5 106.5t-62.5 71.5t-95.5 28.5t-95.5 -28.5t-62.5 -71.5t-35.5 -106.5t-17.5 -119.5t-4 -125z" />
<glyph unicode="1" d="M207 852v244h69q158 0 238 59q101 73 107 238h274v-1393h-303v852h-385z" />
<glyph unicode="2" d="M102 0v209q187 131 428 350q46 41 72.5 66.5t66 71t61.5 83t39 87.5t17 100q0 93 -51 144.5t-141 51.5q-99 0 -147 -63.5t-48 -159.5q0 -64 19 -129l-291 25q-25 80 -25 149q0 189 139 310.5t373 121.5q228 0 357 -118t129 -318q0 -75 -19.5 -144.5t-49 -123.5t-78 -111 t-92 -97.5t-105.5 -92.5q-105 -83 -205 -152h545v-260h-994z" />
<glyph unicode="3" d="M74 412l282 34q16 -104 71.5 -160.5t162.5 -56.5q111 0 163 56.5t52 138.5q0 144 -150 172q-45 10 -112 10h-129v236h116q82 0 123 12q123 34 123 162q0 74 -51.5 113.5t-134.5 39.5q-185 0 -215 -182l-269 29q3 83 37.5 156t96 127.5t154 86t204.5 31.5 q228 0 350.5 -99.5t122.5 -260.5q0 -207 -197 -312q48 -19 86 -43.5t75.5 -63.5t58 -99t20.5 -136q0 -187 -136.5 -307.5t-387.5 -120.5q-242 0 -373 115.5t-143 321.5z" />
<glyph unicode="4" d="M45 305v223l619 865h284v-836h203v-252h-203v-305h-268v305h-635zM350 555q90 2 172 2h158v231l4 242h-4q-43 -76 -100 -156l-125 -176l-105 -141v-2z" />
<glyph unicode="5" d="M100 336l275 80q11 -79 66 -132t147 -53q105 0 159 64t54 182q0 116 -59.5 175t-155.5 59q-81 0 -132 -42.5t-71 -115.5l-262 59l104 781h822l-25 -260h-569l-41 -250q107 75 250 75q195 0 320.5 -127.5t125.5 -338.5q0 -236 -133.5 -376.5t-380.5 -140.5 q-116 0 -207 30.5t-148 84t-90.5 114.5t-48.5 132z" />
<glyph unicode="6" d="M88 676q0 348 144.5 544.5t404.5 196.5q95 0 171.5 -24t126 -61t86.5 -89.5t55.5 -102t29.5 -106.5l-272 -55q-41 186 -201 186q-119 0 -181.5 -94.5t-64.5 -247.5q109 109 293 109q189 0 315.5 -123.5t126.5 -333.5q0 -225 -138.5 -362.5t-365.5 -137.5q-264 0 -397 172 t-133 529zM389 532q0 -56 11.5 -107t36.5 -97t71.5 -73.5t109.5 -27.5q99 0 155 59.5t56 170.5q0 114 -60 170.5t-148 56.5q-66 0 -131 -31t-99 -82q0 -6 -1 -19.5t-1 -19.5z" />
<glyph unicode="7" d="M90 938v455h1055v-238q-117 -140 -201 -295q-221 -405 -264 -860h-324q16 191 113 477q139 391 340 656h-428v-195h-291z" />
<glyph unicode="8" d="M82 389q0 117 63 201.5t166 128.5q-190 102 -190 311q0 175 130 281t353 106t353 -106t130 -281q0 -209 -190 -311q103 -44 166 -128.5t63 -201.5q0 -139 -71 -234t-186 -137.5t-265 -42.5q-105 0 -196 23.5t-165.5 71t-117.5 129.5t-43 190zM379 414q0 -84 59 -131 t166 -47t166 47t59 131q0 81 -58 130.5t-167 49.5t-167 -49.5t-58 -130.5zM401 1001q0 -72 49.5 -123t153.5 -51t153.5 51.5t49.5 122.5q0 70 -50.5 120t-152.5 50t-152.5 -50t-50.5 -120z" />
<glyph unicode="9" d="M86 918q0 224 138.5 361.5t365.5 137.5q266 0 398 -171t132 -529q0 -349 -144.5 -545.5t-404.5 -196.5q-95 0 -171.5 24t-126 61t-86.5 89.5t-55.5 102t-29.5 106.5l273 56q41 -185 200 -185q120 0 182 94t64 246q-108 -108 -293 -108q-189 0 -315.5 123.5t-126.5 333.5z M379 938q0 -114 60.5 -170.5t148.5 -56.5q66 0 130.5 30.5t98.5 81.5q0 6 1 19.5t1 19.5q0 56 -11.5 107t-36.5 97t-71.5 73.5t-109.5 27.5q-100 0 -155.5 -59t-55.5 -170z" />
<glyph unicode=":" horiz-adv-x="587" d="M131 0v365h326v-365h-326zM131 610v365h326v-365h-326z" />
<glyph unicode=";" horiz-adv-x="585" d="M131 0v362h326v-221q0 -161 -23 -243q-32 -105 -101 -154.5t-202 -52.5v157q74 5 111 40.5t37 111.5h-148zM131 610v365h326v-365h-326z" />
<glyph unicode="&#x3c;" horiz-adv-x="1552" d="M57 565v230l1391 614v-299l-999 -426l999 -438v-299z" />
<glyph unicode="=" horiz-adv-x="1642" d="M131 262v258h1380v-258h-1380zM131 680v258h1380v-258h-1380z" />
<glyph unicode="&#x3e;" horiz-adv-x="1552" d="M104 -53v299l1000 438l-1000 426v299l1391 -614v-230z" />
<glyph unicode="?" horiz-adv-x="1046" d="M59 1004q0 179 123 296t334 117q99 0 179.5 -23t133.5 -61.5t89 -91.5t51.5 -111t15.5 -122q0 -103 -44 -197.5t-134 -165.5l-76 -59q-65 -51 -87.5 -83.5t-22.5 -92.5v-39h-279v51q0 105 31.5 172t128.5 149l78 66q102 81 102 195q0 77 -43.5 118t-122.5 41 q-85 0 -126.5 -51.5t-41.5 -130.5q0 -72 33 -143l-303 26q-19 74 -19 140zM328 0v295h311v-295h-311z" />
<glyph unicode="@" horiz-adv-x="1673" d="M76 451q0 228 105.5 412t289 287t408.5 103q146 0 267 -39.5t203 -106t139 -156.5t83 -189t26 -205q0 -273 -108.5 -406t-290.5 -133q-71 0 -119.5 24t-62.5 64q-87 -79 -254 -79q-138 0 -219.5 69.5t-81.5 200.5q0 120 74 177.5t225 86.5l174 33q33 6 42 13t9 28v6 q0 49 -29 73.5t-94 24.5q-74 0 -106.5 -30t-32.5 -97l-234 11q-3 146 102.5 219t285.5 73q171 0 259.5 -58.5t88.5 -192.5v-402q0 -61 39 -61q50 0 88.5 98.5t38.5 228.5q0 149 -57 267.5t-174 191t-277 72.5q-123 0 -231 -44t-186 -122.5t-123.5 -192t-45.5 -245.5 q0 -144 48 -262.5t131 -196t193 -120t234 -42.5q308 0 514 201l94 -158q-44 -42 -98.5 -79t-131.5 -73t-179 -57.5t-215 -21.5q-173 0 -319 51.5t-256.5 149.5t-173 253t-62.5 351zM713 301q0 -51 32.5 -77.5t90.5 -26.5q147 0 147 139v102q-22 -6 -65 -14l-62 -12 q-72 -15 -107.5 -39t-35.5 -72z" />
<glyph unicode="A" horiz-adv-x="1323" d="M6 0l469 1393h375l465 -1393h-332l-82 276h-489l-80 -276h-326zM487 530h334l-114 394l-48 180h-2q-24 -92 -51 -182z" />
<glyph unicode="B" horiz-adv-x="1368" d="M150 0v1393h593q122 0 193 -13t125 -41q180 -97 180 -307q0 -113 -62 -188t-157 -107v-2q120 -36 195 -121t75 -223q0 -228 -188 -332q-58 -31 -130.5 -45t-203.5 -14h-620zM455 260h258q87 0 128.5 6t69.5 25q66 40 66 145q0 58 -26.5 97.5t-73.5 54.5q-52 14 -164 14 h-258v-342zM455 838h250q85 0 122.5 7t65.5 32q43 40 43 114q0 79 -53 113q-27 18 -65 24.5t-111 6.5h-252v-297z" />
<glyph unicode="C" horiz-adv-x="1363" d="M78 696q0 212 81.5 376t233 254.5t350.5 90.5q112 0 207.5 -28.5t165.5 -79.5t120 -112.5t83 -135.5l-258 -109q-88 211 -313 211q-171 0 -266 -124t-95 -343t93.5 -339.5t267.5 -120.5q220 0 307 190l254 -121q-167 -330 -566 -330q-204 0 -356 91.5t-230.5 254 t-78.5 375.5z" />
<glyph unicode="D" horiz-adv-x="1433" d="M150 0v1393h512q114 0 203 -12.5t167 -51.5q156 -75 238 -245t82 -384q0 -177 -54 -318t-153 -237q-36 -36 -73.5 -61t-85 -41t-85 -25t-102 -13t-104.5 -4.5t-124 -0.5h-421zM457 289h141q89 0 135 2.5t101 19t88 49.5q48 48 79 134.5t31 197.5q0 109 -33 197t-92 139 q-51 43 -125.5 57.5t-206.5 14.5h-118v-811z" />
<glyph unicode="E" horiz-adv-x="1251" d="M150 0v1393h978v-273h-671v-274h606v-271h-606v-301h719v-274h-1026z" />
<glyph unicode="F" horiz-adv-x="1124" d="M150 0v1393h903v-273h-594v-274h567v-277h-567v-569h-309z" />
<glyph unicode="G" horiz-adv-x="1433" d="M78 696q0 212 81.5 376t233 254.5t350.5 90.5q112 0 207.5 -28.5t165.5 -79.5t120 -112.5t83 -135.5l-258 -109q-88 211 -313 211q-171 0 -267 -124t-96 -343q0 -223 95 -348t270 -125q145 0 221.5 81t89.5 214h-395v273h661v-791h-270v123q-50 -61 -146 -104.5 t-217 -43.5q-187 0 -327.5 91.5t-214.5 254.5t-74 375z" />
<glyph unicode="H" horiz-adv-x="1433" d="M150 0v1393h309v-537h516v537h309v-1393h-309v578h-516v-578h-309z" />
<glyph unicode="I" horiz-adv-x="608" d="M150 0v1393h309v-1393h-309z" />
<glyph unicode="J" horiz-adv-x="841" d="M41 -4v274q83 -22 162 -22q108 0 145 43q24 27 33.5 74.5t9.5 136.5v891h309v-957q0 -210 -63 -311q-107 -150 -408 -150q-80 0 -188 21z" />
<glyph unicode="K" horiz-adv-x="1404" d="M150 0v1393h309v-559l540 559h402l-565 -568l567 -825h-387l-410 598l-147 -149v-449h-309z" />
<glyph unicode="L" horiz-adv-x="1050" d="M150 0v1393h309v-1114h557v-279h-866z" />
<glyph unicode="M" horiz-adv-x="1724" d="M150 0v1393h460l181 -691q18 -68 36.5 -152t27.5 -134l9 -51h2q33 185 76 337l191 691h442v-1393h-295v451q0 131 10 362t17 320q-43 -218 -84 -357l-224 -776h-294l-205 815l-74 320q4 -74 11 -314.5t7 -365.5v-455h-294z" />
<glyph unicode="N" horiz-adv-x="1445" d="M150 0v1393h313l334 -545q49 -81 100 -170t77 -138l27 -48h3q-13 274 -13 436v465h305v-1393h-311l-330 537q-35 57 -87.5 150.5t-87.5 158.5l-36 65h-2q15 -231 15 -454v-457h-307z" />
<glyph unicode="O" horiz-adv-x="1503" d="M78 696q0 213 82 376t235.5 254t356.5 91t356.5 -91t235 -254t81.5 -376q0 -160 -45 -292.5t-129.5 -227.5t-212 -148t-286.5 -53q-208 0 -362 91.5t-233 254t-79 375.5zM387 696q0 -220 94 -340t271 -120q176 0 270 120t94 340q0 219 -96 343t-268 124 q-174 0 -269.5 -123.5t-95.5 -343.5z" />
<glyph unicode="P" horiz-adv-x="1316" d="M150 0v1393h532q211 0 326 -45q124 -49 194 -152.5t70 -251.5q0 -130 -48 -217t-147 -147q-79 -46 -173 -61t-238 -15h-207v-504h-309zM459 776h243q114 0 168 25q46 19 68.5 54t22.5 93q0 115 -93 154q-54 20 -168 20h-241v-346z" />
<glyph unicode="Q" horiz-adv-x="1531" d="M78 696q0 213 82 376t235.5 254t356.5 91t356.5 -91t235 -254t81.5 -376q0 -219 -79 -377l172 -159l-228 -219l-141 147q-166 -113 -397 -113q-208 0 -362 91.5t-233 254t-79 375.5zM387 696q0 -220 94 -340t271 -120q176 0 270 120t94 340q0 219 -96 343t-268 124 q-174 0 -269.5 -123.5t-95.5 -343.5z" />
<glyph unicode="R" horiz-adv-x="1370" d="M150 0v1393h522q222 0 332 -43q127 -52 197.5 -151.5t70.5 -248.5q0 -157 -77.5 -259t-215.5 -140l346 -551h-350l-311 512h-207v-512h-307zM457 778h243q146 0 201 37q66 43 66 135t-66 135q-55 37 -201 37h-243v-344z" />
<glyph unicode="S" horiz-adv-x="1312" d="M41 266l215 185q72 -96 179.5 -157t242.5 -61q121 0 188.5 44.5t67.5 121.5q0 67 -50.5 96.5t-158.5 49.5l-180 35q-82 16 -144.5 35.5t-121.5 52.5t-97.5 76t-61 106t-22.5 143q0 123 70.5 220t193 150.5t273.5 53.5q178 0 322.5 -59.5t238.5 -159.5l-197 -188 q-158 151 -360 151q-98 0 -158.5 -38t-60.5 -103t45 -98.5t145 -53.5l226 -45q101 -20 175 -49.5t130.5 -76t85 -115t28.5 -158.5q0 -141 -78 -244t-209 -154t-298 -51q-114 0 -220.5 28t-184.5 73.5t-133.5 93t-90.5 96.5z" />
<glyph unicode="T" horiz-adv-x="1159" d="M43 1116v277h1073v-277h-381v-1116h-309v1116h-383z" />
<glyph unicode="U" horiz-adv-x="1392" d="M137 567v826h309v-820q0 -88 6 -131.5t21 -83.5q51 -116 223 -116q175 0 226 116q14 31 19 75.5t5 139.5v820h309v-826q0 -152 -15.5 -233.5t-55.5 -149.5q-118 -209 -488 -209q-369 0 -487 209q-40 69 -56 150.5t-16 232.5z" />
<glyph unicode="V" horiz-adv-x="1261" d="M20 1393h324l236 -867l51 -192h2q22 94 47 190l235 869h330l-420 -1393h-393z" />
<glyph unicode="W" horiz-adv-x="1947" d="M31 1393h323l95 -428q19 -88 47.5 -240t47.5 -261l19 -108h2q59 278 135 572l119 465h299l131 -480q30 -109 64 -244.5t53 -216.5l18 -81h5q57 324 120 616l86 406h322l-340 -1393h-358l-123 449q-27 99 -57.5 227t-46.5 206l-17 79h-2q-47 -224 -121 -502l-123 -459 h-360z" />
<glyph unicode="X" horiz-adv-x="1392" d="M-16 0l526 725l-477 668h385l289 -424l278 424h375l-481 -650l530 -743h-383l-338 508l-348 -508h-356z" />
<glyph unicode="Y" horiz-adv-x="1314" d="M2 1393h356l308 -535l315 535h354l-528 -838v-555h-309v557z" />
<glyph unicode="Z" horiz-adv-x="1222" d="M74 0v250l659 866h-635v277h1039v-228l-666 -886h668v-279h-1065z" />
<glyph unicode="[" horiz-adv-x="686" d="M133 -324v1717h488v-222h-193v-1273h193v-222h-488z" />
<glyph unicode="\" horiz-adv-x="1134" d="M43 1393h311l738 -1393h-314z" />
<glyph unicode="]" horiz-adv-x="686" d="M66 -102h192v1273h-192v222h487v-1717h-487v222z" />
<glyph unicode="^" horiz-adv-x="931" d="M-45 627l385 766h231l369 -766h-330l-159 342l-160 -342h-336z" />
<glyph unicode="_" horiz-adv-x="1400" d="M162 -111h1077v-282h-1077v282z" />
<glyph unicode="`" horiz-adv-x="1024" d="M252 1393h362l136 -297h-256z" />
<glyph unicode="a" horiz-adv-x="1093" d="M70 287q0 149 123 223q84 50 239 74l189 30q40 6 50.5 14t10.5 31v17q0 115 -143 115q-162 0 -162 -142l-277 2v8q0 160 117 247q120 89 334 89q198 0 302.5 -70t104.5 -229v-452q0 -47 10.5 -64.5t41.5 -17.5h14v-172q-70 -13 -139 -13q-162 0 -187 89h-2 q-87 -91 -274 -91q-163 0 -257.5 82t-94.5 230zM367 285q0 -58 39 -86.5t106 -28.5q77 0 122.5 36.5t45.5 110.5v125q-33 -13 -109 -30l-67 -15q-68 -14 -96 -32q-41 -24 -41 -80z" />
<glyph unicode="b" horiz-adv-x="1230" d="M123 0v1393h299v-508q40 46 116.5 80t168.5 34q208 0 331 -140t123 -372q0 -224 -126 -368t-328 -144q-189 0 -285 113v-88h-299zM414 487q0 -127 61.5 -205.5t161.5 -78.5q104 0 162.5 76.5t58.5 207.5q0 135 -57 211t-164 76q-100 0 -161.5 -79.5t-61.5 -207.5z" />
<glyph unicode="c" horiz-adv-x="1091" d="M70 483q0 243 141 379.5t375 136.5q98 0 178 -24.5t134.5 -68t90.5 -96t55 -114.5l-258 -88q-45 166 -200 166q-103 0 -158 -75.5t-55 -211.5q0 -135 55.5 -209.5t157.5 -74.5q146 0 194 143l254 -104q-21 -54 -57 -100t-89.5 -84.5t-131 -60.5t-170.5 -22 q-235 0 -375.5 132.5t-140.5 375.5z" />
<glyph unicode="d" horiz-adv-x="1230" d="M70 487q0 224 126 368t328 144q99 0 171.5 -31.5t113.5 -80.5v506h299v-1393h-299v90q-41 -46 -117.5 -80.5t-169.5 -34.5q-206 0 -329 140.5t-123 371.5zM373 487q0 -135 57 -210.5t164 -75.5q100 0 161.5 79t61.5 207q0 127 -61.5 206t-161.5 79q-104 0 -162.5 -77 t-58.5 -208z" />
<glyph unicode="e" horiz-adv-x="1118" d="M70 492q0 227 139.5 367t359.5 140q156 0 268 -71t165 -188.5t53 -268.5q0 -43 -2 -61h-695q8 -85 69.5 -142t166.5 -57q88 0 149.5 41t92.5 94l206 -139q-20 -29 -44.5 -56t-67.5 -60.5t-91.5 -58t-117.5 -41t-146 -16.5q-221 0 -363 138.5t-142 378.5zM358 602h408 q-5 86 -57.5 138.5t-141.5 52.5q-86 0 -146 -56.5t-63 -134.5z" />
<glyph unicode="f" horiz-adv-x="755" d="M39 772v203h162v106q0 145 59 226q71 98 281 98q94 0 180 -12v-226q-36 4 -82 4q-79 0 -111 -26q-28 -25 -28 -88v-82h221v-203h-221v-772h-299v772h-162z" />
<glyph unicode="g" horiz-adv-x="1226" d="M70 508q0 207 127.5 349t322.5 142q93 0 168.5 -30t118.5 -78v84h299v-875q0 -265 -119 -379t-407 -114q-457 0 -486 356l279 21q14 -73 61.5 -113.5t151.5 -40.5q118 0 168.5 51.5t50.5 167.5v70q-35 -41 -108 -74t-181 -33q-201 0 -323.5 137.5t-122.5 358.5zM371 504 q0 -126 58 -198.5t161 -72.5q98 0 160.5 75t62.5 196q0 120 -63 194t-160 74q-100 0 -159.5 -73t-59.5 -195z" />
<glyph unicode="h" horiz-adv-x="1165" d="M123 0v1393h299v-533q38 61 114 100t175 39q171 0 256 -94q48 -55 67 -126.5t19 -225.5v-553h-299v492q0 54 -2 85t-10 67.5t-24 55.5t-45.5 32t-72.5 13q-90 0 -134 -63t-44 -168v-514h-299z" />
<glyph unicode="i" horiz-adv-x="546" d="M123 0v975h301v-975h-301zM123 1100v293h301v-293h-301z" />
<glyph unicode="j" horiz-adv-x="548" d="M-37 -135h19q75 0 108 24.5t33 104.5v981h303v-1026q0 -109 -27 -176q-32 -79 -106.5 -112.5t-212.5 -33.5q-63 0 -117 4v234zM123 1100v293h303v-293h-303z" />
<glyph unicode="k" horiz-adv-x="1159" d="M123 0v1393h299v-740l311 322h395l-397 -379l426 -596h-369l-272 397l-94 -88v-309h-299z" />
<glyph unicode="l" horiz-adv-x="561" d="M131 0v1393h299v-1393h-299z" />
<glyph unicode="m" horiz-adv-x="1767" d="M123 0v975h295v-121q37 63 112 104t172 41q227 0 304 -176q38 71 121 123.5t192 52.5q165 0 250 -94q48 -55 67 -126.5t19 -225.5v-553h-299v492q0 41 -0.5 62t-3 53t-8 48t-16.5 36.5t-26.5 30t-39 16.5t-54.5 7q-88 0 -129 -62.5t-41 -168.5v-514h-299v492 q0 40 -0.5 62t-3.5 53.5t-8.5 48t-16 36.5t-26.5 29.5t-39.5 16.5t-54.5 7q-86 0 -127 -62.5t-41 -168.5v-514h-299z" />
<glyph unicode="n" horiz-adv-x="1165" d="M123 0v975h295v-121q37 63 115 104t178 41q171 0 256 -94q48 -55 67 -126.5t19 -225.5v-553h-299v492q0 54 -2 85t-10 67.5t-24 55.5t-45.5 32t-72.5 13q-90 0 -134 -63t-44 -168v-514h-299z" />
<glyph unicode="o" horiz-adv-x="1173" d="M70 483q0 243 141 379.5t375 136.5q235 0 376.5 -136.5t141.5 -379.5q0 -242 -141 -375t-377 -133q-235 0 -375.5 132.5t-140.5 375.5zM373 487q0 -135 55.5 -209.5t157.5 -74.5t158.5 75t56.5 209q0 137 -55.5 212t-159.5 75q-103 0 -158 -75.5t-55 -211.5z" />
<glyph unicode="p" horiz-adv-x="1230" d="M123 -369v1344h299v-90q40 46 116.5 80t168.5 34q208 0 331 -140t123 -372q0 -224 -126 -368t-328 -144q-189 0 -285 113v-457h-299zM414 487q0 -127 61.5 -205.5t161.5 -78.5q104 0 162.5 76.5t58.5 207.5q0 135 -57 211t-164 76q-100 0 -161.5 -79.5t-61.5 -207.5z" />
<glyph unicode="q" horiz-adv-x="1230" d="M70 487q0 224 126 368t328 144q190 0 285 -112v88h299v-1344h-299v459q-41 -46 -117 -80.5t-168 -34.5q-208 0 -331 140t-123 372zM373 487q0 -135 57 -210.5t164 -75.5q100 0 161.5 79t61.5 207q0 127 -61.5 206t-161.5 79q-104 0 -162.5 -77t-58.5 -208z" />
<glyph unicode="r" horiz-adv-x="772" d="M123 0v975h295v-133q22 60 99.5 107.5t174.5 47.5q23 0 35 -2v-286q-49 12 -96 12q-157 0 -195 -137q-14 -52 -14 -131v-453h-299z" />
<glyph unicode="s" horiz-adv-x="1021" d="M39 195l188 151q46 -65 130.5 -107t181.5 -42q74 0 112.5 23t38.5 63q0 16 -7.5 28t-16.5 19t-29.5 13.5t-32.5 9t-39 7.5l-153 31q-156 29 -242 103q-84 71 -84 190q0 83 37 146t99 98.5t133 53t147 17.5q131 0 240 -43.5t186 -117.5l-168 -160q-116 106 -264 106 q-55 0 -91 -18t-36 -53q0 -36 31.5 -53t113.5 -33l154 -33q66 -14 115 -33t93.5 -50.5t68.5 -82t24 -117.5q0 -109 -60.5 -187t-155.5 -113.5t-214 -35.5q-161 0 -296 62.5t-204 157.5z" />
<glyph unicode="t" horiz-adv-x="790" d="M27 772v203h188v332l299 59v-391h213v-203h-213v-432q0 -75 25 -100q27 -31 112 -31q48 0 76 4v-217q-82 -16 -180 -16q-229 0 -291 83q-26 34 -33.5 77t-7.5 124v508h-188z" />
<glyph unicode="u" horiz-adv-x="1157" d="M113 422v553h299v-492q0 -35 0.5 -54.5t2 -48t5.5 -44t11 -36t18 -31t26.5 -21t37 -15t48.5 -4.5q87 0 130.5 63.5t43.5 168.5v514h299v-975h-295v121q-37 -64 -113.5 -105t-174.5 -41q-166 0 -252 95q-48 55 -67 126.5t-19 225.5z" />
<glyph unicode="v" horiz-adv-x="1030" d="M20 975h314l133 -490q13 -45 26 -99.5t20 -85.5l7 -32h2q22 115 51 224l129 483h310l-320 -975h-356z" />
<glyph unicode="w" horiz-adv-x="1601" d="M31 975h307l78 -422q43 -240 55 -299h2q10 41 32 140.5t38 164.5l102 416h320l104 -420q19 -76 41.5 -178.5t26.5 -122.5h2q3 17 59 307l80 414h295l-258 -975h-369l-80 377q-20 98 -65 332h-2q-11 -48 -33 -165t-35 -171l-82 -373h-373z" />
<glyph unicode="x" horiz-adv-x="1013" d="M6 0l338 524l-301 451h336l141 -238l133 238h320l-305 -457l340 -518h-330l-176 293l-172 -293h-324z" />
<glyph unicode="y" horiz-adv-x="1030" d="M18 975h314l139 -520q11 -41 23.5 -93t19.5 -84l6 -32h2q22 121 45 209l133 520h308l-336 -1055q-51 -159 -103 -213q-40 -43 -103.5 -63.5t-184.5 -20.5q-92 0 -183 8v232q41 -2 90 -2q27 0 37.5 0.5t34.5 2t35 7t25 14t20 23.5t6 35q0 17 -4 34t-13.5 44t-13.5 40z" />
<glyph unicode="z" horiz-adv-x="1026" d="M74 0v211l469 516h-449v248h838v-213l-459 -514h479v-248h-878z" />
<glyph unicode="{" horiz-adv-x="720" d="M66 426v225q35 10 58 24t35 26t17.5 38.5t6.5 44t1 60.5v196q0 75 10 130.5t33 95t54 64t79.5 39t103 19.5t130.5 5h61v-211q-58 0 -93 -10.5t-52.5 -36.5t-23 -58t-5.5 -88v-155q0 -137 -20 -193t-88 -100v-4q68 -44 88 -100t20 -193v-164q0 -56 5.5 -88t23 -58 t52.5 -36.5t93 -10.5v-211h-61q-116 0 -186.5 12.5t-124.5 50t-76.5 107t-22.5 181.5v206q0 43 -1 60.5t-6.5 44t-17.5 38.5t-35 26t-58 24z" />
<glyph unicode="|" horiz-adv-x="561" d="M133 -324v1717h295v-1717h-295z" />
<glyph unicode="}" horiz-adv-x="720" d="M66 -113q58 0 93 10.5t52.5 36.5t23 58t5.5 88v164q0 137 20 193t88 100v4q-68 44 -88 100t-20 193v155q0 56 -5.5 88t-23 58t-52.5 36.5t-93 10.5v211h61q76 0 130.5 -5t103 -19.5t79.5 -39t54 -64t33 -95t10 -130.5v-196q0 -43 1 -60.5t6.5 -44t17.5 -38.5t35 -26 t58 -24v-225q-35 -10 -58 -24t-35 -26t-17.5 -38.5t-6.5 -44t-1 -60.5v-206q0 -112 -22.5 -181.5t-76.5 -107t-124.5 -50t-186.5 -12.5h-61v211z" />
<glyph unicode="~" horiz-adv-x="1187" d="M57 623q47 73 141 137.5t205 64.5q64 0 119 -20t129 -60q33 -18 49 -26t39.5 -14.5t46.5 -6.5q102 0 209 129l138 -237q-69 -88 -166.5 -138.5t-188.5 -50.5q-62 0 -108.5 14.5t-108.5 45.5q-5 3 -23.5 12.5t-27.5 14t-26.5 12.5t-29.5 12t-27 7t-28 3q-39 0 -80.5 -27 t-111.5 -114z" />
<glyph unicode="&#xa1;" horiz-adv-x="534" d="M117 651v324h299v-324h-299zM119 139l28 400h242l25 -400v-557h-295v557z" />
<glyph unicode="&#xa2;" horiz-adv-x="1116" d="M80 483q0 210 106 341.5t291 164.5v199h236v-199q138 -26 222.5 -105t119.5 -188l-258 -88q-22 80 -73 123t-128 43q-103 0 -158 -75.5t-55 -211.5q0 -135 55.5 -209.5t157.5 -74.5q72 0 122 37t73 106l253 -104q-37 -95 -119.5 -164.5t-211.5 -91.5v-215h-236v215 q-185 31 -291 159t-106 338z" />
<glyph unicode="&#xa3;" horiz-adv-x="1185" d="M88 0v250q55 3 89 13.5t62.5 36t41 72.5t12.5 120q0 15 -4 81h-201v261h180q-4 46 -4 116q0 74 12.5 139t43 125.5t77.5 103.5t122 69t171 26q114 0 197 -33.5t130 -94t69 -134.5t24 -166l-264 -49q-2 50 -8.5 85.5t-22 66t-45 46t-72.5 15.5q-141 0 -141 -211 q0 -42 4 -104h283v-261h-269q0 -13 1.5 -37t1.5 -36q0 -158 -68 -219h571v-281h-993z" />
<glyph unicode="&#xa4;" horiz-adv-x="1165" d="M74 879l205 204l122 -125q79 39 183 39q106 0 188 -36l119 118l199 -198l-121 -119q41 -87 41 -191q0 -99 -39 -188q71 -64 119 -115l-199 -200l-117 116q-81 -37 -190 -37q-111 0 -189 37l-119 -118l-200 200l121 119q-37 78 -37 186q0 107 43 189l-33 28zM418 571 q0 -74 47 -124t119 -50q74 0 121 50t47 124q0 75 -46.5 123.5t-121.5 48.5q-72 0 -119 -48.5t-47 -123.5z" />
<glyph unicode="&#xa5;" horiz-adv-x="1282" d="M66 1393h342l235 -529l242 529h340l-316 -590h209v-252h-338v-111h338v-254h-338v-186h-301v186h-329v254h329v111h-329v252h208z" />
<glyph unicode="&#xa6;" horiz-adv-x="569" d="M137 -324v662h295v-662h-295zM137 731v662h295v-662h-295z" />
<glyph unicode="&#xa7;" horiz-adv-x="1087" d="M63 41l189 152q47 -65 130.5 -107.5t180.5 -42.5q74 0 113 23t39 63q0 11 -4 21.5t-13 19.5t-17 15.5t-24 14.5t-24.5 12t-28.5 12.5t-26 11.5l-119 51q-40 17 -56.5 24.5t-54 25.5t-55 29t-48 31.5t-46 37.5t-36 42.5t-30 50.5t-17 57.5t-7.5 67.5q0 86 44.5 147 t104.5 93q-111 79 -111 217q0 79 36.5 140.5t97.5 97t132.5 53.5t149.5 18q131 0 239.5 -43.5t186.5 -118.5l-168 -159q-116 106 -262 106q-57 0 -93 -19.5t-36 -54.5q0 -36 32 -57t140 -67l121 -52q262 -111 262 -315q0 -91 -36 -149t-95 -105q139 -83 139 -231 q0 -81 -35.5 -145.5t-96 -104.5t-138.5 -61t-166 -21q-156 0 -290.5 62.5t-203.5 156.5zM391 676q0 -46 34 -73.5t110 -59.5l106 -45q68 36 68 106q0 44 -38 78t-116 66l-86 34q-33 -13 -55.5 -42t-22.5 -64z" />
<glyph unicode="&#xa8;" horiz-adv-x="1024" d="M205 1128v238h239v-238h-239zM584 1128v238h239v-238h-239z" />
<glyph unicode="&#xa9;" horiz-adv-x="1560" d="M80 715q0 194 92 355t253 254t355 93q146 0 276 -55t223 -148.5t147.5 -223.5t54.5 -275t-54.5 -275t-147.5 -224t-223 -149t-276 -55t-276 55t-222.5 149t-147 224t-54.5 275zM262 715q0 -222 149 -375.5t369 -153.5q146 0 265 70.5t186 191.5t67 267 q0 223 -148.5 375.5t-369.5 152.5q-220 0 -369 -153t-149 -375zM420 713q0 187 98.5 299t265.5 112q60 0 112 -16.5t86.5 -42t62.5 -60t43.5 -65t25.5 -63.5l-172 -70q-37 147 -158 147q-78 0 -123 -63.5t-45 -175.5q0 -111 46 -173.5t122 -62.5q111 0 162 129l168 -69 q-47 -108 -132 -169t-198 -61q-167 0 -265.5 109.5t-98.5 294.5z" />
<glyph unicode="&#xaa;" horiz-adv-x="806" d="M78 938q0 92 57.5 135.5t175.5 65.5l138 22q26 6 32 11.5t6 21.5v8q0 39 -22.5 58.5t-75.5 19.5q-56 0 -81 -23t-27 -75l-185 6q-1 112 82 170.5t223 58.5q135 0 205 -45t70 -151v-316q0 -33 7 -44t28 -11h10v-111q-62 -8 -96 -8q-55 0 -84.5 10.5t-40.5 42.5 q-66 -55 -187 -55q-106 0 -170.5 54t-64.5 155zM274 940q0 -38 26 -59t71 -21q53 0 84.5 26t31.5 77v77l-55 -12l-45 -8q-58 -11 -85.5 -26.5t-27.5 -53.5z" />
<glyph unicode="&#xab;" horiz-adv-x="1028" d="M84 426v291l371 309v-330l-156 -121l156 -129v-325zM541 426v291l370 309v-330l-153 -121l153 -129v-325z" />
<glyph unicode="&#xac;" horiz-adv-x="1263" d="M78 694v236h1063v-639h-254v403h-809z" />
<glyph unicode="&#xad;" horiz-adv-x="813" d="M117 461v282h581v-282h-581z" />
<glyph unicode="&#xae;" horiz-adv-x="1560" d="M80 715q0 194 92 355t253 254t355 93q146 0 276 -55t223 -148.5t147.5 -223.5t54.5 -275t-54.5 -275t-147.5 -224t-223 -149t-276 -55t-276 55t-222.5 149t-147 224t-54.5 275zM262 715q0 -222 149 -375.5t369 -153.5q146 0 265 70.5t186 191.5t67 267 q0 223 -148.5 375.5t-369.5 152.5q-220 0 -369 -153t-149 -375zM457 348v748h323q121 0 183 -25q63 -28 100 -86.5t37 -134.5q0 -88 -42 -146.5t-118 -82.5l201 -273h-240l-178 260h-78v-260h-188zM645 770h127q74 0 105 14q30 22 30 66q0 49 -30 68q-20 10 -105 10h-127 v-158z" />
<glyph unicode="&#xaf;" horiz-adv-x="1024" d="M199 1128v252h626v-252h-626z" />
<glyph unicode="&#xb0;" horiz-adv-x="921" d="M63 1020q0 166 116 281.5t282 115.5t281.5 -115.5t115.5 -281.5t-115.5 -281.5t-281.5 -115.5t-282 115.5t-116 281.5zM305 1020q0 -63 46.5 -109.5t109.5 -46.5t109 46.5t46 109.5t-46 109.5t-109 46.5t-109.5 -46.5t-46.5 -109.5z" />
<glyph unicode="&#xb1;" horiz-adv-x="1425" d="M106 0v258h1213v-258h-1213zM106 608v283h465v334h285v-334h463v-283h-463v-274h-285v274h-465z" />
<glyph unicode="&#xb2;" horiz-adv-x="837" d="M102 563v142q141 97 267 208q73 64 111 117t38 113q0 45 -27 68.5t-73 23.5t-73.5 -32t-27.5 -79q0 -53 25 -112l-223 28q-17 52 -17 107q0 119 86 194.5t240 75.5q144 0 226.5 -73t82.5 -195q0 -153 -135 -281q-75 -68 -145 -116h272v-189h-627z" />
<glyph unicode="&#xb3;" horiz-adv-x="808" d="M70 815l209 35q3 -127 118 -127q55 0 83 25.5t28 68.5q0 67 -70 86q-27 8 -78 8h-61v164h68q57 0 88 17q41 23 41 73q0 76 -101 76q-51 0 -79.5 -27t-28.5 -81l-197 32q0 98 84.5 175t228.5 77t224 -63t80 -164q0 -62 -29.5 -107t-71.5 -71q37 -21 60.5 -42t43 -64 t19.5 -101q0 -114 -87.5 -190t-244.5 -76q-153 0 -237.5 75t-89.5 201z" />
<glyph unicode="&#xb4;" horiz-adv-x="1024" d="M268 1096l135 297h363l-242 -297h-256z" />
<glyph unicode="&#xb5;" horiz-adv-x="1144" d="M127 -369v1344h299v-492q0 -35 0.5 -54.5t2 -48t5.5 -44t11 -36t18 -31t26.5 -21t37 -15t48.5 -4.5q87 0 131 63.5t44 168.5v514h299v-975h-295v121q-31 -63 -92 -96t-134 -33q-46 0 -102 16v-377h-299z" />
<glyph unicode="&#xb6;" horiz-adv-x="1521" d="M55 967q0 226 156 338q64 45 149.5 66.5t217.5 21.5h868v-267h-162v-1388h-254v1388h-192v-1388h-254v803h-39q-225 0 -350 98q-140 111 -140 328z" />
<glyph unicode="&#xb7;" horiz-adv-x="557" d="M117 408v364h325v-364h-325z" />
<glyph unicode="&#xb8;" horiz-adv-x="1024" d="M354 -104l101 110h145l-59 -67q90 0 138 -46.5t48 -111.5q0 -84 -63.5 -132t-155.5 -48q-85 0 -152 34l50 127q28 -22 77 -22q29 0 47.5 12t18.5 37q0 23 -17.5 35t-44.5 12q-50 0 -79 -29z" />
<glyph unicode="&#xb9;" horiz-adv-x="632" d="M53 1032v166h27q98 0 153 39q67 49 70 156h211v-832h-229v471h-232z" />
<glyph unicode="&#xba;" horiz-adv-x="772" d="M74 1071q0 159 83.5 252.5t229.5 93.5q144 0 227.5 -93.5t83.5 -252.5q0 -162 -82.5 -254t-228.5 -92q-147 0 -230 92t-83 254zM246 1071q0 -90 38 -142t103 -52q64 0 100.5 52t36.5 142t-36.5 142.5t-100.5 52.5q-67 0 -104 -53t-37 -142z" />
<glyph unicode="&#xbb;" horiz-adv-x="1028" d="M117 121v325l153 129l-153 121v330l370 -309v-291zM573 121v325l156 129l-156 121v330l371 -309v-291z" />
<glyph unicode="&#xbc;" horiz-adv-x="1757" d="M57 1032v166h27q99 0 154 39q66 48 69 156h211v-832h-229v471h-232zM367 0l725 1393h260l-721 -1393h-264zM975 172v154l375 522h219v-494h119v-182h-119v-172h-207v172h-387zM1198 354h96h68v95l4 149h-2q-41 -65 -70 -106l-26 -39l-70 -97v-2z" />
<glyph unicode="&#xbd;" horiz-adv-x="1875" d="M57 1032v166h27q99 0 154 39q66 48 69 156h211v-832h-229v471h-232zM367 0l725 1393h260l-721 -1393h-264zM1165 0v141q136 93 267 209q73 64 111 117t38 113q0 45 -27 68.5t-73 23.5t-73.5 -32t-27.5 -79q0 -53 25 -112l-223 28q-17 52 -17 107q0 119 86 194.5t240 75.5 q144 0 226.5 -73t82.5 -195q0 -153 -135 -281q-80 -72 -145 -117h272v-188h-627z" />
<glyph unicode="&#xbe;" horiz-adv-x="1886" d="M61 815l209 35q3 -127 119 -127q55 0 83 25.5t28 68.5q0 67 -70 86q-27 8 -78 8h-61v164h67q57 0 88 17q41 23 41 73q0 76 -100 76q-51 0 -79.5 -27t-28.5 -81l-197 32q0 98 84.5 175t228.5 77t223.5 -63t79.5 -164q0 -62 -29.5 -107t-70.5 -71q37 -21 60.5 -42t43 -64 t19.5 -101q0 -114 -87.5 -190t-244.5 -76q-153 0 -238 75t-90 201zM502 0l725 1393h260l-721 -1393h-264zM1110 172v154l375 522h219v-494h119v-182h-119v-172h-207v172h-387zM1333 354h97h67v95l4 149h-2q-40 -65 -69 -106l-27 -39l-70 -97v-2z" />
<glyph unicode="&#xbf;" horiz-adv-x="1032" d="M53 -33q0 103 44 197.5t134 165.5l76 59q66 51 88.5 83.5t22.5 92.5v39h278v-51q0 -106 -31.5 -173t-127.5 -149l-78 -65q-103 -82 -103 -195q0 -77 43.5 -118t122.5 -41q85 0 126.5 51.5t41.5 130.5q0 72 -33 143l304 -26q18 -71 18 -140q0 -179 -123 -296t-334 -117 q-99 0 -179.5 23t-133.5 61.5t-89 91.5t-51.5 111t-15.5 122zM399 680v295h312v-295h-312z" />
<glyph unicode="&#xc0;" horiz-adv-x="1323" d="M6 0l469 1393h375l465 -1393h-332l-82 276h-489l-80 -276h-326zM336 1862h362l136 -297h-256zM487 530h334l-114 394l-48 180h-2q-24 -92 -51 -182z" />
<glyph unicode="&#xc1;" horiz-adv-x="1323" d="M6 0l469 1393h375l465 -1393h-332l-82 276h-489l-80 -276h-326zM487 530h334l-114 394l-48 180h-2q-24 -92 -51 -182zM518 1565l135 297h363l-242 -297h-256z" />
<glyph unicode="&#xc2;" horiz-adv-x="1323" d="M6 0l469 1393h375l465 -1393h-332l-82 276h-489l-80 -276h-326zM340 1565l227 297h215l242 -297h-242l-102 131l-105 -131h-235zM487 530h334l-114 394l-48 180h-2q-24 -92 -51 -182z" />
<glyph unicode="&#xc3;" horiz-adv-x="1323" d="M6 0l469 1393h375l465 -1393h-332l-82 276h-489l-80 -276h-326zM279 1640q7 31 25.5 68t49 76t78.5 64.5t103 25.5q57 0 145 -45q70 -39 119 -39q60 0 90 76l172 -70q-20 -51 -39 -87t-50 -73.5t-74.5 -57t-98.5 -19.5q-72 0 -150 38q-8 4 -24.5 12.5t-23.5 12t-19.5 9.5 t-19.5 8t-15.5 4t-16.5 2q-52 0 -79 -76zM487 530h334l-114 394l-48 180h-2q-24 -92 -51 -182z" />
<glyph unicode="&#xc4;" horiz-adv-x="1323" d="M6 0l469 1393h375l465 -1393h-332l-82 276h-489l-80 -276h-326zM371 1593v238h239v-238h-239zM487 530h334l-114 394l-48 180h-2q-24 -92 -51 -182zM750 1593v238h239v-238h-239z" />
<glyph unicode="&#xc5;" horiz-adv-x="1323" d="M6 0l469 1393h375l465 -1393h-332l-82 276h-489l-80 -276h-326zM444 1731q0 98 66.5 163.5t165.5 65.5q98 0 164.5 -65.5t66.5 -163.5t-66.5 -164t-164.5 -66t-165 66t-67 164zM487 530h334l-114 394l-48 180h-2q-24 -92 -51 -182zM602 1731q0 -30 21 -51t51 -21 t50.5 20.5t20.5 51.5q0 30 -20.5 50.5t-50.5 20.5t-51 -20.5t-21 -50.5z" />
<glyph unicode="&#xc6;" horiz-adv-x="1959" d="M-49 0l770 1393h1116v-273h-672v-274h607v-271h-607v-301h719v-274h-1022v317h-407l-176 -317h-328zM602 590h260v303l6 201h-2q-51 -94 -88 -168z" />
<glyph unicode="&#xc7;" horiz-adv-x="1363" d="M78 696q0 212 81.5 376t233 254.5t350.5 90.5q112 0 207.5 -28.5t165.5 -79.5t120 -112.5t83 -135.5l-258 -109q-88 211 -313 211q-171 0 -266 -124t-95 -343t93.5 -339.5t267.5 -120.5q220 0 307 190l254 -121q-159 -314 -529 -328l-30 -38q90 0 138 -46.5t48 -111.5 q0 -84 -63.5 -132t-155.5 -48q-85 0 -152 34l49 127q28 -22 78 -22q29 0 47.5 12t18.5 37q0 23 -17.5 35t-44.5 12q-51 0 -80 -29l-53 89l78 86q-263 33 -413 225.5t-150 488.5z" />
<glyph unicode="&#xc8;" horiz-adv-x="1251" d="M150 0v1393h978v-273h-671v-274h606v-271h-606v-301h719v-274h-1026zM332 1862h362l135 -297h-256z" />
<glyph unicode="&#xc9;" horiz-adv-x="1251" d="M150 0v1393h978v-273h-671v-274h606v-271h-606v-301h719v-274h-1026zM479 1565l135 297h363l-242 -297h-256z" />
<glyph unicode="&#xca;" horiz-adv-x="1251" d="M150 0v1393h978v-273h-671v-274h606v-271h-606v-301h719v-274h-1026zM309 1565l228 297h215l241 -297h-241l-103 131l-104 -131h-236z" />
<glyph unicode="&#xcb;" horiz-adv-x="1251" d="M150 0v1393h978v-273h-671v-274h606v-271h-606v-301h719v-274h-1026zM354 1593v238h240v-238h-240zM733 1593v238h240v-238h-240z" />
<glyph unicode="&#xcc;" horiz-adv-x="608" d="M-35 1862h363l135 -297h-256zM150 0v1393h309v-1393h-309z" />
<glyph unicode="&#xcd;" horiz-adv-x="608" d="M150 0v1393h309v-1393h-309zM170 1565l135 297h363l-242 -297h-256z" />
<glyph unicode="&#xce;" horiz-adv-x="608" d="M-25 1565l228 297h215l241 -297h-241l-103 131l-104 -131h-236zM150 0v1393h309v-1393h-309z" />
<glyph unicode="&#xcf;" horiz-adv-x="608" d="M-20 1585v264h268v-264h-268zM150 0v1393h309v-1393h-309zM362 1585v264h269v-264h-269z" />
<glyph unicode="&#xd0;" horiz-adv-x="1458" d="M39 557v274h135v562h512q114 0 203.5 -12.5t167.5 -51.5q156 -75 237.5 -245t81.5 -384q0 -177 -54 -318t-153 -237q-36 -36 -73.5 -61t-85 -41t-84.5 -25t-101.5 -13t-104.5 -4.5t-124 -0.5h-422v557h-135zM481 289h142q89 0 135 2.5t100.5 19t87.5 49.5q48 48 79.5 135 t31.5 197q0 109 -33 197t-92 139q-51 43 -125.5 57.5t-206.5 14.5h-119v-269h342v-274h-342v-268z" />
<glyph unicode="&#xd1;" horiz-adv-x="1445" d="M150 0v1393h313l334 -545q49 -81 100 -170t77 -138l27 -48h3q-13 274 -13 436v465h305v-1393h-311l-330 537q-35 57 -87.5 150.5t-87.5 158.5l-36 65h-2q15 -231 15 -454v-457h-307zM352 1640q7 31 25.5 68t49 76t78.5 64.5t103 25.5q58 0 146 -45q70 -39 118 -39 q61 0 91 76l172 -70q-16 -40 -30 -69.5t-37.5 -63t-49.5 -55t-64 -35.5t-82 -14q-71 0 -149 38q-8 4 -24.5 12.5t-23.5 12t-19.5 9.5t-19.5 8t-15.5 4t-16.5 2q-53 0 -80 -76z" />
<glyph unicode="&#xd2;" horiz-adv-x="1503" d="M78 696q0 213 82 376t235.5 254t356.5 91t356.5 -91t235 -254t81.5 -376q0 -160 -45 -292.5t-129.5 -227.5t-212 -148t-286.5 -53q-208 0 -362 91.5t-233 254t-79 375.5zM387 696q0 -220 94 -340t271 -120q176 0 270 120t94 340q0 219 -96 343t-268 124 q-174 0 -269.5 -123.5t-95.5 -343.5zM428 1862h363l135 -297h-256z" />
<glyph unicode="&#xd3;" horiz-adv-x="1503" d="M78 696q0 213 82 376t235.5 254t356.5 91t356.5 -91t235 -254t81.5 -376q0 -160 -45 -292.5t-129.5 -227.5t-212 -148t-286.5 -53q-208 0 -362 91.5t-233 254t-79 375.5zM387 696q0 -220 94 -340t271 -120q176 0 270 120t94 340q0 219 -96 343t-268 124 q-174 0 -269.5 -123.5t-95.5 -343.5zM590 1565l135 297h362l-241 -297h-256z" />
<glyph unicode="&#xd4;" horiz-adv-x="1503" d="M78 696q0 213 82 376t235.5 254t356.5 91t356.5 -91t235 -254t81.5 -376q0 -160 -45 -292.5t-129.5 -227.5t-212 -148t-286.5 -53q-208 0 -362 91.5t-233 254t-79 375.5zM387 696q0 -220 94 -340t271 -120q176 0 270 120t94 340q0 219 -96 343t-268 124 q-174 0 -269.5 -123.5t-95.5 -343.5zM418 1565l227 297h215l242 -297h-242l-102 131l-105 -131h-235z" />
<glyph unicode="&#xd5;" horiz-adv-x="1503" d="M78 696q0 213 82 376t235.5 254t356.5 91t356.5 -91t235 -254t81.5 -376q0 -160 -45 -292.5t-129.5 -227.5t-212 -148t-286.5 -53q-208 0 -362 91.5t-233 254t-79 375.5zM360 1640q7 31 25.5 68t49 76t78.5 64.5t103 25.5q58 0 146 -45q70 -39 119 -39q60 0 90 76 l172 -70q-20 -51 -39 -87t-50 -73.5t-74.5 -57t-98.5 -19.5q-72 0 -150 38q-8 4 -24.5 12.5t-23.5 12t-19.5 9.5t-19.5 8t-15.5 4t-16.5 2q-53 0 -80 -76zM387 696q0 -220 94 -340t271 -120q176 0 270 120t94 340q0 219 -96 343t-268 124q-174 0 -269.5 -123.5t-95.5 -343.5 z" />
<glyph unicode="&#xd6;" horiz-adv-x="1503" d="M78 696q0 213 82 376t235.5 254t356.5 91t356.5 -91t235 -254t81.5 -376q0 -160 -45 -292.5t-129.5 -227.5t-212 -148t-286.5 -53q-208 0 -362 91.5t-233 254t-79 375.5zM387 696q0 -220 94 -340t271 -120q176 0 270 120t94 340q0 219 -96 343t-268 124 q-174 0 -269.5 -123.5t-95.5 -343.5zM444 1593v238h240v-238h-240zM823 1593v238h240v-238h-240z" />
<glyph unicode="&#xd7;" horiz-adv-x="1357" d="M68 203l409 409l-407 406l200 203l410 -406l405 406l203 -203l-405 -406l405 -409l-203 -201l-405 408l-410 -410z" />
<glyph unicode="&#xd8;" horiz-adv-x="1517" d="M8 102l174 195q-92 167 -92 399q0 213 82 376t235.5 254t356.5 91q193 0 346 -86l154 172l213 -194l-158 -176q119 -183 119 -437q0 -214 -78 -376t-231.5 -253.5t-364.5 -91.5q-229 0 -385 107l-152 -170zM399 696q0 -72 13 -145l514 575q-70 37 -162 37 q-174 0 -269.5 -123.5t-95.5 -343.5zM565 289q80 -53 199 -53q176 0 270 120t94 340q0 110 -24 195z" />
<glyph unicode="&#xd9;" horiz-adv-x="1392" d="M137 567v826h309v-820q0 -88 6 -131.5t21 -83.5q51 -116 223 -116q175 0 226 116q14 31 19 75.5t5 139.5v820h309v-826q0 -152 -15.5 -233.5t-55.5 -149.5q-118 -209 -488 -209q-369 0 -487 209q-40 69 -56 150.5t-16 232.5zM354 1862h363l135 -297h-256z" />
<glyph unicode="&#xda;" horiz-adv-x="1392" d="M137 567v826h309v-820q0 -88 6 -131.5t21 -83.5q51 -116 223 -116q175 0 226 116q14 31 19 75.5t5 139.5v820h309v-826q0 -152 -15.5 -233.5t-55.5 -149.5q-118 -209 -488 -209q-369 0 -487 209q-40 69 -56 150.5t-16 232.5zM530 1565l136 297h362l-242 -297h-256z" />
<glyph unicode="&#xdb;" horiz-adv-x="1392" d="M137 567v826h309v-820q0 -88 6 -131.5t21 -83.5q51 -116 223 -116q175 0 226 116q14 31 19 75.5t5 139.5v820h309v-826q0 -152 -15.5 -233.5t-55.5 -149.5q-118 -209 -488 -209q-369 0 -487 209q-40 69 -56 150.5t-16 232.5zM362 1565l228 297h215l242 -297h-242 l-103 131l-104 -131h-236z" />
<glyph unicode="&#xdc;" horiz-adv-x="1392" d="M137 567v826h309v-820q0 -88 6 -131.5t21 -83.5q51 -116 223 -116q175 0 226 116q14 31 19 75.5t5 139.5v820h309v-826q0 -152 -15.5 -233.5t-55.5 -149.5q-118 -209 -488 -209q-369 0 -487 209q-40 69 -56 150.5t-16 232.5zM393 1593v238h240v-238h-240zM772 1593v238 h240v-238h-240z" />
<glyph unicode="&#xdd;" horiz-adv-x="1314" d="M2 1393h356l308 -535l315 535h354l-528 -838v-555h-309v557zM516 1565l135 297h363l-242 -297h-256z" />
<glyph unicode="&#xde;" horiz-adv-x="1331" d="M150 0v1393h309v-166h223q211 0 326 -45q124 -49 194 -152.5t70 -251.5q0 -130 -48 -217t-147 -147q-79 -46 -173 -61t-238 -15h-207v-338h-309zM459 610h243q113 0 168 23q91 42 91 149q0 115 -93 154q-54 20 -168 20h-241v-346z" />
<glyph unicode="&#xdf;" horiz-adv-x="1089" d="M123 0v991q0 120 22 194t74 126q104 104 330 104q109 0 191 -26t129.5 -72t70.5 -103t23 -124q0 -96 -40.5 -161.5t-105.5 -97.5q43 -17 74.5 -41t61.5 -65.5t45.5 -108.5t15.5 -157q0 -243 -101 -355t-315 -112q-36 0 -82 4v225h10q114 0 152.5 57t38.5 187 q0 59 -7.5 97t-28.5 68.5t-61.5 44t-103.5 13.5v211q76 0 116 34.5t40 117.5q0 65 -33 100t-94 35q-67 0 -96 -43q-17 -23 -22 -55.5t-5 -94.5v-993h-299z" />
<glyph unicode="&#xe0;" horiz-adv-x="1093" d="M70 287q0 149 123 223q84 50 239 74l189 30q40 6 50.5 14t10.5 31v17q0 115 -143 115q-162 0 -162 -142l-277 2q-3 166 117 255t334 89q198 0 302.5 -70t104.5 -229v-452q0 -47 10.5 -64.5t41.5 -17.5h14v-172q-70 -13 -139 -13q-162 0 -187 89h-2q-87 -91 -274 -91 q-163 0 -257.5 82t-94.5 230zM233 1393h363l135 -297h-256zM367 285q0 -58 39 -86.5t106 -28.5q77 0 122.5 36.5t45.5 110.5v125q-33 -13 -109 -30l-67 -15q-68 -14 -96 -32q-41 -24 -41 -80z" />
<glyph unicode="&#xe1;" horiz-adv-x="1093" d="M70 287q0 149 123 223q84 50 239 74l189 30q40 6 50.5 14t10.5 31v17q0 115 -143 115q-162 0 -162 -142l-277 2q-3 166 117 255t334 89q198 0 302.5 -70t104.5 -229v-452q0 -47 10.5 -64.5t41.5 -17.5h14v-172q-70 -13 -139 -13q-162 0 -187 89h-2q-87 -91 -274 -91 q-163 0 -257.5 82t-94.5 230zM367 285q0 -58 39 -86.5t106 -28.5q77 0 122.5 36.5t45.5 110.5v125q-33 -13 -109 -30l-67 -15q-68 -14 -96 -32q-41 -24 -41 -80zM379 1096l135 297h363l-242 -297h-256z" />
<glyph unicode="&#xe2;" horiz-adv-x="1093" d="M70 287q0 149 123 223q84 50 239 74l189 30q40 6 50.5 14t10.5 31v17q0 115 -143 115q-162 0 -162 -142l-277 2q-3 166 117 255t334 89q198 0 302.5 -70t104.5 -229v-452q0 -47 10.5 -64.5t41.5 -17.5h14v-172q-70 -13 -139 -13q-162 0 -187 89h-2q-87 -91 -274 -91 q-163 0 -257.5 82t-94.5 230zM215 1096l227 297h215l242 -297h-242l-102 131l-104 -131h-236zM367 285q0 -58 39 -86.5t106 -28.5q77 0 122.5 36.5t45.5 110.5v125q-33 -13 -109 -30l-67 -15q-68 -14 -96 -32q-41 -24 -41 -80z" />
<glyph unicode="&#xe3;" horiz-adv-x="1093" d="M70 287q0 149 123 223q84 50 239 74l189 30q40 6 50.5 14t10.5 31v17q0 115 -143 115q-162 0 -162 -142l-277 2q-3 166 117 255t334 89q198 0 302.5 -70t104.5 -229v-452q0 -47 10.5 -64.5t41.5 -17.5h14v-172q-70 -13 -139 -13q-162 0 -187 89h-2q-87 -91 -274 -91 q-163 0 -257.5 82t-94.5 230zM158 1167q7 31 25.5 68t49 76t78.5 64.5t103 25.5q57 0 145 -45q70 -39 119 -39q60 0 90 76l172 -70q-20 -51 -39 -87t-50 -74t-74.5 -57.5t-98.5 -19.5q-70 0 -150 39q-7 4 -21.5 11t-20.5 10l-17 8.5t-17 7.5t-14 5t-14.5 4t-13.5 1 q-53 0 -80 -75zM367 285q0 -58 39 -86.5t106 -28.5q77 0 122.5 36.5t45.5 110.5v125q-33 -13 -109 -30l-67 -15q-68 -14 -96 -32q-41 -24 -41 -80z" />
<glyph unicode="&#xe4;" horiz-adv-x="1093" d="M70 287q0 149 123 223q84 50 239 74l189 30q40 6 50.5 14t10.5 31v17q0 115 -143 115q-162 0 -162 -142l-277 2q-3 166 117 255t334 89q198 0 302.5 -70t104.5 -229v-452q0 -47 10.5 -64.5t41.5 -17.5h14v-172q-70 -13 -139 -13q-162 0 -187 89h-2q-87 -91 -274 -91 q-163 0 -257.5 82t-94.5 230zM256 1128v238h240v-238h-240zM367 285q0 -58 39 -86.5t106 -28.5q77 0 122.5 36.5t45.5 110.5v125q-33 -13 -109 -30l-67 -15q-68 -14 -96 -32q-41 -24 -41 -80zM635 1128v238h239v-238h-239z" />
<glyph unicode="&#xe5;" horiz-adv-x="1093" d="M70 287q0 149 123 223q84 50 239 74l189 30q40 6 50.5 14t10.5 31v17q0 115 -143 115q-162 0 -162 -142l-277 2q-3 166 117 255t334 89q198 0 302.5 -70t104.5 -229v-452q0 -47 10.5 -64.5t41.5 -17.5h14v-172q-70 -13 -139 -13q-162 0 -187 89h-2q-87 -91 -274 -91 q-163 0 -257.5 82t-94.5 230zM322 1290q0 98 66.5 164t164.5 66t164.5 -66t66.5 -164t-66.5 -163.5t-164.5 -65.5t-164.5 65.5t-66.5 163.5zM367 285q0 -58 39 -86.5t106 -28.5q77 0 122.5 36.5t45.5 110.5v125q-33 -13 -109 -30l-67 -15q-68 -14 -96 -32q-41 -24 -41 -80z M479 1290q0 -30 21 -50.5t51 -20.5t51 20.5t21 50.5t-21 51t-51 21t-51 -21t-21 -51z" />
<glyph unicode="&#xe6;" horiz-adv-x="1726" d="M70 287q0 149 123 223q84 50 239 74l189 30q40 6 50.5 14t10.5 31v17q0 115 -143 115q-162 0 -162 -142l-277 2q-3 166 117 255t334 89q225 0 326 -88q139 92 301 92q118 0 211 -40.5t152.5 -112.5t90.5 -167t31 -208q0 -43 -2 -61h-694q8 -85 69 -142t166 -57 q88 0 149.5 41t92.5 94l207 -139q-20 -29 -44.5 -56t-67.5 -60.5t-91.5 -58t-117.5 -41t-146 -16.5q-223 0 -359 127q-45 -47 -146 -87t-243 -40q-173 0 -269.5 81.5t-96.5 230.5zM367 285q0 -58 39 -86.5t106 -28.5q77 0 122.5 36.5t45.5 110.5v125q-33 -13 -109 -30 l-67 -15q-68 -14 -96 -32q-41 -24 -41 -80zM967 602h407q-5 87 -57 139t-141 52q-86 0 -146 -56.5t-63 -134.5z" />
<glyph unicode="&#xe7;" horiz-adv-x="1091" d="M70 483q0 243 141 379.5t375 136.5q98 0 178 -24.5t134.5 -68t90.5 -96t55 -114.5l-258 -88q-45 166 -200 166q-103 0 -158 -75.5t-55 -211.5q0 -135 55.5 -209.5t157.5 -74.5q146 0 194 143l254 -104q-43 -110 -145.5 -184t-267.5 -81v-2l-29 -36q90 0 138 -46.5 t48 -111.5q0 -84 -63.5 -132t-155.5 -48q-84 0 -151 34l49 127q28 -22 78 -22q28 0 46.5 12t18.5 37q0 23 -17 35t-44 12q-51 0 -80 -29l-53 89l77 88q-192 27 -302.5 155.5t-110.5 343.5z" />
<glyph unicode="&#xe8;" horiz-adv-x="1118" d="M70 492q0 227 139.5 367t359.5 140q156 0 268 -71t165 -188.5t53 -268.5q0 -43 -2 -61h-695q8 -85 69.5 -142t166.5 -57q88 0 149.5 41t92.5 94l206 -139q-20 -29 -44.5 -56t-67.5 -60.5t-91.5 -58t-117.5 -41t-146 -16.5q-221 0 -363 138.5t-142 378.5zM270 1393h363 l135 -297h-256zM358 602h408q-5 86 -57.5 138.5t-141.5 52.5q-86 0 -146 -56.5t-63 -134.5z" />
<glyph unicode="&#xe9;" horiz-adv-x="1118" d="M70 492q0 227 139.5 367t359.5 140q156 0 268 -71t165 -188.5t53 -268.5q0 -43 -2 -61h-695q8 -85 69.5 -142t166.5 -57q88 0 149.5 41t92.5 94l206 -139q-20 -29 -44.5 -56t-67.5 -60.5t-91.5 -58t-117.5 -41t-146 -16.5q-221 0 -363 138.5t-142 378.5zM358 602h408 q-5 86 -57.5 138.5t-141.5 52.5q-86 0 -146 -56.5t-63 -134.5zM416 1096l135 297h362l-241 -297h-256z" />
<glyph unicode="&#xea;" horiz-adv-x="1118" d="M70 492q0 227 139.5 367t359.5 140q156 0 268 -71t165 -188.5t53 -268.5q0 -43 -2 -61h-695q8 -85 69.5 -142t166.5 -57q88 0 149.5 41t92.5 94l206 -139q-20 -29 -44.5 -56t-67.5 -60.5t-91.5 -58t-117.5 -41t-146 -16.5q-221 0 -363 138.5t-142 378.5zM238 1096 l227 297h215l242 -297h-242l-102 131l-105 -131h-235zM358 602h408q-5 86 -57.5 138.5t-141.5 52.5q-86 0 -146 -56.5t-63 -134.5z" />
<glyph unicode="&#xeb;" horiz-adv-x="1118" d="M70 492q0 227 139.5 367t359.5 140q156 0 268 -71t165 -188.5t53 -268.5q0 -43 -2 -61h-695q8 -85 69.5 -142t166.5 -57q88 0 149.5 41t92.5 94l206 -139q-20 -29 -44.5 -56t-67.5 -60.5t-91.5 -58t-117.5 -41t-146 -16.5q-221 0 -363 138.5t-142 378.5zM270 1128v238 h240v-238h-240zM358 602h408q-5 86 -57.5 138.5t-141.5 52.5q-86 0 -146 -56.5t-63 -134.5zM649 1128v238h240v-238h-240z" />
<glyph unicode="&#xec;" horiz-adv-x="546" d="M-72 1393h363l135 -297h-256zM123 0v975h301v-975h-301z" />
<glyph unicode="&#xed;" horiz-adv-x="546" d="M123 0v975h301v-975h-301zM135 1096l135 297h363l-242 -297h-256z" />
<glyph unicode="&#xee;" horiz-adv-x="546" d="M-57 1096l227 297h215l242 -297h-242l-102 131l-105 -131h-235zM123 0v975h301v-975h-301z" />
<glyph unicode="&#xef;" horiz-adv-x="546" d="M-25 1128v238h240v-238h-240zM123 0v975h301v-975h-301zM354 1128v238h240v-238h-240z" />
<glyph unicode="&#xf0;" horiz-adv-x="1181" d="M70 483q0 243 141 379.5t375 136.5q77 0 137 -14q-30 77 -68 125l-286 -90l-58 178l219 68q-7 10 -18 21.5t-16 16.5t-23 20t-20 17l223 111q56 -47 108 -111l230 72l55 -176l-164 -51q201 -310 201 -658q0 -115 -27.5 -211t-86.5 -174.5t-162.5 -123t-243.5 -44.5 q-235 0 -375.5 132.5t-140.5 375.5zM373 487q0 -135 55.5 -209.5t157.5 -74.5t158.5 75t56.5 209q0 137 -55.5 212t-159.5 75q-103 0 -158 -75.5t-55 -211.5z" />
<glyph unicode="&#xf1;" horiz-adv-x="1165" d="M123 0v975h295v-121q37 63 115 104t178 41q171 0 256 -94q48 -55 67 -126.5t19 -225.5v-553h-299v492q0 54 -2 85t-10 67.5t-24 55.5t-45.5 32t-72.5 13q-90 0 -134 -63t-44 -168v-514h-299zM211 1167q7 31 25.5 68t49 76t78.5 64.5t103 25.5q57 0 145 -45 q70 -39 119 -39q60 0 90 76l172 -70q-20 -51 -39 -87t-50 -74t-74.5 -57.5t-98.5 -19.5q-69 0 -149 39l-19 9.5l-18 9t-15.5 8t-15.5 7.5t-13.5 5t-13.5 4.5t-11.5 2.5t-12.5 1q-53 0 -80 -75z" />
<glyph unicode="&#xf2;" horiz-adv-x="1173" d="M70 483q0 243 141 379.5t375 136.5q235 0 376.5 -136.5t141.5 -379.5q0 -242 -141 -375t-377 -133q-235 0 -375.5 132.5t-140.5 375.5zM270 1393h363l135 -297h-256zM373 487q0 -135 55.5 -209.5t157.5 -74.5t158.5 75t56.5 209q0 137 -55.5 212t-159.5 75 q-103 0 -158 -75.5t-55 -211.5z" />
<glyph unicode="&#xf3;" horiz-adv-x="1173" d="M70 483q0 243 141 379.5t375 136.5q235 0 376.5 -136.5t141.5 -379.5q0 -242 -141 -375t-377 -133q-235 0 -375.5 132.5t-140.5 375.5zM373 487q0 -135 55.5 -209.5t157.5 -74.5t158.5 75t56.5 209q0 137 -55.5 212t-159.5 75q-103 0 -158 -75.5t-55 -211.5zM410 1096 l135 297h362l-241 -297h-256z" />
<glyph unicode="&#xf4;" horiz-adv-x="1173" d="M70 483q0 243 141 379.5t375 136.5q235 0 376.5 -136.5t141.5 -379.5q0 -242 -141 -375t-377 -133q-235 0 -375.5 132.5t-140.5 375.5zM246 1096l227 297h215l242 -297h-242l-102 131l-105 -131h-235zM373 487q0 -135 55.5 -209.5t157.5 -74.5t158.5 75t56.5 209 q0 137 -55.5 212t-159.5 75q-103 0 -158 -75.5t-55 -211.5z" />
<glyph unicode="&#xf5;" horiz-adv-x="1173" d="M70 483q0 243 141 379.5t375 136.5q235 0 376.5 -136.5t141.5 -379.5q0 -242 -141 -375t-377 -133q-235 0 -375.5 132.5t-140.5 375.5zM201 1167q7 31 25.5 68t49 76t78.5 64.5t103 25.5q57 0 145 -45q70 -39 119 -39q60 0 90 76l172 -70q-20 -51 -39 -87t-50 -74 t-74.5 -57.5t-98.5 -19.5q-70 0 -150 39q-7 4 -21.5 11t-20.5 10l-17 8.5t-17 7.5t-14 5t-14.5 4t-13.5 1q-53 0 -80 -75zM373 487q0 -135 55.5 -209.5t157.5 -74.5t158.5 75t56.5 209q0 137 -55.5 212t-159.5 75q-103 0 -158 -75.5t-55 -211.5z" />
<glyph unicode="&#xf6;" horiz-adv-x="1173" d="M70 483q0 243 141 379.5t375 136.5q235 0 376.5 -136.5t141.5 -379.5q0 -242 -141 -375t-377 -133q-235 0 -375.5 132.5t-140.5 375.5zM283 1128v238h239v-238h-239zM373 487q0 -135 55.5 -209.5t157.5 -74.5t158.5 75t56.5 209q0 137 -55.5 212t-159.5 75 q-103 0 -158 -75.5t-55 -211.5zM662 1128v238h239v-238h-239z" />
<glyph unicode="&#xf7;" horiz-adv-x="1544" d="M84 356v267h1376v-267h-1376zM616 0v283h308v-283h-308zM616 690v283h308v-283h-308z" />
<glyph unicode="&#xf8;" horiz-adv-x="1173" d="M70 483q0 243 141 379.5t375 136.5q106 0 207 -32l116 151l185 -151l-105 -136q115 -134 115 -348q0 -242 -141 -375t-377 -133q-118 0 -224 37l-81 -106l-191 149l78 101q-98 128 -98 327zM373 487q0 -43 2 -63l264 344q-24 6 -53 6q-103 0 -158 -75.5t-55 -211.5z M516 213q25 -10 70 -10q102 0 158.5 75t56.5 209q0 34 -8 88z" />
<glyph unicode="&#xf9;" horiz-adv-x="1157" d="M113 422v553h299v-492q0 -35 0.5 -54.5t2 -48t5.5 -44t11 -36t18 -31t26.5 -21t37 -15t48.5 -4.5q87 0 130.5 63.5t43.5 168.5v514h299v-975h-295v121q-37 -64 -113.5 -105t-174.5 -41q-166 0 -252 95q-48 55 -67 126.5t-19 225.5zM258 1391h363l135 -297h-256z" />
<glyph unicode="&#xfa;" horiz-adv-x="1157" d="M113 422v553h299v-492q0 -35 0.5 -54.5t2 -48t5.5 -44t11 -36t18 -31t26.5 -21t37 -15t48.5 -4.5q87 0 130.5 63.5t43.5 168.5v514h299v-975h-295v121q-37 -64 -113.5 -105t-174.5 -41q-166 0 -252 95q-48 55 -67 126.5t-19 225.5zM387 1096l135 297h363l-242 -297h-256z " />
<glyph unicode="&#xfb;" horiz-adv-x="1157" d="M113 422v553h299v-492q0 -35 0.5 -54.5t2 -48t5.5 -44t11 -36t18 -31t26.5 -21t37 -15t48.5 -4.5q87 0 130.5 63.5t43.5 168.5v514h299v-975h-295v121q-37 -64 -113.5 -105t-174.5 -41q-166 0 -252 95q-48 55 -67 126.5t-19 225.5zM242 1096l227 297h215l242 -297h-242 l-102 131l-105 -131h-235z" />
<glyph unicode="&#xfc;" horiz-adv-x="1157" d="M113 422v553h299v-492q0 -35 0.5 -54.5t2 -48t5.5 -44t11 -36t18 -31t26.5 -21t37 -15t48.5 -4.5q87 0 130.5 63.5t43.5 168.5v514h299v-975h-295v121q-37 -64 -113.5 -105t-174.5 -41q-166 0 -252 95q-48 55 -67 126.5t-19 225.5zM276 1128v238h240v-238h-240zM655 1128 v238h240v-238h-240z" />
<glyph unicode="&#xfd;" horiz-adv-x="1030" d="M18 975h314l139 -520q11 -41 23.5 -93t19.5 -84l6 -32h2q22 121 45 209l133 520h308l-336 -1055q-51 -159 -103 -213q-40 -43 -103.5 -63.5t-184.5 -20.5q-92 0 -183 8v232q41 -2 90 -2q27 0 37.5 0.5t34.5 2t35 7t25 14t20 23.5t6 35q0 17 -4 34t-13.5 44t-13.5 40z M367 1096l135 297h362l-241 -297h-256z" />
<glyph unicode="&#xfe;" horiz-adv-x="1230" d="M123 -426v1860h299v-549q40 46 116.5 80t168.5 34q208 0 331 -140t123 -372q0 -224 -126 -368t-328 -144q-189 0 -285 113v-514h-299zM414 487q0 -127 61.5 -205.5t161.5 -78.5q104 0 162.5 76.5t58.5 207.5q0 135 -57 211t-164 76q-100 0 -161.5 -79.5t-61.5 -207.5z " />
<glyph unicode="&#xff;" horiz-adv-x="1030" d="M18 975h314l139 -520q11 -41 23.5 -93t19.5 -84l6 -32h2q22 121 45 209l133 520h308l-336 -1055q-51 -159 -103 -213q-40 -43 -103.5 -63.5t-184.5 -20.5q-92 0 -183 8v232q41 -2 90 -2q27 0 37.5 0.5t34.5 2t35 7t25 14t20 23.5t6 35q0 17 -4 34t-13.5 44t-13.5 40z M213 1128v238h240v-238h-240zM592 1128v238h239v-238h-239z" />
<glyph unicode="&#x152;" horiz-adv-x="1974" d="M78 694q0 335 188.5 529t513.5 194q118 0 226 -24h845v-273h-661v-274h596v-271h-596v-301h708v-274h-892q-88 -20 -228 -20q-325 0 -512.5 184.5t-187.5 529.5zM385 698q0 -217 112 -333.5t287 -116.5q76 0 101 4v885q-53 6 -101 6q-186 0 -292.5 -113t-106.5 -332z" />
<glyph unicode="&#x153;" horiz-adv-x="1830" d="M70 483q0 243 141 379.5t375 136.5q218 0 356 -120q136 120 340 120q118 0 211 -40.5t152.5 -112.5t90.5 -167t31 -208q0 -43 -2 -61h-694q8 -85 69.5 -142t166.5 -57q88 0 149 40.5t92 94.5l207 -139q-20 -29 -44.5 -56t-67.5 -60.5t-91.5 -58t-117.5 -41t-146 -16.5 q-205 0 -340 117q-135 -117 -362 -117q-235 0 -375.5 132.5t-140.5 375.5zM373 487q0 -135 55.5 -209.5t157.5 -74.5t158.5 75t56.5 209q0 137 -55.5 212t-159.5 75q-103 0 -158 -75.5t-55 -211.5zM1071 602h408q-5 86 -57.5 138.5t-141.5 52.5q-86 0 -146 -56.5t-63 -134.5 z" />
<glyph unicode="&#x178;" horiz-adv-x="1314" d="M2 1393h356l308 -535l315 535h354l-528 -838v-555h-309v557zM354 1593v238h240v-238h-240zM733 1593v238h240v-238h-240z" />
<glyph unicode="&#x2c6;" horiz-adv-x="1024" d="M170 1096l227 297h215l242 -297h-242l-102 131l-104 -131h-236z" />
<glyph unicode="&#x2dc;" horiz-adv-x="1024" d="M121 1159q7 31 25.5 68t49 76t78.5 64.5t103 25.5q57 0 145 -45q70 -39 119 -39q61 0 90 75l172 -69q-20 -51 -39 -87t-50 -74t-74.5 -57.5t-98.5 -19.5q-69 0 -149 39l-19 9.5l-18 9t-15.5 8t-15.5 7.5t-13.5 5t-13.5 4.5t-11.5 2.5t-12.5 1q-53 0 -80 -76z" />
<glyph unicode="&#x2000;" horiz-adv-x="980" />
<glyph unicode="&#x2001;" horiz-adv-x="1960" />
<glyph unicode="&#x2002;" horiz-adv-x="980" />
<glyph unicode="&#x2003;" horiz-adv-x="1960" />
<glyph unicode="&#x2004;" horiz-adv-x="653" />
<glyph unicode="&#x2005;" horiz-adv-x="490" />
<glyph unicode="&#x2006;" horiz-adv-x="326" />
<glyph unicode="&#x2007;" horiz-adv-x="326" />
<glyph unicode="&#x2008;" horiz-adv-x="245" />
<glyph unicode="&#x2009;" horiz-adv-x="392" />
<glyph unicode="&#x200a;" horiz-adv-x="108" />
<glyph unicode="&#x2010;" horiz-adv-x="813" d="M115 461v282h581v-282h-581z" />
<glyph unicode="&#x2011;" horiz-adv-x="813" d="M115 461v282h581v-282h-581z" />
<glyph unicode="&#x2012;" horiz-adv-x="813" d="M115 461v282h581v-282h-581z" />
<glyph unicode="&#x2013;" horiz-adv-x="1273" d="M117 465v274h1042v-274h-1042z" />
<glyph unicode="&#x2014;" horiz-adv-x="1662" d="M117 465v274h1431v-274h-1431z" />
<glyph unicode="&#x2018;" horiz-adv-x="536" d="M100 760v203q0 161 23 243q32 105 101 154.5t202 52.5v-158q-74 -5 -110.5 -40t-36.5 -111h147v-344h-326z" />
<glyph unicode="&#x2019;" horiz-adv-x="526" d="M113 739v158q74 5 110.5 40.5t36.5 111.5h-147v344h325v-203q0 -166 -22 -244q-32 -105 -101 -154.5t-202 -52.5z" />
<glyph unicode="&#x201a;" horiz-adv-x="546" d="M111 0v362h325v-221q0 -165 -22 -243q-32 -105 -101 -154.5t-202 -52.5v157q74 5 110.5 40.5t36.5 111.5h-147z" />
<glyph unicode="&#x201c;" horiz-adv-x="983" d="M100 760v203q0 161 23 243q32 105 101 154.5t202 52.5v-158q-74 -5 -110.5 -40t-36.5 -111h147v-344h-326zM547 760v203q0 165 22 243q32 105 101 154.5t202 52.5v-158q-74 -5 -110.5 -40t-36.5 -111h147v-344h-325z" />
<glyph unicode="&#x201d;" horiz-adv-x="970" d="M111 741v158q74 5 110.5 40.5t36.5 111.5h-147v344h325v-203q0 -166 -22 -244q-32 -105 -101 -154.5t-202 -52.5zM557 741v158q74 5 111 40.5t37 111.5h-148v344h326v-203q0 -162 -23 -244q-32 -105 -101 -154.5t-202 -52.5z" />
<glyph unicode="&#x201e;" horiz-adv-x="993" d="M111 0v362h325v-221q0 -165 -22 -243q-32 -105 -101 -154.5t-202 -52.5v157q74 5 110.5 40.5t36.5 111.5h-147zM557 0v362h326v-221q0 -161 -23 -243q-32 -105 -101 -154.5t-202 -52.5v157q74 5 111 40.5t37 111.5h-148z" />
<glyph unicode="&#x2022;" horiz-adv-x="901" d="M121 684q0 138 96.5 235t233.5 97q138 0 233.5 -97t95.5 -235q0 -137 -95.5 -233.5t-233.5 -96.5q-137 0 -233.5 97t-96.5 233z" />
<glyph unicode="&#x2026;" horiz-adv-x="1945" d="M111 0v365h325v-365h-325zM825 0v365h326v-365h-326zM1509 0v365h326v-365h-326z" />
<glyph unicode="&#x202f;" horiz-adv-x="392" />
<glyph unicode="&#x2039;" horiz-adv-x="571" d="M84 426v291l371 309v-330l-156 -121l156 -129v-325z" />
<glyph unicode="&#x203a;" horiz-adv-x="571" d="M117 121v325l155 129l-155 121v330l370 -309v-291z" />
<glyph unicode="&#x205f;" horiz-adv-x="490" />
<glyph unicode="&#x20ac;" horiz-adv-x="1300" d="M61 410l76 221h82v106h-158l76 219h105q16 75 41.5 140t67.5 126t96 104t130 69t166 26q374 0 478 -393l-279 -96q-45 219 -197 219q-79 0 -126 -53t-66 -142h342l-72 -219h-295v-106h265l-74 -221h-162q14 -75 61 -119.5t127 -44.5q83 0 129 51t66 143l287 -63 q-34 -182 -158.5 -292t-329.5 -110q-204 0 -325 118.5t-164 316.5h-189z" />
<glyph unicode="&#x2122;" horiz-adv-x="1918" d="M102 1169v224h727v-224h-243v-708h-240v708h-244zM901 461v932h275l96 -318q20 -67 36 -126t22 -85l5 -26q15 85 58 241l86 314h282v-932h-227v438q-15 -70 -31 -133l-80 -305h-178l-82 299l-33 137v-436h-229z" />
<glyph unicode="&#x25fc;" horiz-adv-x="972" d="M0 0v973h973v-973h-973z" />
</font>
</defs>
</svg>
